<svg width="14" height="14" viewBox="0 0 14 14" fill="none" xmlns="http://www.w3.org/2000/svg">
<path d="M6.85714 1.22805C8.68929 1.22805 8.90625 1.23604 9.62679 1.268C10.2964 1.29731 10.658 1.40919 10.8991 1.50242C11.2179 1.62496 11.4482 1.77414 11.6866 2.01122C11.9277 2.25097 12.075 2.4774 12.1982 2.7944C12.292 3.03415 12.4045 3.39644 12.4339 4.05974C12.4661 4.77899 12.4741 4.99476 12.4741 6.81419C12.4741 8.63628 12.4661 8.85205 12.4339 9.56863C12.4045 10.2346 12.292 10.5942 12.1982 10.834C12.075 11.151 11.925 11.3801 11.6866 11.6172C11.4455 11.8569 11.2179 12.0034 10.8991 12.126C10.658 12.2192 10.2938 12.3311 9.62679 12.3604C8.90357 12.3923 8.68661 12.4003 6.85714 12.4003C5.025 12.4003 4.80804 12.3923 4.0875 12.3604C3.41786 12.3311 3.05625 12.2192 2.81518 12.126C2.49643 12.0034 2.26607 11.8542 2.02768 11.6172C1.78661 11.3774 1.63929 11.151 1.51607 10.834C1.42232 10.5942 1.30982 10.2319 1.28036 9.56863C1.24821 8.84939 1.24018 8.63361 1.24018 6.81419C1.24018 4.9921 1.24821 4.77632 1.28036 4.05974C1.30982 3.39377 1.42232 3.03415 1.51607 2.7944C1.63929 2.4774 1.78929 2.24831 2.02768 2.01122C2.26875 1.77148 2.49643 1.62496 2.81518 1.50242C3.05625 1.40919 3.42054 1.29731 4.0875 1.268C4.80804 1.23604 5.025 1.22805 6.85714 1.22805ZM6.85714 0C4.99554 0 4.7625 0.00799162 4.03125 0.0399581C3.30268 0.0719246 2.80179 0.189135 2.36786 0.356959C1.91518 0.532775 1.53214 0.764532 1.15179 1.14547C0.76875 1.52374 0.535714 1.90467 0.358929 2.3522C0.190179 2.78641 0.0723214 3.28189 0.0401786 4.00647C0.00803572 4.73637 0 4.96812 0 6.81952C0 8.67091 0.00803572 8.90267 0.0401786 9.6299C0.0723214 10.3545 0.190179 10.8526 0.358929 11.2842C0.535714 11.7344 0.76875 12.1153 1.15179 12.4936C1.53214 12.8718 1.91518 13.1063 2.36518 13.2794C2.80179 13.4472 3.3 13.5644 4.02857 13.5964C4.75982 13.6284 4.99286 13.6364 6.85446 13.6364C8.71607 13.6364 8.94911 13.6284 9.68036 13.5964C10.4089 13.5644 10.9098 13.4472 11.3438 13.2794C11.7938 13.1063 12.1768 12.8718 12.5571 12.4936C12.9375 12.1153 13.1732 11.7344 13.3473 11.2868C13.5161 10.8526 13.6339 10.3571 13.6661 9.63257C13.6982 8.90533 13.7063 8.67357 13.7063 6.82218C13.7063 4.97079 13.6982 4.73903 13.6661 4.01179C13.6339 3.28722 13.5161 2.78908 13.3473 2.35753C13.1786 1.90467 12.9455 1.52374 12.5625 1.14547C12.1821 0.767196 11.7991 0.532775 11.3491 0.359623C10.9125 0.191799 10.4143 0.0745885 9.68571 0.042622C8.95179 0.00799162 8.71875 0 6.85714 0Z" fill="#F1BD81"/>
<path d="M6.85826 3.31641C4.91362 3.31641 3.33594 4.88543 3.33594 6.8194C3.33594 8.75337 4.91362 10.3224 6.85826 10.3224C8.8029 10.3224 10.3806 8.75337 10.3806 6.8194C10.3806 4.88543 8.8029 3.31641 6.85826 3.31641ZM6.85826 9.09169C5.59665 9.09169 4.57344 8.07409 4.57344 6.8194C4.57344 5.56472 5.59665 4.54712 6.85826 4.54712C8.11987 4.54712 9.14308 5.56472 9.14308 6.8194C9.14308 8.07409 8.11987 9.09169 6.85826 9.09169Z" fill="#F1BD81"/>
<path d="M11.34 3.17719C11.34 3.63004 10.9703 3.99499 10.5176 3.99499C10.0623 3.99499 9.69531 3.62738 9.69531 3.17719C9.69531 2.72433 10.065 2.35938 10.5176 2.35938C10.9703 2.35938 11.34 2.72699 11.34 3.17719Z" fill="#F1BD81"/>
</svg>
