<svg width="14" height="14" viewBox="0 0 14 14" fill="none" xmlns="http://www.w3.org/2000/svg">
<path fill-rule="evenodd" clip-rule="evenodd" d="M3.11111 0C1.39289 0 0 1.39289 0 3.11111V10.8889C0 12.6071 1.39289 14 3.11111 14H10.8889C12.6071 14 14 12.6071 14 10.8889V3.11111C14 1.39289 12.6071 0 10.8889 0H3.11111ZM11.1472 5.48699C11.3854 5.12957 11.2888 4.64667 10.9314 4.40839C10.574 4.17012 10.0911 4.2667 9.85281 4.62411C9.5774 4.98992 9.28931 5.33899 8.9516 5.65071C8.56046 6.01176 8.16457 6.28227 7.77817 6.44264L7.77257 4.96484C7.72761 4.57802 7.39884 4.27776 7 4.27776C6.57876 4.30207 6.22222 4.6132 6.22222 5.05554V8.45678C4.70699 8.03709 3.88889 6.56724 3.88889 5.05554C3.88889 4.62599 3.54066 4.27776 3.11111 4.27776C2.68156 4.27776 2.33333 4.62599 2.33333 5.05554C2.33333 7.88037 4.28521 10.1111 7 10.1111C7.42957 10.1111 7.77778 9.7629 7.77778 9.33333L7.77824 8.11736C8.81347 8.20034 9.81859 8.93192 10.1932 9.68116C10.3854 10.0654 10.8525 10.2211 11.2367 10.029C11.6209 9.83687 11.7766 9.36966 11.5845 8.98551C11.2125 8.24149 10.5187 7.54538 9.6649 7.09077C9.78009 6.99689 9.89403 6.89772 10.0067 6.79373C10.5325 6.3084 10.9214 5.82563 11.1472 5.48699Z" fill="#F1BD81"/>
</svg>
