<svg width="14" height="14" viewBox="0 0 14 14" fill="none" xmlns="http://www.w3.org/2000/svg">
<g clip-path="url(#clip0_966_3013)">
<path fill-rule="evenodd" clip-rule="evenodd" d="M5.59191 8.81184V4.88357C6.98645 5.53977 8.06652 6.17368 9.34392 6.85711C8.29034 7.4414 6.98645 8.097 5.59191 8.81184ZM13.3637 2.92986C13.1231 2.61293 12.7132 2.36622 12.2767 2.28455C10.9937 2.04091 2.98969 2.04022 1.70741 2.28455C1.35738 2.35017 1.04569 2.50877 0.777933 2.7552C-0.350254 3.80233 0.00326633 9.41776 0.275203 10.3274C0.389555 10.7211 0.537383 11.005 0.723555 11.1914C0.963416 11.4379 1.29183 11.6075 1.66905 11.6836C2.72542 11.9021 8.16763 12.0243 12.2543 11.7164C12.6309 11.6508 12.9642 11.4757 13.227 11.2188C14.2701 10.1758 14.199 4.24506 13.3637 2.92986Z" fill="#F1BD81"/>
</g>
<defs>
<clipPath id="clip0_966_3013">
<rect width="14" height="14" fill="white"/>
</clipPath>
</defs>
</svg>
