<svg width="14" height="14" viewBox="0 0 14 14" fill="none" xmlns="http://www.w3.org/2000/svg">
<g clip-path="url(#clip0_966_2987)">
<path d="M6.85742 0C10.6443 0.000149922 13.7138 3.0532 13.7139 6.81934C13.7139 10.5856 10.6444 13.6385 6.85742 13.6387C3.07033 13.6387 0 10.5857 0 6.81934C9.95016e-05 3.0531 3.07039 0 6.85742 0ZM9.66113 4.10547C9.40322 4.10999 9.00684 4.24646 7.10254 5.03418C6.43552 5.3101 5.10232 5.881 3.10352 6.74707C2.77925 6.87534 2.60941 7.00132 2.59375 7.12402C2.56403 7.35979 2.90553 7.43344 3.33496 7.57227C3.6849 7.68539 4.15549 7.81787 4.40039 7.82324C4.62248 7.82801 4.87087 7.73669 5.14453 7.5498C7.01214 6.29603 7.97658 5.6621 8.03711 5.64844C8.07974 5.63882 8.13874 5.62691 8.17871 5.66211C8.21881 5.69755 8.21518 5.7652 8.21094 5.7832C8.17545 5.92837 6.42343 7.51283 6.32129 7.61816C5.93546 8.0167 5.49681 8.26041 6.17383 8.7041C6.75959 9.08799 7.10062 9.33314 7.7041 9.72656C8.08969 9.97796 8.39191 10.2766 8.79004 10.2402C8.97324 10.2235 9.16265 10.0518 9.25879 9.54102C9.48595 8.33327 9.93196 5.71602 10.0352 4.6377C10.0442 4.54323 10.0335 4.42221 10.0244 4.36914C10.0153 4.3161 9.99598 4.2405 9.92676 4.18457C9.84477 4.11841 9.71803 4.10454 9.66113 4.10547Z" fill="#F1BD81"/>
</g>
<defs>
<clipPath id="clip0_966_2987">
<rect width="13.7143" height="13.639" fill="white"/>
</clipPath>
</defs>
</svg>
