<svg width="14" height="14" viewBox="0 0 14 14" fill="none" xmlns="http://www.w3.org/2000/svg">
<g clip-path="url(#clip0_966_2996)">
<path d="M11.6254 2.34628C10.4486 1.16941 8.82281 0.441406 7.02688 0.441406C3.43544 0.441406 0.523437 3.35297 0.523437 6.94484C0.523437 8.14009 0.845875 9.25965 1.40806 10.2222L1.39144 10.1915L0.46875 13.5612L3.91581 12.6568C4.81313 13.1552 5.88369 13.4483 7.02294 13.4483H7.02556C10.617 13.447 13.5277 10.535 13.5277 6.94353C13.5277 5.14847 12.8006 3.52359 11.625 2.34672L11.6254 2.34628ZM7.02556 12.3497H7.02337C6.00881 12.3497 5.059 12.0697 4.24831 11.5828L4.27281 11.5963L4.0755 11.4795L2.03019 12.0163L2.57575 10.0218L2.44712 9.81747C1.92869 9.00284 1.62069 8.01016 1.62069 6.94528C1.62069 3.96066 4.0405 1.54084 7.02513 1.54084C10.0097 1.54084 12.4296 3.96066 12.4296 6.94528C12.4296 9.92991 10.0106 12.3497 7.02556 12.3497ZM9.99006 8.3024C9.82775 8.22103 9.02887 7.82859 8.88012 7.7739C8.73094 7.71966 8.62244 7.69297 8.51394 7.85572C8.40631 8.01803 8.09481 8.38378 7.99987 8.49228C7.90537 8.60122 7.81 8.61434 7.64769 8.53341C7.14456 8.32953 6.71231 8.05784 6.3365 7.72316L6.34087 7.72709C5.99131 7.40334 5.69162 7.03278 5.44969 6.62416L5.43744 6.60141C5.34294 6.43909 5.42737 6.35116 5.50831 6.27022C5.58137 6.19759 5.67106 6.08034 5.752 5.98584C5.81587 5.90753 5.87056 5.81784 5.91212 5.72159L5.91475 5.71416C5.93356 5.67609 5.9445 5.63191 5.9445 5.58466C5.9445 5.52734 5.92831 5.47397 5.90031 5.42847L5.90119 5.42978C5.86006 5.34841 5.53544 4.54866 5.40025 4.22316C5.26812 3.90641 5.13381 3.94972 5.0345 3.94447C4.94 3.94009 4.8315 3.93922 4.723 3.93922C4.55019 3.94359 4.39662 4.02147 4.29075 4.14178L4.29031 4.14266C3.93944 4.47559 3.72156 4.94503 3.72156 5.46522C3.72156 5.47659 3.72156 5.48841 3.722 5.49978V5.49803C3.77931 6.13984 4.01994 6.71603 4.39006 7.18547L4.38481 7.17891C5.08656 8.21972 6.02194 9.05228 7.11962 9.61316L7.16075 9.63197C7.4005 9.74047 7.70762 9.85641 8.02175 9.95572L8.08694 9.97366C8.28031 10.0349 8.503 10.0703 8.734 10.0703C8.86656 10.0703 8.99694 10.0585 9.12294 10.0362L9.10937 10.038C9.57706 9.9404 9.96512 9.65822 10.2018 9.27278L10.2057 9.26534C10.2779 9.10522 10.3199 8.91841 10.3199 8.72197C10.3199 8.64103 10.3129 8.56184 10.2994 8.48484L10.3007 8.49316C10.2604 8.42534 10.1519 8.38509 9.98919 8.30328L9.99006 8.3024Z" fill="#F1BD81"/>
</g>
<defs>
<clipPath id="clip0_966_2996">
<rect width="14" height="14" fill="white"/>
</clipPath>
</defs>
</svg>
