<svg width="100" height="60" viewBox="0 0 100 60" fill="none" xmlns="http://www.w3.org/2000/svg">
<path d="M11.5821 48.2857C11.5821 47.6378 11.9612 47.1997 14.2079 47.1997C15.6962 47.1997 17.2424 47.2462 19.1536 47.8635V45.6213C18.205 45.3345 16.673 45.0783 14.2696 45.0783C10.1837 45.0783 9 46.3594 9 48.3029C9 50.6686 10.7068 51.2872 14.2079 51.6789C16.1358 51.8886 17.1113 51.9337 17.1113 52.6878C17.1113 53.3662 16.6152 53.6675 14.4264 53.6821C12.8841 53.6821 11.0423 53.5016 9.32132 52.8683V55.2499C11.1207 55.7318 12.5743 55.8818 14.4559 55.8818C17.5406 55.8818 19.7075 55.2499 19.7075 52.6121C19.7075 50.111 17.957 49.7791 14.5729 49.4035C12.9239 49.2229 11.5821 49.1021 11.5821 48.2883M28.4756 51.8448C28.4756 53.3662 27.2057 53.6821 25.4115 53.6821C23.3255 53.6821 22.9168 53.2759 22.9168 52.6573C22.9168 51.9935 23.5877 51.8607 25.2804 51.6032C26.6672 51.4067 28.1401 51.0602 28.4756 50.6991V51.8448ZM30.78 52.3254V48.5565C30.78 45.4368 28.1401 45 25.675 45C24.463 45 22.7279 45.2655 21.3269 45.6186V47.8476C23.0775 47.4865 24.6686 47.2608 25.675 47.2608C26.797 47.2608 28.2455 47.3365 28.2455 48.1795C28.2455 48.903 27.3844 49.1446 25.675 49.3742C22.5904 49.7964 20.3784 50.2026 20.3784 52.6586C20.3784 55.1902 22.3063 55.9137 25.675 55.9137C29.4524 55.9137 30.78 54.5424 30.78 52.3294M36.2694 55.7398C37.1712 55.7514 38.0728 55.7022 38.9684 55.5924L38.6304 53.4963C37.9878 53.5719 37.0238 53.6171 36.2797 53.6171C34.9507 53.6171 34.0459 53.0595 34.0459 52.024V45.1513H31.7491V52.2085C31.7491 55.1185 34.231 55.7372 36.2758 55.7372L36.2694 55.7398ZM47.3946 50.5518C47.3805 50.9899 47.3509 51.3961 47.3072 51.7877C47.1466 53.0529 46.4178 53.6715 45.0747 53.6715H43.8306C42.4888 53.6715 41.7587 53.0529 41.5981 51.7877C41.5544 51.3961 41.5248 50.9912 41.5107 50.5518C41.5248 50.1004 41.5544 49.6929 41.5981 49.3172C41.7587 48.0361 42.4888 47.4188 43.8306 47.4188H45.0696C46.4127 47.4188 47.1414 48.0361 47.3021 49.3172C47.3458 49.6929 47.3753 50.1004 47.3895 50.5518M49.5629 52.7674C49.6774 52.0882 49.7375 51.4005 49.7428 50.7111V50.3792C49.7398 49.6925 49.6809 49.0073 49.5667 48.3308C49.2608 46.1457 47.7879 45.0757 45.0683 45.0757H43.8306C41.1161 45.0757 39.6432 46.1457 39.3322 48.3308C39.218 49.0073 39.1591 49.6925 39.1561 50.3792V50.7111C39.1604 51.3981 39.2193 52.0837 39.3322 52.7608C39.6381 54.93 41.111 56 43.8306 56H45.0696C47.7841 56 49.257 54.93 49.568 52.7608M65.8793 55.6535H68.2274V50.7111C68.2386 49.9138 68.1796 49.1171 68.0513 48.3308C67.7455 46.1603 66.2725 45.0916 63.5529 45.0916H62.8962C61.3204 45.0916 60.1534 45.4514 59.3951 46.1908C58.6574 45.4514 57.4891 45.0903 55.9121 45.0903H55.2553C52.5421 45.0903 51.0679 46.1523 50.7569 48.3295C50.6297 49.1159 50.5712 49.9125 50.5821 50.7098V55.6522H52.9315V50.7111C52.9343 50.2424 52.9683 49.7744 53.0331 49.3105C53.1783 48.044 53.9083 47.4267 55.2501 47.4267H55.9121C57.2539 47.4267 57.9826 48.044 58.1445 49.3105C58.2044 49.7748 58.2336 50.2427 58.2319 50.7111V55.6535H60.5801V50.7111C60.5785 50.2427 60.6077 49.7748 60.6675 49.3105C60.8282 48.044 61.5582 47.4267 62.9 47.4267H63.5568C64.8986 47.4267 65.6273 48.044 65.7739 49.3105C65.8468 49.7735 65.8812 50.2421 65.8767 50.7111L65.8793 55.6535ZM77.4029 50.5451C77.4049 50.9588 77.3757 51.3721 77.3155 51.7811C77.1703 53.0462 76.4261 53.6649 75.083 53.6649H73.8582C72.5163 53.6649 71.7722 53.0462 71.6269 51.7811C71.5664 51.3721 71.5367 50.9589 71.5383 50.5451C71.5356 50.1318 71.5653 49.7189 71.6269 49.3105C71.7722 48.0294 72.5163 47.4121 73.8582 47.4121H75.083C76.4261 47.4121 77.1703 48.0294 77.3155 49.3105C77.3767 49.719 77.406 50.1318 77.4029 50.5451ZM79.5879 52.7608C79.6883 52.0824 79.742 51.3974 79.7485 50.7111V50.3792C79.7432 49.6933 79.6895 49.0087 79.5879 48.3308C79.282 46.1457 77.7885 45.0757 75.0792 45.0757H73.8543C71.127 45.0757 69.6528 46.1457 69.3469 48.3308C69.2376 49.0077 69.1838 49.6929 69.1862 50.3792V50.7111C69.1851 51.3977 69.2388 52.0833 69.3469 52.7608C69.6528 54.93 71.127 56 73.8543 56H75.0792C77.7936 56 79.282 54.93 79.5879 52.7608ZM90.9997 55.6389V50.7111C91.0048 49.914 90.9463 49.1179 90.8249 48.3308C90.5177 46.1457 89.0448 45.0757 86.3265 45.0757H85.2327C82.5183 45.0757 81.0312 46.1457 80.724 48.3308C80.6077 49.1184 80.554 49.9145 80.5634 50.7111V55.6389H82.9128V50.7111C82.9103 50.2427 82.9395 49.7747 83.0002 49.3105C83.1609 48.0294 83.8896 47.4121 85.2327 47.4121H86.3265C87.6683 47.4121 88.3983 48.0294 88.5436 49.3105C88.605 49.7746 88.6342 50.2427 88.631 50.7111V55.6389H90.9997Z" fill="black"/>
<path d="M64.6539 5C65.5421 5.00136 66.3933 5.35525 67.0207 5.98394C67.6481 6.61263 68.0003 7.46469 68 8.35295V37.6483C68 38.5364 67.6476 39.3881 67.0203 40.0165C66.3929 40.6449 65.5418 40.9986 64.6539 41H35.3563C34.9158 41.0007 34.4795 40.9145 34.0723 40.7463C33.6651 40.5782 33.2951 40.3314 32.9833 40.0201C32.6716 39.7088 32.4243 39.3391 32.2556 38.9321C32.0868 38.5252 32 38.0889 32 37.6483V8.35295C32 7.46403 32.3531 6.61152 32.9815 5.98296C33.61 5.3544 34.4624 5.00128 35.3512 5.00128H64.6539M47.4063 31.7685C46.9655 31.7435 46.5374 31.6117 46.159 31.3843L43.2688 29.7603C42.8437 29.5221 42.3788 29.3646 42.0088 29.3646H38.2952C38.1192 29.3646 37.9505 29.4345 37.8261 29.5589C37.7017 29.6833 37.6318 29.852 37.6318 30.028V33.8177C37.6318 34.549 38.2439 35.1151 38.9521 35.2009C46.2985 35.9206 53.6977 35.9206 61.0441 35.2009C61.774 35.124 62.3694 34.5413 62.3694 33.81V27.5037C62.369 26.9975 62.237 26.5001 61.9865 26.0603C61.736 25.6204 61.3755 25.2533 60.9403 24.9947L46.0092 16.597C45.657 16.4139 45.424 15.9682 45.424 15.5173C45.424 14.8053 45.8773 14.2289 46.588 14.2289H52.6065C53.0473 14.2538 53.4754 14.3856 53.8538 14.6131L56.7363 16.2346C57.1615 16.474 57.6327 16.6316 57.9964 16.6316H61.71C61.8858 16.6312 62.0543 16.5612 62.1786 16.4369C62.3029 16.3126 62.3729 16.144 62.3733 15.9682V12.1772C62.3733 11.4472 61.7612 10.8798 61.053 10.7953C53.7062 10.0755 46.3066 10.0755 38.9598 10.7953C38.2299 10.8709 37.6357 11.4536 37.6357 12.1862V18.4912C37.6363 18.9978 37.7687 19.4955 38.02 19.9354C38.2712 20.3754 38.6326 20.7423 39.0686 21.0001L53.9985 29.3992C54.3507 29.581 54.5837 30.0267 54.5837 30.4775C54.5837 31.1896 54.1304 31.7672 53.4197 31.7672L47.4063 31.7685Z" fill="#070606"/>
</svg>
