<?xml version="1.0" encoding="UTF-8"?>
<svg width="153px" height="60px" viewBox="0 0 153 60" version="1.1" xmlns="http://www.w3.org/2000/svg" xmlns:xlink="http://www.w3.org/1999/xlink">
    <!-- Generator: Sketch 51.3 (57544) - http://www.bohemiancoding.com/sketch -->
    <title>Brand / Timberland</title>
    <desc>Created with Sketch.</desc>
    <defs>
        <polygon id="path-1" points="0.232916535 1.2974 23.94 1.2974 23.94 19.83267 0.232916535 19.83267"></polygon>
        <polygon id="path-3" points="0 0.506453949 55.9389303 0.506453949 55.9389303 23.2928008 0 23.2928008"></polygon>
        <polygon id="path-5" points="1.124781 0.36205 15.704241 0.36205 15.704241 3.9 1.124781 3.9"></polygon>
    </defs>
    <g id="Brand-/-Timberland" stroke="none" stroke-width="1" fill="none" fill-rule="evenodd">
        <g id="Group-18" transform="translate(10.000000, 17.000000)">
            <g>
                <path d="M69.960394,21.97715 L69.834044,5.65825 L69.783504,2.85285 L69.582674,2.58115 C69.306034,2.40825 68.976194,2.33805 68.651674,2.38485 C67.417434,3.31955 65.679124,3.19735 64.621774,4.40245 C64.269324,5.16555 65.427754,5.19025 65.377214,5.90525 C65.451694,6.24325 65.476964,6.59165 65.453024,6.93875 L65.503564,6.96215 L65.554104,10.16275 L65.478294,10.33565 C65.175054,9.81695 64.520694,9.79355 63.967414,9.74415 C62.481804,9.64665 61.524204,10.92585 60.794034,12.03345 C60.743494,12.05815 60.643744,12.08285 60.593204,12.00875 C60.416314,11.34315 60.593204,10.58005 60.466854,9.96645 C60.215484,9.57125 59.761954,9.57125 59.308424,9.62065 C58.124724,10.16275 56.865214,10.53195 55.657574,11.04935 L55.128234,11.51605 C55.027154,12.30515 56.135044,12.25445 56.186914,12.96815 L56.261394,21.53385 L56.236124,22.46985 C56.135044,22.86375 55.682844,22.81435 55.430144,23.06005 C55.291824,23.23685 55.263894,23.47215 55.355664,23.67625 C55.455414,23.93495 55.682844,24.12865 55.959484,24.19235 L60.139674,24.24175 C60.466854,24.19235 60.920384,24.21705 61.197024,23.94665 C61.365934,23.75295 61.463024,23.51115 61.473664,23.25635 C61.399184,22.69085 60.542664,22.91315 60.593204,22.29695 C60.844574,19.19515 59.561124,15.20805 62.507074,13.16575 C62.733174,13.06695 63.009814,12.91875 63.237244,13.11635 C63.327684,13.56745 63.545804,13.98605 63.866334,14.32145 C64.148294,14.50475 64.498084,14.55935 64.823934,14.47095 C65.604644,14.07575 65.250864,13.11635 65.554104,12.42735 C65.628584,13.01755 65.554104,13.92885 65.604644,14.54375 L65.628584,22.15005 C65.579374,22.66615 65.151114,22.91315 64.773394,23.15885 C64.666994,23.40455 64.676304,23.68275 64.798664,23.92195 C64.991514,24.18845 65.296084,24.36005 65.628584,24.38865 L69.432384,24.41335 C69.985664,24.41335 70.614754,24.33925 70.816914,23.79845 C70.887404,23.56575 70.850164,23.31355 70.715834,23.10945 C70.211764,22.88715 70.036204,22.44385 69.960394,21.97715" id="Fill-1" fill="#003B44"></path>
                <g id="Group-5" transform="translate(109.060000, 0.002990)">
                    <mask id="mask-2" fill="white">
                        <use xlink:href="#path-1"></use>
                    </mask>
                    <g id="Clip-4"></g>
                    <path d="M22.59537,15.64797 C22.21765,16.73087 21.83993,17.78907 21.15897,18.74977 L20.93287,18.84857 C18.41518,18.70037 16.02251,18.60157 13.65511,18.15957 L13.53009,17.86317 C13.37847,16.53457 13.27872,15.20467 13.25345,13.82797 L13.32793,13.70447 C14.58744,13.30927 17.1304,12.59557 17.1304,12.59557 L17.8353,13.48217 L18.74236,13.38467 L18.23829,12.47337 L20.02714,12.07947 L21.13503,13.38467 L22.36927,13.33527 C22.36927,13.33527 21.73885,12.27577 21.46221,11.73497 L22.49429,11.43987 C23.07284,12.62157 22.97309,14.34407 22.59537,15.64797 Z M12.32112,7.57497 L11.2385,8.31337 L10.50833,5.92527 L11.76651,3.61257 C12.06842,4.22747 12.34639,4.91647 12.62303,5.58207 L12.32112,7.57497 Z M12.12029,10.50387 L11.59095,10.33227 L11.54041,9.44567 L12.19477,9.12587 L12.12029,10.50387 Z M11.16269,17.71627 C8.34309,17.44587 5.62324,17.00257 2.75177,17.00257 C2.34878,17.02727 2.27297,16.58397 2.17322,16.31357 C1.97106,15.27877 1.71969,14.24527 1.7955,13.11297 C2.04687,12.98947 2.42459,13.03887 2.75177,12.98947 L3.78385,11.63617 C4.32516,11.80907 4.85583,12.01447 5.37054,12.25237 C5.14178,12.58777 4.89041,12.91017 4.6151,13.21177 L6.02623,13.16237 L8.94691,10.82367 C9.24882,10.97187 9.40044,11.26697 9.62654,11.51267 C8.71948,12.07947 6.70586,13.16237 6.73113,13.21177 L9.14774,13.18577 L10.45779,12.42527 C10.73044,12.74377 10.96585,13.08957 11.16269,13.45747 L11.16269,17.71627 Z M2.60148,11.12007 C2.60148,11.12007 2.04687,11.83247 1.82077,12.20297 C1.7955,11.80907 1.77023,11.24227 1.94579,10.87307 L2.60148,11.12007 Z M3.75858,9.44567 L3.25584,10.25817 L1.64388,9.51977 L3.75858,9.44567 Z M5.44635,9.24807 L7.33495,9.39627 L7.9135,10.01247 L6.37868,11.31637 L4.53929,10.62737 L5.44635,9.24807 Z M5.06863,5.21287 L5.06863,5.13877 L6.93196,5.65487 L6.93196,7.18107 C6.93196,7.18107 5.69772,5.82777 5.06863,5.21287 Z M9.09853,6.44267 L8.26728,8.31337 L8.19147,6.17227 L9.09853,6.44267 Z M8.11566,3.75947 C8.35506,4.16507 8.54924,4.59407 8.69421,5.03997 L8.11566,4.91647 L8.11566,3.75947 Z M9.82737,8.19117 C10.0282,8.90357 10.1878,9.62637 10.30617,10.35697 L9.29936,9.22467 L9.82737,8.19117 Z M15.14205,7.15637 L15.46923,8.14177 C15.4413,8.30427 15.37214,8.45637 15.26707,8.58377 L13.58063,10.70017 L13.47955,8.48497 L15.14205,7.15637 Z M14.5369,5.67957 L14.61271,5.97597 L14.10864,6.41797 L13.98229,6.02537 L14.5369,5.67957 Z M16.47604,10.40637 L15.59425,11.80907 L14.61271,11.90657 L15.46923,10.52857 L16.47604,10.40637 Z M17.55866,7.18107 L18.33937,7.08227 L17.1304,9.07647 L16.32442,9.10117 L17.55866,7.18107 Z M23.47716,9.93707 C21.33586,10.35697 19.27037,11.01997 17.15567,11.39047 C17.3831,10.96277 17.65309,10.55847 17.96165,10.18407 L20.32905,9.69137 L22.99836,8.65787 C22.92654,8.30037 22.77093,7.96367 22.54483,7.67377 C21.23611,8.16517 20.00187,8.68257 20.00187,8.68257 L18.41518,9.02707 L19.59888,7.03417 L22.06603,6.83657 C21.91441,6.47777 21.6923,6.15147 21.41167,5.87587 C20.4554,5.80307 19.44726,5.82777 18.46572,5.75367 C18.71709,5.18687 19.22116,4.64607 19.54834,4.05587 C19.37677,3.81797 19.12806,3.64507 18.84344,3.56317 C18.01219,4.64607 16.37496,6.91067 16.37496,6.91067 L15.69533,5.01527 L18.01219,2.99767 C17.84461,2.81567 17.62516,2.68697 17.3831,2.62717 C16.60239,3.02107 15.09018,3.85827 15.09018,3.85827 C15.09018,3.85827 14.20972,2.28397 13.73092,1.47147 C13.41039,1.39607 13.07789,1.37137 12.74938,1.39737 C13.15237,2.48027 14.13391,4.59667 14.13391,4.59667 L13.50482,4.72017 L11.69203,1.32327 C11.6109,1.28037 11.51115,1.29077 11.43933,1.34797 C10.91132,2.38147 10.38198,3.43967 9.77816,4.40037 C9.24882,3.58787 8.92164,2.70127 8.44284,1.89007 C7.89355,2.00187 7.36554,2.20077 6.88142,2.48027 C6.83088,3.16927 6.85748,4.40037 6.85748,4.40037 L4.51535,3.98047 C4.0565,4.28207 3.66282,4.66687 3.35692,5.11277 L6.12598,8.21457 L5.22025,8.28867 C5.22025,8.28867 3.65883,6.51677 2.80231,5.65487 C2.60148,5.92527 2.29824,6.17227 2.24903,6.49207 L3.85966,8.41217 C3.85966,8.41217 1.24089,8.63317 1.06533,8.65787 C0.29925,10.58317 0.05586,12.66967 0.36043,14.71327 C0.68761,16.58397 1.29143,18.38057 2.52567,19.83267 L4.26265,19.63507 C10.23169,18.87197 16.37496,20.66857 22.14184,19.24247 C23.92271,16.46827 24.40816,13.08307 23.47716,9.93707 Z" id="Fill-3" fill="#003B44" mask="url(#mask-2)"></path>
                </g>
                <g id="Group-8" transform="translate(0.000000, 1.302990)">
                    <mask id="mask-4" fill="white">
                        <use xlink:href="#path-3"></use>
                    </mask>
                    <g id="Clip-7"></g>
                    <path d="M49.664328,14.81649 C49.412958,13.48789 49.311878,12.30489 49.613788,10.95159 C49.789348,10.45889 50.369228,10.01689 50.873298,10.36009 C51.527658,11.54179 52.559738,12.99519 51.679278,14.34849 C51.251018,14.86459 50.620598,14.98809 50.092588,15.28319 C49.814618,15.28319 49.765408,14.98809 49.664328,14.81649 M41.757478,19.54199 C41.555318,19.68889 41.278678,19.86179 41.076518,19.73829 C40.371618,19.04929 40.297138,18.06519 40.094978,17.15519 C39.868878,14.98809 39.943358,12.92109 40.850418,11.02569 C40.971448,10.77609 41.188238,10.58109 41.455568,10.48359 C41.782748,10.43549 41.857228,10.80339 41.983578,10.90219 C42.890638,13.51129 43.369438,17.12919 41.757478,19.54199 M55.858138,18.85169 C55.630708,18.46039 55.233038,18.18869 54.775518,18.11459 C53.667628,17.76879 54.045348,19.12339 53.542608,19.56669 C53.114348,19.96059 52.434718,19.66419 51.955918,19.51729 C51.099398,19.39379 50.746948,18.45909 50.468978,17.79479 C50.419768,17.47499 50.092588,17.00699 50.468978,16.71189 C52.106208,16.02289 53.844518,15.48079 55.455148,14.71769 C55.594798,14.27179 55.654648,13.80509 55.632038,13.33839 C55.682578,11.51839 54.599958,10.06629 53.239368,8.88459 C52.131478,8.24369 50.445038,8.17089 49.286608,8.85989 C47.096098,10.13909 46.592028,12.62469 46.365928,14.98809 L46.314058,15.03749 C45.937668,12.99519 45.710238,10.97629 44.199358,9.40069 C43.418648,8.56349 42.159138,8.14619 41.076518,8.51409 C40.724068,8.56349 40.396888,9.40069 40.094978,8.85989 L40.044438,1.54999 L39.918088,1.20419 C39.566968,0.76089 38.735718,0.83499 38.231648,1.25359 C37.123758,1.84379 35.813708,1.91789 34.857438,2.80449 C34.716458,2.95919 34.668578,3.17369 34.731088,3.36999 C35.159348,3.78989 35.587608,4.30599 35.612878,4.94559 L35.788438,21.88069 L35.688688,22.07699 L35.562338,21.95349 C34.958518,21.80659 34.982458,21.06819 34.907978,20.60019 C34.893348,18.30699 34.683208,16.01769 34.278888,13.75829 C33.849298,12.10859 33.849298,10.21319 32.365018,9.03279 C31.559038,8.54009 30.173178,8.36719 29.317988,8.90929 C28.864458,9.17969 28.788648,9.94279 28.159558,9.94279 C27.805778,9.57359 27.655488,9.13029 27.176688,8.85989 C26.220418,8.41659 24.733478,8.26839 23.853018,8.98339 C23.399488,9.25379 23.323678,9.89339 22.770398,9.94279 C22.417948,9.76989 22.542968,9.30319 22.542968,8.95739 C22.342138,8.49069 21.762258,8.56349 21.284788,8.58949 C20.668998,8.90149 20.029268,9.16409 19.370918,9.37599 C18.666018,9.69709 17.809498,9.81929 17.280158,10.43549 C17.079328,11.19859 18.187218,11.09979 18.288298,11.81219 L18.388048,20.64959 L18.288298,21.14099 C18.173918,21.52319 17.885308,21.83129 17.507588,21.97949 C17.479658,21.99769 17.466358,22.02629 17.447738,22.05099 C17.443748,21.94049 17.409168,21.83519 17.305428,21.75719 C16.801358,21.68309 16.676338,21.11759 16.575258,20.72369 L16.448908,8.83389 L16.248078,8.56349 C15.946168,8.39189 15.543178,8.44129 15.215998,8.46599 C14.133378,9.00679 12.974948,9.32659 11.867058,9.79589 C11.590418,9.94279 11.211368,10.16379 11.111618,10.48359 C11.211368,11.07509 12.042618,11.07509 12.194238,11.68999 L12.293988,19.98529 L12.244778,20.94469 C12.164978,21.38799 11.847108,21.75459 11.413528,21.90409 C10.854928,21.81049 10.414698,21.38929 10.305638,20.84719 L10.128748,3.83929 L10.356178,3.61699 C10.666068,3.49869 11.018518,3.56629 11.261908,3.78989 C12.268718,4.84809 12.521418,6.25079 13.327398,7.43119 C13.585418,7.70679 13.952498,7.86019 14.334208,7.85109 C14.606858,7.81339 14.856898,7.68339 15.039108,7.48059 C15.277178,7.24919 15.390228,6.92029 15.341018,6.59529 C14.988568,4.72459 14.560308,2.87859 14.082838,1.05729 L13.806198,0.61399 C13.175778,0.22009 12.848598,1.03129 12.293988,1.08199 L3.228708,1.15479 C2.549078,1.35239 2.373518,0.34359 1.643348,0.61399 C1.390648,0.66339 1.289568,0.95849 1.164548,1.15479 L0.257488,5.26539 C0.206948,5.97909 -0.295792,6.86569 0.257488,7.53129 C0.560728,7.87709 1.042188,8.02139 1.491728,7.90049 C1.822898,7.78479 2.094218,7.54429 2.247168,7.23489 C2.700698,6.29889 3.053148,5.29139 3.582488,4.38009 C3.808588,4.06029 4.085228,3.61699 4.538758,3.56759 C4.776828,3.53509 5.012238,3.64039 5.142578,3.83929 L5.218388,7.87449 L5.268928,20.79779 L5.092038,21.33859 C4.967018,21.80659 4.388468,21.65969 4.186308,22.05229 C4.186308,22.20049 4.135768,22.47089 4.311328,22.59309 C5.344738,23.28339 6.830348,22.84009 8.014048,22.96359 C9.020858,22.88949 10.506468,23.15989 11.388258,22.49559 C11.614358,22.69319 11.867058,22.91419 12.194238,22.88949 L16.273348,22.88949 C16.625798,22.84009 17.104598,22.81539 17.355968,22.44619 C17.373258,22.40979 17.385228,22.36949 17.399858,22.32919 C17.410498,22.40069 17.430448,22.46829 17.457048,22.52029 C17.657878,22.88949 18.086138,22.91419 18.463858,22.98699 C20.101088,22.93889 21.485618,23.15989 23.097578,22.86479 C23.399488,22.72049 23.572388,22.40199 23.525838,22.07699 C23.274468,21.73249 22.694588,21.55959 22.719858,20.99409 L22.644048,14.37319 C22.694588,13.48789 22.443218,12.62469 22.870148,11.86289 C23.072308,11.54179 23.399488,11.19859 23.802478,11.17259 C24.172218,11.19079 24.506048,11.39619 24.684268,11.71469 L24.758748,20.91999 C24.608458,21.26449 24.507378,21.78059 24.029908,21.90409 C23.805138,22.02369 23.708048,22.28889 23.802478,22.52029 C24.456838,23.40559 25.967718,22.91419 26.925318,23.03639 C27.706028,22.93889 28.813918,23.33279 29.367198,22.54499 C29.453648,22.36949 29.433698,22.16019 29.317988,22.00289 C28.839188,21.85599 28.662298,21.38799 28.537278,20.96939 L28.512008,12.15799 L28.763378,11.76409 C28.990808,11.59249 29.216908,11.34549 29.544088,11.46899 C29.972348,11.78879 30.122638,12.35429 30.274258,12.84699 C30.683898,15.31439 30.928618,17.80649 31.004428,20.30509 C31.060288,20.84069 30.927288,21.37889 30.626708,21.83129 C30.375338,21.95349 30.022888,22.10169 30.073428,22.44619 C30.175838,22.78029 30.473758,23.02209 30.827538,23.06239 L33.774818,23.11049 C34.530258,23.06239 35.310968,23.25869 35.864248,22.66719 C35.965328,22.85699 36.112958,23.01689 36.292508,23.13519 C36.821848,23.30679 37.250108,22.91419 37.651768,22.66719 C38.004218,22.27329 38.004218,21.58429 38.634638,21.55959 C38.911278,21.65969 38.961818,21.95349 39.088168,22.15109 C40.196058,23.23399 41.933038,23.52909 43.494458,23.11049 C46.037418,22.20049 46.189038,19.46789 46.415138,17.20329 C46.818128,19.68889 47.851538,22.66719 50.721678,23.23399 C52.207288,23.40559 53.793978,23.23399 54.952408,22.27329 C55.556228,21.31389 56.161378,20.13219 55.858138,18.85169" id="Fill-6" fill="#003B44" mask="url(#mask-4)"></path>
                </g>
                <path d="M98.692384,20.94365 C98.542094,21.14775 98.254814,21.20235 98.038024,21.06715 C97.105694,20.25465 97.056484,19.09765 96.803784,18.03945 C96.527144,16.16745 96.904864,14.24865 97.383664,12.54955 C97.508684,12.30385 97.584494,11.93465 97.936944,11.83585 C98.742924,12.10625 98.867944,13.01755 99.145914,13.70785 C99.699194,16.06995 99.850814,18.82595 98.692384,20.94365 M104.081544,21.70675 C103.879384,21.63265 103.739734,21.44935 103.729094,21.23875 L103.552204,3.46775 L103.501664,2.60715 C103.445804,2.37055 103.244974,2.19245 102.998924,2.16385 C101.865764,2.72935 100.631524,3.09725 99.523634,3.71345 C99.145914,3.88635 98.641844,3.73945 98.289394,3.93575 C97.383664,4.96925 99.145914,5.14215 99.272264,5.92865 L99.297534,10.08865 C99.297534,10.18745 99.196454,10.23685 99.095374,10.26025 C98.692384,10.01455 98.415744,9.64665 97.962214,9.57125 C97.117664,9.38925 96.234544,9.61805 95.594814,10.18745 C94.307374,11.57975 93.512034,13.33995 93.328494,15.20805 C92.901564,17.99005 92.775214,21.36095 94.689084,23.50335 C95.569544,24.28985 96.778514,24.78255 97.987484,24.56155 C98.516824,24.41335 98.844004,23.84655 99.321474,23.55275 C99.775004,23.67625 99.272264,24.11825 99.574174,24.33925 C100.102184,24.68505 100.631524,24.28985 101.159534,24.21705 C102.267424,23.82315 103.375314,23.47865 104.433994,22.91315 C104.614874,22.67135 104.686694,22.36975 104.634824,22.07595 C104.609554,21.80425 104.282374,21.78085 104.081544,21.70675" id="Fill-9" fill="#003B44"></path>
                <path d="M75.021975,22.05073 C74.416825,21.85443 74.241265,21.19013 74.114915,20.67143 C74.165455,19.39223 73.762465,17.66973 75.172265,16.88193 C75.424965,16.66093 75.929035,16.43993 76.079325,16.80913 C76.241585,18.42763 76.316065,20.05523 76.305425,21.68153 C75.998195,22.05463 75.487475,22.20153 75.021975,22.05073 M93.329425,22.83853 C93.139235,22.55253 93.034165,22.21973 93.026185,21.87783 C92.847965,19.12963 92.504825,16.39183 91.994105,13.68263 C91.847805,12.85323 91.539245,12.05893 91.088375,11.34393 C90.586965,10.52623 89.799605,9.91393 88.871265,9.62013 C88.220895,9.45893 87.530625,9.64613 87.058475,10.11283 C86.781835,10.33513 86.781835,10.72903 86.429385,10.85253 C86.178015,10.60553 86.328305,10.23633 86.127475,9.96593 C85.850835,9.72023 85.421245,9.72023 85.068795,9.76963 C84.011445,10.33513 82.853015,10.72903 81.770395,11.24513 C80.436405,11.98353 82.350275,12.30333 82.399485,13.04173 L82.500565,22.00133 L82.325005,22.56683 C82.197325,22.86713 81.920685,23.08163 81.593505,23.13363 C81.588185,22.80473 81.520355,22.47843 81.392675,22.17423 C81.367405,21.80503 80.939145,21.75563 80.637235,21.80503 C80.456355,21.72313 80.331335,21.55543 80.310055,21.36173 C80.208975,19.63923 80.133165,17.81663 80.008145,16.09413 C79.831255,14.59393 79.679635,13.06773 79.151625,11.68843 C78.718045,10.78883 77.844235,10.16613 76.834765,10.04003 C75.323885,9.86713 73.838275,9.79303 72.428475,10.26103 C71.446935,10.65493 70.388255,11.49213 70.413525,12.64913 C70.413525,13.38753 70.563815,14.05183 71.168965,14.51853 C71.873865,15.03593 72.956485,14.83963 73.636115,14.42103 C74.114915,13.97773 74.114915,13.21463 73.989895,12.64913 C73.888815,12.22923 73.410015,12.20583 73.283665,11.86133 C73.308935,11.71313 73.485825,11.66373 73.610845,11.63903 L74.946165,11.76253 C75.424965,11.95883 75.549985,12.40213 75.752145,12.79603 C75.952975,13.43563 76.003515,14.27413 75.701605,14.88773 C74.266535,15.38043 72.806195,15.82373 71.673035,17.03013 C70.236635,18.11303 70.136885,20.00843 70.438795,21.68153 C70.589085,22.93733 71.696975,24.04493 72.907275,24.41283 C74.342345,25.05373 75.952975,24.46223 77.036925,23.43003 L77.389375,23.43003 C77.967925,23.92143 78.471995,24.41283 79.202165,24.56233 C79.831255,24.58573 80.485615,24.56233 81.014955,24.14243 C81.191845,23.99553 81.417945,23.74983 81.544295,23.64973 C81.671975,23.96433 81.957925,24.18923 82.299735,24.24253 C83.709535,24.26593 85.446515,24.38943 86.832375,24.14243 C87.058475,23.99553 87.360385,23.74983 87.309845,23.43003 C87.109015,22.96203 86.454655,22.86323 86.479925,22.24703 L86.353575,13.38753 L86.429385,13.04173 C86.551745,12.82333 86.815085,12.72063 87.058475,12.79603 C87.363045,12.98713 87.594465,13.27443 87.712835,13.60853 C88.493545,16.16823 89.123965,18.92553 89.073425,21.65683 C88.972345,22.17423 88.997615,22.81383 88.419065,23.03613 C88.141095,23.13363 88.115825,23.45343 88.166365,23.67573 C88.315325,23.97473 88.609255,24.18013 88.947075,24.21653 C90.407415,24.21653 92.019375,24.34003 93.429175,24.09303 C93.711135,23.97343 93.897335,23.70433 93.907975,23.40403 C93.907975,23.05953 93.555525,23.03613 93.329425,22.83853" id="Fill-11" fill="#003B44"></path>
                <path d="M124.428017,20.18068 C120.323637,19.93498 116.118177,19.51508 111.988527,20.22878 C112.060347,20.44718 112.201327,20.63828 112.391517,20.77088 C117.679597,21.01788 122.689707,22.46998 128.129407,22.54278 C129.166807,21.82128 130.076527,20.93988 130.823987,19.93498 L130.874527,19.76208 C128.749187,20.13778 126.586607,20.27688 124.428017,20.18068" id="Fill-13" fill="#003B44"></path>
                <g id="Group-17" transform="translate(111.720000, 20.802990)">
                    <mask id="mask-6" fill="white">
                        <use xlink:href="#path-5"></use>
                    </mask>
                    <g id="Clip-16"></g>
                    <path d="M3.743551,0.55835 L1.477231,0.36205 C1.350881,0.41145 1.175321,0.31265 1.124781,0.43485 C1.880221,1.29675 2.861761,1.91295 3.794091,2.47975 C7.193571,4.44795 12.431111,4.39855 15.704241,2.15865 C14.142821,1.96105 12.556131,1.83755 10.970771,1.66725 L3.743551,0.55835 Z" id="Fill-15" fill="#003B44" mask="url(#mask-6)"></path>
                </g>
            </g>
        </g>
    </g>
</svg>