<?xml version="1.0" encoding="UTF-8"?>
<svg width="100px" height="60px" viewBox="0 0 100 60" version="1.1" xmlns="http://www.w3.org/2000/svg" xmlns:xlink="http://www.w3.org/1999/xlink">
    <!-- Generator: Sketch 58 (84663) - https://sketch.com -->
    <title>Brand / DrMartins</title>
    <desc>Created with Sketch.</desc>
    <defs>
        <polygon id="path-1" points="0 0.32116095 82.4740664 0.32116095 82.4740664 30.4325424 0 30.4325424"></polygon>
    </defs>
    <g id="Brand-/-DrMartins" stroke="none" stroke-width="1" fill="none" fill-rule="evenodd">
        <g id="3_Dr_Martens_White_Logo" transform="translate(10.000000, 7.000000)">
            <g>
                <path d="M53.8336611,30.2868882 C53.7723158,30.1897854 53.7106424,30.0930107 53.5863114,30.0916985 C53.491833,30.1556682 53.3963705,30.2511308 53.4268791,30.4125314 C53.4875684,30.5427672 53.6433921,30.5752442 53.7680511,30.5772125 C53.7381986,30.4807658 53.8950065,30.4174521 53.8336611,30.2868882" id="Fill-2" fill="#003B45"></path>
                <path d="M38.1558236,39.1343967 C38.1551675,39.1337406 38.1551675,39.1343967 38.1551675,39.1337406 C38.1551675,39.1343967 38.1551675,39.1350528 38.1551675,39.1357089 C38.1551675,39.1357089 38.1551675,39.1343967 38.1558236,39.1343967" id="Fill-3" fill="#003B45"></path>
                <path d="M57.861459,29.3598189 C57.7062914,29.3257017 57.4582856,29.1629889 57.6465863,28.9710797 C57.6180459,28.7453813 57.3388754,28.645326 57.2434128,28.8703683 C57.0524877,29.2866638 57.6767669,29.0675264 57.5494835,29.4526571 C57.5163504,29.6134016 57.3290339,29.7088641 57.1732101,29.70788 C56.8303979,29.6708103 57.1138331,29.3526018 56.9281568,29.2220379 C56.8054661,29.0918021 56.6178215,29.1219827 56.522687,29.2502502 C56.2704165,29.6025759 56.8317101,29.511378 56.7667562,29.8318829 C56.7644598,29.9289857 56.6706375,30.0569252 56.5466346,30.0237921 C56.4229598,29.990331 56.2989569,29.8276182 56.3632547,29.6675298 C56.2710726,29.5369659 56.1467417,29.504817 56.0217546,29.5035048 C55.8656028,29.5661624 55.7393036,29.7252666 55.7074827,29.8545183 C55.6126763,29.9499809 55.4893295,29.8860111 55.3958352,29.8518939 C54.9900374,29.8807623 55.0458059,30.5568734 54.5816151,30.2622845 C54.4563,30.357747 54.423167,30.4863426 54.3286886,30.5821332 C54.1712246,30.7412375 53.9550396,30.6113297 53.7680511,30.5772125 C53.7349181,30.7376289 53.7339339,30.8987015 53.5774541,30.9944921 C53.203149,31.1194791 53.2372662,30.7330362 53.1145755,30.5381745 C52.8048963,30.2777028 52.7383022,30.7930694 52.5493454,30.8872197 C51.9611517,30.4961841 52.1077901,31.5275733 51.549449,31.2326564 C51.2378015,31.1978831 51.326703,31.7139057 50.9842188,31.6463274 C50.860872,31.5803894 50.6125382,31.4819744 50.7385094,31.2900651 C50.7083288,31.1929623 50.6158187,31.0630545 50.4908316,31.0617423 C49.9590626,31.3136847 50.7368691,31.4501535 50.6400944,31.8044475 C50.5764527,31.932059 50.4206289,31.9950446 50.2959699,31.9937324 C50.1089814,31.9271382 50.0496044,31.7345729 50.1132461,31.5731723 C50.0194238,31.4757414 49.9272417,31.4104595 49.771746,31.4091473 C49.7087604,31.4734451 49.5834453,31.5364307 49.5818051,31.6650263 C49.5175073,31.8900686 49.3006662,31.7906694 49.1448425,31.7572083 C49.0513482,31.7572083 48.925049,31.8526709 48.8942123,31.9481334 C48.8610792,32.1101901 48.6727785,32.2046685 48.5179389,32.1705513 C48.0498116,32.1984356 48.5208914,31.7526156 48.2115402,31.6204115 C48.118046,31.4895195 47.9625503,31.5856382 47.8989086,31.6811007 C47.6768187,32.1305292 48.426413,31.8805551 48.2043231,32.3289995 C48.1410095,32.4559548 48.0153663,32.5520735 47.8595426,32.5195965 C47.704703,32.4858074 47.6118648,32.2909457 47.6768187,32.1305292 C47.6151453,32.0337545 47.5226352,31.9035186 47.3664834,31.9346834 C47.147346,31.9957007 47.1457058,32.2551882 47.0197346,32.3814875 C46.556528,31.9589591 46.5483267,32.7643218 46.1444972,32.6954313 C45.9568526,32.6937911 45.7409957,32.5310783 45.8991158,32.338841 C45.867951,32.2102454 45.7446042,32.1121584 45.6202733,32.1111743 C45.0556992,32.4595634 45.9276561,32.5018818 45.769208,32.8214025 C45.736403,32.949342 45.6107598,33.1097585 45.4240994,33.0431643 C45.237767,33.0093752 45.2390792,32.7836768 45.2722122,32.6232603 C45.1803582,32.4943367 45.0556992,32.4595634 44.9310402,32.4589073 C44.7748884,32.4904001 44.7109187,32.6819813 44.647605,32.8099208 C44.4914532,32.9057114 44.2739561,32.7754755 44.1171482,32.8053281 C44.0233259,32.9664006 43.9272072,33.2219516 43.709382,33.1881624 C43.5227216,33.1218963 43.4931971,32.929331 43.4948373,32.7354534 C43.4023272,32.6376945 43.309161,32.5402637 43.1539934,32.5711004 C42.9968574,32.6665629 42.9650366,32.8276355 42.869574,32.9549189 C42.6514208,33.0165923 42.4644323,32.9519664 42.3099207,32.8214025 C42.3732344,32.660658 42.4378602,32.4684207 42.2521839,32.3693496 C42.1586897,32.3047238 42.0346868,32.3355605 41.9713731,32.4641561 C41.7171344,32.8483026 42.4040711,32.693135 42.2761316,33.0779376 C42.2124899,33.2065332 42.0878309,33.3344727 41.9320071,33.3003555 C41.7768395,33.2032527 41.7154941,33.041196 41.7797919,32.8807796 C41.4113918,32.2660139 41.2470387,33.1651989 40.8428811,33.0651437 C40.750043,33.0316826 40.5640386,32.9332676 40.6588451,32.7735072 C40.6293206,32.6121066 40.5371385,32.450706 40.3809867,32.4487377 C40.1936702,32.4799025 40.1611932,32.6718117 40.1280602,32.8322282 C40.2205703,32.9299871 40.3770501,32.9309712 40.4692322,33.0284021 C40.5305775,33.1586379 40.4977725,33.2875616 40.3721294,33.3826961 C39.7163574,33.5696846 40.3786904,32.7377498 39.8488896,32.798111 C39.3833867,32.5363271 39.5631581,33.309869 39.096671,33.1776648 C38.7233501,33.0772815 39.1015917,32.6937911 38.7912564,32.5625711 C38.3260815,32.3332641 38.5055249,33.1081182 38.0396939,32.909648 C37.5715665,32.9703372 37.981629,32.4575951 37.6716218,32.325719 C37.5476189,32.2610931 37.4223038,32.3240787 37.3593182,32.4195413 C37.1044233,32.9004626 37.8553298,32.6183396 37.6958975,33.0677681 C37.6637486,33.1960356 37.5072687,33.2590212 37.3819536,33.2570529 C37.0709622,33.2219516 37.2310506,32.837805 37.1382125,32.7078972 C36.6743498,32.2847127 36.7602989,33.1232085 36.2941398,33.021513 C36.1383161,32.9893641 36.0152973,32.7616974 36.1110879,32.6019371 C35.7735245,31.9868433 35.5780067,32.8542075 35.2361786,32.7551364 C35.0498462,32.7213473 34.864826,32.5901273 34.9907972,32.3660691 C34.9616007,32.2364894 34.8372698,32.1393866 34.6817741,32.1384024 C34.0538864,32.5822541 35.114472,32.4953208 34.8927102,32.9119443 C34.8280844,33.0720327 34.6716045,33.1671672 34.5164369,33.1350183 C34.1746088,33.0352911 34.4898648,32.6842776 34.2726957,32.5205807 C33.7776683,32.1935148 33.9252908,32.9998617 33.5211332,32.8676576 C33.1501086,32.6383506 33.1760246,33.1543733 33.0195447,33.3144617 C32.8932455,33.3443142 32.8010634,33.2790323 32.6764044,33.2780481 C32.5514174,33.3095409 32.4874476,33.4374804 32.4552987,33.5667321 C32.4851513,33.7268205 32.6393348,33.8265477 32.7643218,33.8580405 C32.857488,33.8603369 32.9837873,33.7320693 32.9844434,33.6356226 C32.9860836,33.474222 33.1435476,33.3469386 33.3292239,33.4132047 C33.4538829,33.4781586 33.5454089,33.6405434 33.5122758,33.801944 C33.4788147,34.0597913 33.1684794,33.9915569 33.0126557,33.9580958 C32.9178492,34.0532303 32.8240269,34.1483648 32.8538795,34.3107495 C32.9145687,34.4393451 33.0074069,34.5377601 33.1632306,34.5390723 C33.3810558,34.5413687 33.3525155,34.2513725 33.4784867,34.123433 C33.6349665,34.0935804 33.7894781,34.1254013 33.8819882,34.287786 C33.9436616,34.4173658 33.9105285,34.6096031 33.815394,34.7060498 C33.6910631,34.7372145 33.5982249,34.6716045 33.4735659,34.6699643 C33.3794156,34.7021132 33.2852652,34.7975757 33.3151178,34.8953346 C33.3767912,34.9599605 33.4387926,35.0570633 33.5319588,35.1223452 C33.7793085,35.3181911 33.782589,34.9314201 33.8770674,34.8038087 C34.0325631,34.8047928 34.1887149,34.8070892 34.2802409,34.9688178 C34.3737351,35.0655926 34.2779445,35.225681 34.2766323,35.3552607 C34.3658619,35.5730859 34.6004177,35.4969783 34.7559134,35.6088434 C34.7477121,35.5940811 34.7427914,35.5806311 34.7450877,35.5675091 L34.7585378,35.4917295 C34.7837976,35.3388582 34.8215234,35.1062708 35.0587035,35.1085671 C35.3090057,35.1118476 35.3975792,35.2568457 35.3975792,35.3946267 C35.3975792,35.3877377 35.3972511,35.3818328 35.3956109,35.3755998 C35.3972511,35.3818328 35.3979072,35.3952828 35.3979072,35.3959389 C35.4038121,35.4254634 35.4084048,35.455644 35.4084048,35.4835283 C35.4084048,35.5566834 35.3893779,35.619669 35.3519802,35.6675643 C35.3106459,35.7184121 35.2489725,35.7466244 35.1774576,35.7462963 L34.8743394,35.6928242 C34.8431747,35.6879034 34.8005282,35.6600192 34.7719878,35.6278703 C34.7913428,35.7551537 34.6191165,35.9093372 34.7700195,36.0359645 C35.2309298,36.6523704 35.1164403,35.619669 35.61278,35.8178112 C35.7686037,35.8522565 35.7974721,36.0444938 35.796488,36.1740735 C35.7938636,36.4637417 35.4832002,36.3964914 35.3270484,36.3623742 C35.5094442,36.8475602 35.7331743,36.2708483 36.0733622,36.5303358 C36.197037,36.597258 36.2583824,36.7586586 36.1947407,36.8865981 C36.3177594,37.0489829 36.4732551,37.082444 36.6287508,37.1477259 C36.6595875,37.1162331 36.7222451,37.0850684 36.7235573,37.0210986 C36.7553781,36.8918469 36.9125141,36.7970405 37.0683378,36.7983527 C37.1926688,36.8639627 37.2845228,36.9932144 37.2520458,37.1536308 C37.0296279,37.6030593 37.6850718,37.4160708 37.8385992,37.7073792 C37.8645152,38.2552227 38.2447251,37.6791669 38.4924029,37.7785661 C38.7115403,37.7477294 38.7705893,38.0072169 38.8637555,38.1354845 C39.0143304,38.6203424 39.30039,38.0423183 39.5178872,38.0774196 C39.8301908,38.0488793 39.8265822,38.4028452 40.0116024,38.5658861 C40.2599363,38.6649572 40.3885319,38.3103351 40.6368657,38.3772573 C40.8855276,38.4126867 40.914396,38.6708621 41.0380709,38.8329188 C41.2244033,38.8339029 41.3500464,38.8037223 41.4445248,38.6757828 C41.6639903,38.6456022 41.8805033,38.6790633 42.0350148,38.8096272 C42.0645393,38.9703717 41.9395523,39.0979832 41.9067473,39.195414 C41.7191027,39.2885802 41.5337544,39.1586724 41.3467659,39.1576883 C41.2509753,39.2856278 41.1561689,39.5415068 40.9389998,39.4440759 C40.7215026,39.3771537 40.8799508,39.0891258 40.6316169,38.9897267 C40.2596082,38.7285989 40.2222105,39.4040538 39.8502018,39.2397008 C39.569391,39.2059116 39.7908248,38.8857348 39.5739837,38.7869918 C39.2023031,38.493059 39.1652334,39.1370211 38.7922406,39.005145 C38.480265,39.0012084 38.7026829,38.617718 38.454021,38.5189749 C38.0829965,38.2578471 38.1085844,38.8683482 37.7667563,38.7374562 C37.4866016,38.7348318 37.5515555,38.4133428 37.4278806,38.283435 C37.089005,37.9255325 37.0210986,38.5366896 36.6795986,38.4376185 C36.5552676,38.4038294 36.4001,38.2411166 36.4637417,38.112849 C36.282002,37.5315444 35.8716114,38.1085844 35.5914567,38.1056319 C35.3116301,38.0380536 35.4700782,37.7182049 35.28473,37.554836 C34.976363,37.1975895 34.8152904,37.7431367 34.5656444,37.7733173 C34.4413134,37.7720051 34.3491314,37.6106045 34.3822644,37.4492039 C34.4147414,37.2563105 34.5702371,37.3225766 34.7254047,37.3560377 C34.7578817,37.2910838 34.8510479,37.3245449 34.8205392,37.2274421 C34.6059945,36.8393589 34.4134292,37.3855622 34.1034219,37.1884041 C33.7615938,37.1536308 33.9525189,36.7366793 33.7041851,36.6382643 C33.5496735,36.5077004 33.3617009,36.6671327 33.2980592,36.7957283 C32.8591283,36.9846851 32.9585274,36.4050207 32.7420144,36.2419799 C32.3050518,36.2708483 32.5284539,35.75745 32.2181186,35.593097 C31.9704408,35.3972511 31.8726819,35.9119616 31.6243481,35.7804135 C31.3438653,35.7138194 31.5971199,35.3946267 31.4107875,35.2637348 C31.0049897,35.2922751 31.0095824,34.8408783 30.8258744,34.5813908 C30.4197485,34.6096031 30.5178354,34.1286818 30.2078282,33.9971337 C30.1153181,33.8662418 30.0201836,34.0263302 29.957526,34.090628 C29.8630476,34.1864186 29.70788,34.1523014 29.6153699,34.0542144 C29.5235159,33.861321 29.6196345,33.6044579 29.806295,33.5742773 C29.6530956,33.2826408 29.3066748,33.696968 29.1544596,33.3423459 C29.2200696,32.9549189 29.0029005,32.857488 28.72373,32.72594 C28.6968299,32.2420662 28.1683413,32.1725196 28.0157981,31.7526156 C27.8632548,31.4298144 27.7031664,31.8789149 27.4859973,31.7804999 C27.3623225,31.7148899 27.2071548,31.551849 27.2717807,31.3268067 C27.2416001,31.23036 27.1477778,31.2930176 27.0546116,31.2611967 C26.9611173,31.2913773 26.9289684,31.3884801 26.9279843,31.4855829 C27.2622672,32.3906729 27.8150315,33.2331053 28.3376151,34.0748816 C28.7978693,34.7565695 29.3227493,35.2768568 29.8473012,35.8926066 C30.0618459,36.1852272 30.3734934,36.2836422 30.5257086,36.5752787 C32.8423977,38.7876479 35.6672363,40.0709795 38.6829999,40.743482 C39.1504712,40.7470905 39.5523324,41.0731722 39.9899511,40.8832313 C40.4544699,41.2112813 41.1430469,40.9596669 41.6397146,41.1581372 C41.8900167,41.0639868 42.1386786,41.097776 42.4191614,41.1653543 C42.8246312,41.0082183 43.3531197,41.2063605 43.7274248,41.0167476 C44.5708413,40.9268619 45.4136018,40.8386165 46.1946888,40.6204632 C46.8498047,40.4964603 47.4744119,40.3101279 48.1003313,40.1224833 C48.4447838,39.9007215 48.8814183,39.8731653 49.1956902,39.6176144 C50.696519,38.9871023 52.1392829,38.0672501 53.3960424,36.9505679 C53.773628,36.6005385 54.2447078,36.2173761 54.5294552,35.7699159 C55.6937046,34.6535618 56.5476188,33.244587 57.3083667,31.8661209 C57.5019162,31.1276804 57.9451118,30.4879829 58.0769879,29.7164093 C58.1097929,29.5235159 58.2692252,29.1377291 57.861459,29.3598189 Z M37.7611794,33.5418003 C37.8684518,33.500138 37.9753961,33.5421284 38.0232914,33.6425117 C38.0249316,33.6461202 38.0262438,33.6507129 38.0268999,33.6553056 C38.0501915,33.7281327 38.0396939,33.801944 37.9980315,33.8560722 C37.9609619,33.9059358 37.902897,33.9357884 37.8425358,33.9351323 C37.8195723,33.933492 37.7769258,33.9128249 37.7601953,33.8974065 C37.7601953,33.8974065 37.6368485,33.7842293 37.6322558,33.7717634 C37.6030593,33.6792533 37.6594839,33.5818224 37.7611794,33.5418003 Z M37.1674089,34.0171448 C37.2326909,34.0220655 37.2864911,34.0660242 37.3061741,34.129994 C37.3150314,34.1568941 37.3150314,34.2293931 37.2999411,34.2526847 C37.2602471,34.3146861 37.1831553,34.3146861 37.1270588,34.3146861 C37.1014709,34.3146861 37.0742427,34.3045166 37.0562,34.2858177 C37.0030559,34.2300492 36.9876375,34.1611587 37.0158498,34.1027658 C37.0322523,34.0679925 37.128371,34.0145204 37.1674089,34.0171448 Z M36.5861043,33.2331053 C36.6595875,33.1651989 36.7688282,33.1428915 36.8580578,33.1743843 C36.9390861,33.2039088 36.9925583,33.2750957 37.00404,33.369246 C37.0030559,33.3643253 37.00404,33.3603887 37.0014156,33.355796 C37.00404,33.3603887 37.0046961,33.3653094 37.0056803,33.3708863 C37.0056803,33.369246 37.00404,33.369246 37.00404,33.369246 C37.0128974,33.3984425 37.0174901,33.4266548 37.0174901,33.4519146 C37.0174901,33.5542662 36.958113,33.6241409 36.8908628,33.657602 C36.8731481,33.6667874 36.8101625,33.6730203 36.7891673,33.6684276 L36.5608445,33.6162677 C36.5608445,33.6162677 36.5086845,33.4748781 36.5113089,33.500138 C36.4847369,33.3984425 36.5113089,33.3003555 36.5861043,33.2331053 Z M36.3384266,34.497738 C36.3764804,34.4340963 36.452588,34.4019474 36.5198382,34.4206463 C36.5477225,34.4285195 36.5900409,34.5010185 36.5998824,34.5289028 C36.61038,34.5571151 36.6264545,34.6401117 36.61038,34.6640594 C36.5700299,34.7286852 36.4942503,34.727045 36.4342172,34.7267169 C36.4089573,34.7260608 36.3846816,34.7168754 36.367295,34.6985046 C36.3105423,34.6394556 36.3003728,34.5613797 36.3384266,34.497738 Z M36.1694808,33.644808 C36.2423079,33.6766289 36.2842983,33.7445352 36.2842983,33.8239233 C36.2842983,33.8108013 36.282002,33.7989915 36.2760971,33.7865256 C36.3354741,33.9108566 36.2610068,33.985652 36.1947407,34.0519181 C36.1776821,34.0699608 36.1537344,34.0798023 36.1284746,34.0794743 C36.0251388,34.0791462 35.947391,34.0463412 35.9060567,33.9895886 C35.8735797,33.9446457 35.8663626,33.887237 35.8880139,33.8901894 C35.8584894,33.8130977 35.8735797,33.7353498 35.928036,33.684174 C35.9887253,33.625125 36.0884525,33.6100347 36.1694808,33.644808 Z M35.5986738,32.8040159 C35.6209812,32.7938463 35.6731412,32.8010634 35.6967608,32.8086086 C35.796488,32.8433819 35.9326287,32.890293 35.9749472,33.021185 L35.9749472,33.0185606 C35.9749472,33.0077349 35.980196,33.0329948 35.9762594,33.0228252 C35.9762594,33.021513 35.9749472,33.021513 35.9749472,33.021185 C35.9746191,33.0264338 35.9657618,33.2727993 35.9657618,33.2727993 C35.9657618,33.2727993 35.7584342,33.4591317 35.7285816,33.4640525 C35.5307675,33.4614281 35.3880657,33.3410337 35.3893689,33.1747124 C35.3910182,33.0060947 35.4667977,32.87061 35.5986738,32.8040159 Z M33.5844468,33.3482508 C33.5798541,33.3315203 33.5978969,33.2419626 33.6011774,33.2258882 C33.6234848,33.1287854 33.6569459,32.9791946 33.8134257,32.9408127 L34.1254013,32.994941 L34.2638384,33.2111259 C34.2733518,33.2268723 34.2654786,33.2107979 34.2651506,33.2285126 C34.2641664,33.3334886 34.228737,33.4722537 34.1336025,33.5506577 C34.0676645,33.6044579 33.9909008,33.6228287 33.920042,33.6080664 C33.7448633,33.6067542 33.6234848,33.4722537 33.5844468,33.3482508 Z M34.3179666,34.2881141 C34.1749368,34.2864738 34.0401083,34.1467245 34.0433888,34.0220655 C33.9954935,33.8124416 34.1670636,33.7524084 34.2930348,33.7159949 C34.3773437,33.716979 34.6004177,33.7199315 34.6004177,33.9692495 C34.6004177,33.9699056 34.6004177,33.9712178 34.6004177,33.9722019 C34.6056665,33.9620324 34.6004177,33.9846678 34.6004177,33.9735141 L34.6004177,33.9722019 L34.5023307,34.2123345 L34.3179666,34.2881141 Z M34.7788769,34.963569 L34.5889359,34.9494629 C34.5889359,34.9494629 34.4439378,34.772972 34.4422976,34.7660829 C34.4039157,34.6063226 34.4731343,34.4852721 34.6299422,34.432128 C34.7792049,34.3829205 34.878276,34.4865843 34.943558,34.5554748 C34.9606166,34.5725334 34.969802,34.5964811 34.9694739,34.6214129 C34.9681617,34.7175315 34.9655373,34.917642 34.7788769,34.963569 Z M34.8008562,33.7471596 C34.7788769,33.7245242 34.7496804,33.6812216 34.7496804,33.6169238 C34.7496804,33.5959286 34.7565695,33.5693565 34.7647707,33.5421284 C34.7568975,33.500138 34.7483682,33.4568354 34.7483682,33.4568354 C34.7483682,33.4568354 34.8927102,33.3213507 34.9205945,33.3075726 C35.0078558,33.2790323 35.1036464,33.2898579 35.1695844,33.3387374 C35.2276493,33.3810558 35.2594701,33.4463378 35.2594701,33.5244137 C35.2594701,33.5158844 35.2581579,33.5073551 35.2555335,33.4994819 C35.2581579,33.5076831 35.2575018,33.5158844 35.2597982,33.5253978 L35.2597982,33.5260539 C35.2630787,33.5421284 35.2676714,33.5598431 35.2676714,33.5755895 C35.2676714,33.6690837 35.2102626,33.7537206 35.10135,33.8075208 C35.0114643,33.8373734 34.8753236,33.8272038 34.8008562,33.7471596 Z M35.4372732,34.4921612 C35.3345936,34.4905209 35.2437237,34.432128 35.1915638,34.3002519 C35.192876,34.1926515 35.2702958,34.1080146 35.3801925,34.0916121 C35.4786075,34.0768499 35.5655408,34.1267135 35.5921128,34.2116784 C35.5950653,34.2202077 35.5963775,34.2307053 35.5963775,34.2398907 C35.5957214,34.3087812 35.5944092,34.4245829 35.4372732,34.4921612 Z M35.5950653,35.0783865 C35.5556993,34.9711142 35.5901445,34.8723711 35.6833107,34.8267722 C35.7745086,34.7805171 35.9158982,34.8008562 35.980196,34.9022237 C35.9893814,34.9166579 35.9943021,34.9350287 35.9943021,34.9527434 C35.9926619,35.120705 35.9296763,35.2053419 35.8476638,35.1945162 C35.7302219,35.2532372 35.6537862,35.1567905 35.5950653,35.0783865 Z M36.1721052,35.9483751 L36.0149693,35.895231 C35.9769155,35.881781 35.9250836,35.8279808 35.9254101,35.7892709 C35.9270519,35.6029385 35.9906936,35.4864807 36.1150245,35.4451464 C36.1891638,35.4208707 36.269208,35.4333366 36.3302253,35.4772953 C36.3896024,35.5199418 36.4224074,35.586864 36.4227354,35.6610033 C36.4210952,35.6534582 36.4220793,35.6446008 36.419783,35.6367276 C36.4220793,35.6446008 36.4227354,35.6534582 36.4227354,35.6619875 L36.4227354,35.6610033 C36.4227354,35.6626436 36.4227354,35.6659241 36.4227354,35.6662521 C36.4227354,35.6659241 36.4227354,35.6642838 36.4227354,35.6642838 C36.426672,35.6810144 36.4302806,35.6970888 36.4302806,35.7134913 C36.4302806,35.7794294 36.406989,35.8440552 36.3640145,35.8889981 C36.3098862,35.9464068 36.2308262,35.967402 36.1721052,35.9483751 Z M36.9161226,36.3781206 L36.8016332,36.6513863 C36.8016332,36.6513863 36.6320313,36.7255256 36.6517143,36.7235573 C36.5460822,36.7442244 36.4486514,36.7225731 36.3745121,36.6615558 C36.3013569,36.6005385 36.2613348,36.5083565 36.262647,36.4046927 C36.2636312,36.2636312 36.3551571,36.1353636 36.4949064,36.0897647 C36.688784,36.0510548 36.8688834,36.1662003 36.9134982,36.3551571 C36.9180909,36.3745121 36.9233397,36.3597498 36.9161226,36.3781206 Z M36.997151,35.396595 C36.9800924,35.4166061 36.9485996,35.4405537 36.8941433,35.4402257 C36.8744603,35.4402257 36.8101625,35.4461306 36.79376,35.4349769 C36.721589,35.383145 36.7117475,35.2558616 36.7504574,35.1758174 C36.7688282,35.140716 36.8551053,35.1430124 36.8947994,35.1489173 C36.9344934,35.1551502 37.0132254,35.2096065 37.0194584,35.2496286 L37.0210986,35.2624226 C37.0260194,35.2893227 37.0148657,35.3755998 36.997151,35.396595 Z M37.0460304,36.0389169 C37.0322523,35.9464068 37.0650573,35.862426 37.1372283,35.8115783 C37.207103,35.7610586 37.3045338,35.7525293 37.3783451,35.789927 C37.4429709,35.8243722 37.4813528,35.8889981 37.4800406,35.9641215 C37.4800406,35.9644496 37.4800406,35.9644496 37.4800406,35.9651057 C37.4777442,36.1524222 37.3819536,36.2173761 37.2920679,36.216392 C37.1887322,36.2157359 37.0972062,36.1566869 37.0460304,36.0389169 Z M37.6896645,36.9932144 L37.4469075,36.9066092 C37.4469075,36.9066092 37.3809695,36.7366793 37.3809695,36.7360232 C37.3832658,36.5424737 37.4823369,36.4194549 37.6027313,36.4256879 L37.7936564,36.4407782 L37.9373423,36.6179252 C37.9383264,36.6192374 37.9383264,36.6212057 37.9386545,36.6238301 C37.9442313,36.6474497 37.9475118,36.6707412 37.9475118,36.6910803 C37.9475118,36.8393589 37.8195723,36.9230117 37.6896645,36.9932144 Z M38.2742496,37.6181496 C38.2201214,37.6758864 38.1459821,37.6981938 38.0088572,37.6683413 C37.9340618,37.6519388 37.7339513,37.6046996 37.7687246,37.4098379 C37.7697087,37.3015814 37.8385992,37.1300112 37.9904864,37.0909733 C38.1249869,37.0581683 38.269985,37.1441174 38.342484,37.2976448 C38.3444523,37.3032216 38.3474048,37.3101107 38.348717,37.3163436 C38.368728,37.4029488 38.3546219,37.5341688 38.2742496,37.6181496 Z M38.2673606,34.589592 C38.2289787,34.5991055 38.1236747,34.5718773 38.1023514,34.5390723 C38.0501915,34.4573879 38.0767635,34.3940742 38.0898855,34.3701266 C38.1135051,34.3294484 38.224058,34.3386338 38.2670325,34.3570046 C38.309679,34.3760315 38.3930037,34.4498427 38.3788976,34.4938014 C38.3651195,34.5416967 38.3247693,34.576142 38.2673606,34.589592 Z M38.5635897,33.5496735 C38.4431954,33.5906798 38.3247693,33.533271 38.2545666,33.3613728 C38.2552227,33.2527883 38.2581752,33.0707205 38.4441795,33.0139679 C38.5219274,33.014952 38.6685657,33.0156081 38.7446733,33.1087743 C38.7653405,33.1360025 38.7876479,33.1766807 38.7876479,33.2354016 C38.7876479,33.2462273 38.7856796,33.2590212 38.7833832,33.270503 C38.7863357,33.2859213 38.7889601,33.3016677 38.7889601,33.3170861 C38.7889601,33.3715424 38.7722295,33.421734 38.7397526,33.4633964 C38.6921853,33.5217893 38.6167338,33.5549223 38.5635897,33.5496735 Z M38.7482819,34.097517 C38.7200696,33.9764666 38.781743,33.8852687 38.8575225,33.8580405 C38.9257569,33.8344209 39.0149865,33.8646015 39.0710831,33.9672812 C39.0668184,33.9630165 39.0671465,33.9538311 39.0622257,33.9502226 C39.0697709,33.9571116 39.0753477,33.9649848 39.0792843,33.9744983 C39.076988,33.9699056 39.0723953,33.9722019 39.0710831,33.9672812 C39.0855173,33.9882764 39.1009356,34.0086155 39.1009356,34.03814 C39.1009356,34.0755377 39.0819087,34.1227769 39.0284366,34.175921 C39.0149865,34.1883869 38.9520009,34.2031491 38.932974,34.2054455 C38.8952483,34.2120065 38.8073309,34.2267687 38.7482819,34.097517 Z M39.4112709,37.6424253 C39.4112709,37.6398009 39.4096307,37.6398009 39.4083185,37.6384887 C39.4079904,37.6453778 39.3771537,37.823837 39.3771537,37.823837 C39.3771537,37.823837 39.215097,37.9589936 39.1924616,37.9622741 L38.9136191,37.8858384 C38.9136191,37.8858384 38.8503054,37.7109878 38.8532579,37.7326391 C38.8352151,37.6525949 38.8545701,37.567958 38.9054178,37.5039882 C38.9533131,37.4446112 39.0238439,37.4111501 39.096671,37.4117967 C39.2518386,37.4134464 39.3761696,37.5036602 39.4083185,37.6384887 C39.4083185,37.6381607 39.4099587,37.6358643 39.4099587,37.6358643 C39.411599,37.6237265 39.4145514,37.6539071 39.4112709,37.6424253 Z M39.6205668,33.8541039 C39.496892,33.8534478 39.3732171,33.7757 39.3771537,33.6592422 C39.3486134,33.5673882 39.3755135,33.4781586 39.4473564,33.4194377 C39.5244482,33.3584204 39.6336888,33.3475947 39.713733,33.3922095 C39.7757345,33.4289511 39.8105078,33.493905 39.8105078,33.5742773 C39.8105078,33.5834627 39.8098517,33.5936322 39.8085395,33.6031457 C39.8072273,33.7077936 39.7517868,33.7999757 39.6205668,33.8541039 Z M40.0670429,34.4691977 C40.0385025,34.484616 40.015539,34.5193893 39.9876548,34.5029868 C39.9876548,34.5029868 39.8305188,34.4101487 39.81182,34.3829205 C39.772454,34.2989397 39.8032907,34.2313614 39.844953,34.1946198 C39.9072825,34.1418038 40.015539,34.1355708 40.0847576,34.18281 C40.0988637,34.1923235 40.1290443,34.2585896 40.1359334,34.274336 C40.1575847,34.3199349 40.1785799,34.4075243 40.0670429,34.4691977 Z M40.8655166,33.8705064 L40.7441381,34.0955487 C40.7267514,34.1250732 40.711005,34.1227769 40.6765598,34.1227769 C40.5528849,34.1211366 40.4610309,34.0387961 40.4656236,33.959408 C40.4114954,33.7868537 40.5496044,33.7182912 40.6079973,33.6887667 C40.6421145,33.6717081 40.7067404,33.6897509 40.7339685,33.716979 L40.8573153,33.8298282 C40.8884801,33.8577125 40.8855276,33.8331087 40.8655166,33.8705064 Z M41.1909422,34.7060498 C41.1509201,34.7700195 41.0764527,34.7700195 41.0170757,34.7700195 C40.9911597,34.7700195 40.9645877,34.75985 40.9475291,34.7408231 C40.8911045,34.681446 40.8799508,34.6036982 40.9193168,34.5400565 C40.9576986,34.477727 41.0344623,34.4445939 41.1007284,34.4642769 C41.1289407,34.471494 41.1696189,34.5449772 41.1814287,34.5718773 C41.1902861,34.5991055 41.2073447,34.6824302 41.1909422,34.7060498 Z M41.3966295,33.7061534 C41.2765632,33.7448633 41.1591213,33.6867984 41.0895747,33.5185088 C41.0908869,33.3515313 41.1689628,33.2767359 41.2772193,33.2334333 L41.5298178,33.3059324 L41.5865705,33.4581476 C41.5852583,33.5713248 41.4897957,33.6585861 41.3966295,33.7061534 Z M41.8677093,34.3087812 C41.8516349,34.3327289 41.7633894,34.3576607 41.734193,34.3576607 C41.6406987,34.3566765 41.6052693,34.3055007 41.5865705,34.2782726 C41.5757448,34.2621981 41.5501569,34.2182394 41.5501569,34.1988845 C41.5501569,34.1372111 41.5816497,34.0860353 41.6331536,34.0551986 C41.6931867,34.0223936 41.7689663,34.0220655 41.8240787,34.0542144 C41.8319519,34.0588071 41.8595081,34.0994853 41.865413,34.1047341 C41.9201973,34.1621429 41.9096997,34.2566213 41.8677093,34.3087812 Z M30.3800544,34.7391828 C30.3367518,34.7975757 30.2711418,34.8293966 30.1996269,34.8287405 C30.1996269,34.8287405 30.0093579,34.7352462 29.9883627,34.6985046 C29.944404,34.5584273 30.0283848,34.4150694 30.1730549,34.3537241 C30.2947614,34.3553643 30.4197485,34.4258951 30.4204046,34.543665 C30.4204046,34.543665 30.4204046,34.5446492 30.4204046,34.5449772 C30.423357,34.5603956 30.4276217,34.5777822 30.4276217,34.5932006 C30.4276217,34.6470008 30.4112192,34.6971924 30.3800544,34.7391828 Z M33.6871265,37.3865463 C33.6828618,37.3954037 33.677613,37.404261 33.6697398,37.410494 C33.6753167,37.4059013 33.6730203,37.3980281 33.677613,37.3927793 C33.6192201,37.4951309 33.5401601,37.5013638 33.434856,37.4898821 C33.323319,37.4318172 33.3131495,37.2832106 33.3666216,37.174298 C33.3984425,37.1093441 33.4574915,37.0729305 33.5247417,37.075883 C33.6021615,37.0788354 33.6782691,37.1359161 33.7094339,37.2133359 C33.7186193,37.2369555 33.723212,37.2605751 33.723212,37.2845228 C33.723212,37.3238888 33.703857,37.3603023 33.677613,37.3927793 C33.6802374,37.3875305 33.6848301,37.3917951 33.6871265,37.3865463 Z M35.0629682,38.4218721 C35.0498462,38.4569735 34.9999826,38.4533649 34.963569,38.4546771 C34.9274835,38.4573015 34.8753236,38.4103904 34.8592491,38.3766012 C34.8205392,38.3001656 34.8382539,38.1892847 34.9258433,38.1446699 C34.9599605,38.1279393 35.0265546,38.1574638 35.0547669,38.1840359 C35.0836353,38.2096238 35.1190647,38.2735935 35.1056147,38.309679 L35.0629682,38.4218721 Z M36.2406677,38.5632617 C36.2406677,38.5642458 36.2400116,38.5658861 36.2400116,38.5675263 C36.2400116,38.6344485 36.2357469,38.716461 36.0805793,38.7823991 C36.0277632,38.781743 35.8660346,38.7787905 35.8732517,38.6564279 C35.8411028,38.5714629 35.8640663,38.4838736 35.9309885,38.4271209 C35.9995509,38.3703683 36.0996062,38.3579024 36.1675125,38.3985806 C36.216392,38.427449 36.242964,38.4773126 36.242964,38.5366896 C36.242964,38.545547 36.2416518,38.5550604 36.2400116,38.5642458 L36.2406677,38.5632617 Z M37.2674642,39.0012084 C37.2674642,39.0012084 37.1405088,39.0494318 37.1113124,39.0523842 C37.0726025,39.0586172 36.9846851,39.0730514 36.9295727,38.9506887 C36.8852859,38.8096272 36.9689387,38.6669255 37.1149209,38.6055801 C37.1926688,38.6085326 37.3301217,38.6728304 37.3291376,38.7981455 L37.2674642,39.0012084 Z M38.3155839,39.2534789 L38.3221449,39.2265788 C38.3136156,39.261024 38.2525983,39.2856278 38.217497,39.2931729 C38.1833798,39.300062 38.1131771,39.2856278 38.0908697,39.2570874 C38.0416622,39.1924616 38.0623293,39.1134015 38.073155,39.0694428 C38.0803721,39.0428708 38.1026795,38.9923511 38.1276113,38.9795571 C38.1659931,38.9605302 38.2607996,38.9300216 38.322801,39.0523842 C38.3175522,39.044511 38.335595,39.070427 38.329362,39.0648501 C38.3562621,39.0940466 38.3920196,39.1553919 38.3155839,39.2534789 Z M42.5907315,33.8737869 C42.554318,33.9315237 42.4814909,33.9781068 42.4244102,33.9781068 C42.2889255,33.9767946 42.23939,33.8721467 42.2111777,33.8078489 C42.1944471,33.7405986 42.2183948,33.6730203 42.2728511,33.6303738 C42.3391172,33.5769017 42.4404846,33.566076 42.51528,33.6031457 C42.5762973,33.6310299 42.6123828,33.6897509 42.6123828,33.7579853 C42.6123828,33.7750439 42.600573,33.8580405 42.5907315,33.8737869 Z M42.8800716,34.6161641 C42.8577642,34.6335507 42.7983872,34.6492971 42.7701749,34.6424081 C42.7147344,34.6273178 42.6697916,34.5813908 42.6540452,34.5256223 C42.6419073,34.478055 42.6861941,34.3638936 42.7327772,34.3484753 C42.7947786,34.3274801 42.8469386,34.3314167 42.8876168,34.3606131 C42.9492902,34.4048999 42.947978,34.4793672 42.947978,34.5341516 C42.9473219,34.5626919 42.9033632,34.5991055 42.8800716,34.6161641 Z M43.2592974,33.5470491 C43.2438791,33.5706687 43.1546495,33.5978969 43.125453,33.6008493 C43.0473771,33.605114 42.9269828,33.612003 42.8485788,33.4883282 C42.8377532,33.4719257 42.8377532,33.4299353 42.8397215,33.4102523 L42.8466105,33.3344727 C42.8469386,33.2629578 42.8482508,33.1294415 42.9935769,33.0943401 C43.0736211,33.0677681 43.1680995,33.0835145 43.2386303,33.1360025 C43.2937427,33.1747124 43.3232672,33.2331053 43.328844,33.2954348 C43.3278599,33.2908421 43.3304843,33.2885457 43.328516,33.283625 C43.3314684,33.2934665 43.3331087,33.3019958 43.3331087,33.309869 C43.3331087,33.3059324 43.3291721,33.3003555 43.328844,33.2954348 C43.3573844,33.4036913 43.3108013,33.4722537 43.2819329,33.5126039 L43.2592974,33.5470491 Z M43.6687038,34.0588071 L43.5830828,34.2133187 C43.5666803,34.2438273 43.5447009,34.2464517 43.5099276,34.2461237 C43.3573844,34.2434993 43.3262196,34.175921 43.3275318,34.1181842 C43.328516,34.0735694 43.3455746,33.9525189 43.3885491,33.9446457 L43.525346,33.9184017 L43.6542696,34.0076313 C43.6952759,34.0338753 43.6923234,34.0168167 43.6687038,34.0588071 Z M44.3395661,33.7717634 C44.3031525,33.8288441 44.2372145,33.8652576 44.1706203,33.8652576 C44.1473287,33.8652576 44.1033701,33.8442624 44.0859834,33.828516 C44.0859834,33.828516 43.9636208,33.7136985 43.9616525,33.7077936 C43.932128,33.6303738 43.9462341,33.5539382 44.0010185,33.5017782 C44.0617077,33.4446975 44.1611069,33.4289511 44.2411511,33.4633964 C44.3139782,33.493905 44.3572808,33.5614833 44.3582649,33.6438239 C44.3572808,33.6293897 44.3553125,33.6165957 44.3484234,33.6044579 C44.3553125,33.6169238 44.3553125,33.6303738 44.358921,33.6438239 C44.3612174,33.6559617 44.3667942,33.6667874 44.3667942,33.6785972 C44.3667942,33.7114022 44.3572808,33.743223 44.3395661,33.7717634 Z M45.0396248,33.395162 C44.9959941,33.4528988 44.9300561,33.4853757 44.8893779,33.4797989 C44.8240959,33.5024343 44.752253,33.4902965 44.693204,33.4463378 C44.6236574,33.3958181 44.5806828,33.3131495 44.5869158,33.2570529 C44.5603437,33.1730721 44.5826511,33.0881072 44.6485892,33.0316826 C44.7269931,32.9611518 44.8532924,32.9437652 44.9487549,32.9867397 C45.0314235,33.0244655 45.0783347,33.1012292 45.0793188,33.1973478 C45.0793188,33.198332 45.0796469,33.1989881 45.0796469,33.2003003 C45.0832554,33.2167028 45.087192,33.2331053 45.087192,33.2491797 C45.087192,33.3019958 45.0707895,33.3541557 45.0396248,33.395162 Z M45.1052348,33.9108566 C45.1052348,33.952847 45.172157,34.0768499 45.2138193,34.0866914 C45.1088433,34.0627437 45.1052348,33.9115127 45.1052348,33.9108566 Z M45.2594183,33.9764666 C45.2282535,34.0404363 45.1974168,33.9433335 45.1974168,33.9108566 C45.2597463,33.8793638 45.2918952,33.9115127 45.2594183,33.9764666 Z M46.0811835,33.6375909 C46.0726542,33.6520251 46.0047479,33.7032009 45.9896576,33.7107461 C45.9374976,33.7376462 45.8771364,33.7340376 45.8259606,33.7032009 C45.7685519,33.6667874 45.7308261,33.598881 45.7344347,33.5506577 C45.717048,33.4794708 45.7409957,33.4118925 45.7964361,33.3679338 C45.8564693,33.3206946 45.9437306,33.309869 46.0106528,33.3433301 C46.0690457,33.3715424 46.1031629,33.4289511 46.103819,33.4965294 C46.103819,33.4840635 46.1011946,33.4719257 46.0959458,33.4601159 C46.1011946,33.4722537 46.1011946,33.4847196 46.103819,33.4965294 C46.103819,33.4978416 46.1048031,33.4978416 46.1048031,33.4981697 C46.1048031,33.4978416 46.103819,33.4978416 46.103819,33.4978416 C46.103819,33.4978416 46.1048031,33.4981697 46.1048031,33.4991538 C46.1048031,33.4991538 46.1051312,33.4991538 46.1051312,33.4994819 C46.1074275,33.5122758 46.1130044,33.5227734 46.1130044,33.5349113 C46.1130044,33.5696846 46.1031629,33.6067542 46.0811835,33.6375909 Z M46.7454848,33.3131495 C46.7153042,33.336113 46.661504,33.3584204 46.635588,33.336113 C46.5650573,33.3584204 46.4941985,33.349563 46.4394141,33.309869 C46.3885664,33.2724713 46.3574016,33.211782 46.3629785,33.1776648 C46.3173795,33.0329948 46.3747883,32.916537 46.5046961,32.8752027 C46.6280429,32.8118891 46.7300664,32.9188334 46.7983008,32.9896922 C46.8153594,33.0077349 46.825857,33.0316826 46.825529,33.0556302 C46.825529,33.1389549 46.8238887,33.2527883 46.7454848,33.3131495 Z M46.8606303,33.808505 C46.8606303,33.7999757 46.8514449,33.7930866 46.8514449,33.7842293 C46.8514449,33.7783244 46.8514449,33.7714353 46.8514449,33.7655304 C46.8514449,33.7661865 46.8514449,33.7661865 46.8514449,33.7661865 C46.8514449,33.7734036 46.8580059,33.7940708 46.8606303,33.808505 C46.871784,33.8603369 46.8937634,33.933492 46.9150866,33.946614 C46.8655511,33.9154493 46.8639108,33.8603369 46.8606303,33.808505 Z M47.0390895,33.8167062 C47.0390895,33.8173623 47.0390895,33.8199867 47.0390895,33.8199867 C47.0390895,33.8193306 47.0371212,33.8199867 47.0371212,33.8193306 C47.0367932,33.8419661 47.0325285,33.8626332 47.0089089,33.8688662 C46.9902101,33.8750991 46.9813527,33.8737869 46.9734795,33.8698503 C46.9724954,33.8698503 46.969871,33.8705064 46.9688868,33.8698503 C46.9679027,33.8685381 46.9659344,33.8646015 46.9626539,33.8629613 C46.9583892,33.8580405 46.9531404,33.8537759 46.9511721,33.8455746 C46.9478916,33.8409819 46.9465794,33.8399978 46.9423148,33.8344209 C46.9423148,33.8344209 46.9387062,33.8275319 46.9357538,33.8229392 C46.9318172,33.8399978 46.9144305,33.8442624 46.9134464,33.8626332 C46.9134464,33.8626332 46.917383,33.8127696 46.9186952,33.7917744 C46.9186952,33.7917744 46.9285367,33.8104733 46.9357538,33.8229392 C46.9390343,33.8124416 46.9423148,33.8006318 46.9452672,33.7898061 C46.9452672,33.7816049 46.9452672,33.7740597 46.9452672,33.7661865 C46.9537965,33.762578 46.9583892,33.7648743 46.9662624,33.762906 C46.969871,33.7602816 46.9718393,33.7537206 46.9777442,33.7537206 C47.0262956,33.7550328 47.035481,33.7717634 47.0371212,33.8193306 C47.0371212,33.8180184 47.0390895,33.8180184 47.0390895,33.8167062 C47.0390895,33.8104733 47.0371212,33.7671707 47.0371212,33.7671707 C47.0371212,33.782589 47.0404017,33.7999757 47.0404017,33.815394 C47.0404017,33.8160501 47.0390895,33.8167062 47.0390895,33.8167062 Z M46.9941467,32.8089366 C46.9882418,32.7974549 46.9839771,32.7190509 46.9839771,32.7052728 C46.9810247,32.5842224 46.9751198,32.4024827 47.1752303,32.3558996 C47.3074344,32.3562276 47.4071616,32.3946095 47.4668667,32.4677646 C47.4931107,32.5008977 47.5203389,32.5520735 47.5203389,32.6262128 C47.5203389,32.6403189 47.5180425,32.6586897 47.5150901,32.6747642 C47.5183706,32.6954313 47.5219791,32.7160985 47.5219791,32.7354534 C47.5219791,32.8548636 47.4530886,32.9444213 47.3251491,32.9880519 C47.1794949,33.0362753 47.0433542,32.9126004 46.9941467,32.8089366 Z M47.6935493,33.6080664 C47.573483,33.6070823 47.5200108,33.5270381 47.4868778,33.4574915 C47.4366861,33.3505472 47.4829412,33.2695188 47.5511756,33.2373699 C47.6361405,33.1973478 47.7670325,33.2219516 47.8109912,33.3154458 C47.8159119,33.3236471 47.8221449,33.3836802 47.822801,33.3941778 C47.8287059,33.4433853 47.8408437,33.546393 47.6935493,33.6080664 Z M48.4533131,33.165855 C48.4372386,33.1989881 48.4159154,33.1973478 48.3795018,33.1963637 C48.3122516,33.1950515 48.1987463,33.1930832 48.1452741,33.0772815 C48.1124691,33.008063 48.124935,32.9329395 48.1790633,32.8761869 C48.2443452,32.8053281 48.3539139,32.7774438 48.4359264,32.8099208 C48.5015364,32.8368209 48.5402463,32.8978382 48.5402463,32.9736177 C48.5402463,32.9746019 48.4533131,33.165855 48.4533131,33.165855 Z M49.115318,32.7748194 C49.0487238,32.8076244 48.9437478,32.8200903 48.8030144,32.6645946 C48.7639764,32.5796297 48.7728338,32.496633 48.8282742,32.4356157 C48.8929001,32.3686935 49.0113261,32.3460581 49.1051484,32.3844399 C49.1815841,32.4142925 49.2261989,32.4799025 49.2291513,32.5566662 C49.2252147,32.5455125 49.226855,32.535999 49.2216062,32.5235331 C49.226855,32.5350149 49.2298074,32.5481369 49.2298074,32.562243 C49.2298074,32.5583064 49.2291513,32.5576503 49.2291513,32.5566662 C49.2517868,32.6531129 49.1802719,32.7213473 49.115318,32.7748194 Z M49.7005592,32.4356157 C49.5857417,32.4346316 49.4850303,32.3660691 49.4243411,32.2332089 C49.3790702,32.0337545 49.456818,31.8726819 49.6126418,31.8365964 C49.7281154,31.7975585 49.8120962,31.8677612 49.8626159,31.9104077 C49.8800025,31.9241858 49.9462686,31.9838909 49.9502052,32.0048861 C49.9659516,32.0905071 49.9784175,32.2482992 49.8921404,32.351963 C49.8596634,32.3910009 49.7986461,32.4365999 49.7005592,32.4356157 Z M50.2487307,32.9611518 C50.2388892,32.9857556 50.2529954,32.981819 50.2283916,32.9919885 L50.1142302,33.0352911 C50.079785,33.0484131 50.0266409,33.0500534 50.0020371,33.021513 C49.8885318,32.9037431 49.9429881,32.8128732 49.9633272,32.7882695 C50.0118786,32.7246278 50.1132461,32.7082253 50.1867293,32.7515279 C50.2415136,32.7826926 50.2907211,32.8565039 50.2487307,32.9611518 Z M50.9425565,32.5051623 C50.933043,32.5284539 50.9159844,32.5678199 50.8923648,32.5773333 L50.7263715,32.6380226 C50.6909421,32.6508165 50.6853653,32.6367104 50.6601054,32.6101383 C50.6043369,32.5520735 50.5800612,32.4871196 50.5899027,32.4251181 C50.5994162,32.371974 50.6335334,32.3289995 50.7286679,32.2912737 C50.7969023,32.2922579 50.880227,32.2938981 50.9366516,32.411012 C50.9474772,32.4336474 50.952398,32.4805586 50.9425565,32.5051623 Z M51.5212367,32.2164783 C51.4621877,32.2466589 51.398546,32.2460028 51.3470421,32.2135259 C51.2922578,32.1794087 51.2617491,32.1151109 51.2669979,32.0642631 C51.2423942,31.9838909 51.2771675,31.9077833 51.3519629,31.8789149 C51.4329912,31.8474221 51.5520734,31.8756344 51.5950479,31.9665042 C51.5980004,31.9740494 51.6052175,32.0301459 51.6065297,32.0386752 C51.6117785,32.076401 51.6252285,32.1639903 51.5212367,32.2164783 Z M52.2098136,31.8044475 C52.1448597,31.8369245 52.0625192,31.8333159 52.0005177,31.794606 C51.9483578,31.7624571 51.9194894,31.7116094 51.9247382,31.683069 C51.8834039,31.5531612 51.9483578,31.485911 51.9791945,31.4632755 C52.0444764,31.4147241 52.1442036,31.4147241 52.2160466,31.4632755 C52.2810005,31.5075623 52.3082286,31.5767808 52.2895298,31.6482957 C52.2918261,31.6407506 52.2928103,31.6332054 52.2928103,31.6256603 C52.2928103,31.781484 52.225232,31.8146171 52.2098136,31.8044475 Z M52.9810592,31.3556751 C52.9443176,31.4055387 52.8859247,31.4344071 52.8560721,31.4288303 C52.7346936,31.4695085 52.6165956,31.4124278 52.5562344,31.282848 C52.5513137,31.2716943 52.5463929,31.2021477 52.5457368,31.1896818 C52.5408161,31.1099657 52.533927,30.9889152 52.7058252,30.8931246 C52.8196586,30.8934527 52.9200419,30.9364272 52.973514,31.007286 C53.0027105,31.0453398 53.0187849,31.0919229 53.0187849,31.1411304 C53.0187849,31.1542524 53.0158325,31.1680305 53.0141922,31.1808245 C53.0164886,31.1965709 53.0210813,31.2139575 53.0210813,31.2297039 C53.0210813,31.2756309 53.0079593,31.3195896 52.9810592,31.3556751 Z M53.7637865,31.6138505 C53.7273729,31.5557856 53.7365583,31.4658999 53.7860939,31.4153802 C53.7759243,31.4252217 53.7726438,31.4419523 53.7726438,31.4613072 C53.7726438,31.5010013 53.7893744,31.5531612 53.8057769,31.578093 C53.8097135,31.5856382 53.8267721,31.5902309 53.8366136,31.5990882 C53.826444,31.5633308 53.813322,31.5154355 53.813322,31.5154355 C53.8182428,31.5315099 53.8293965,31.5334782 53.8333331,31.5433197 C53.8336611,31.5413514 53.8366136,31.5393831 53.8366136,31.5374148 C53.8353014,31.5154355 53.8402221,31.4931281 53.8530161,31.4800061 C53.892054,31.4678682 53.9025516,31.4780378 53.9041919,31.4947683 C53.9097687,31.4996891 53.9150175,31.5026415 53.9228907,31.5183879 C53.9304359,31.532166 53.9258432,31.5374148 53.9192822,31.5436478 C53.9150175,31.5488966 53.911737,31.5508649 53.9087846,31.5557856 C53.9087846,31.5633308 53.9087846,31.571204 53.9143614,31.5771089 C53.8877894,31.5856382 53.8697466,31.5836699 53.8569527,31.5757967 C53.8562966,31.5754686 53.8556405,31.5767808 53.8546563,31.5767808 C53.8474392,31.5731723 53.8484234,31.5669393 53.845799,31.5620186 C53.8425185,31.5574259 53.8389099,31.5551295 53.8366136,31.5498807 C53.8366136,31.5469283 53.8343172,31.545288 53.8333331,31.5433197 C53.8333331,31.5469283 53.8293965,31.5469283 53.8293965,31.5508649 C53.8293965,31.5669393 53.8353014,31.584326 53.8398941,31.6023687 C53.8717149,31.6351737 53.9140334,31.6748678 53.9438859,31.6650263 C53.8546563,31.6945508 53.7923268,31.6587933 53.7637865,31.6138505 Z M54.7108668,31.157861 C54.6882314,31.2077246 54.6514898,31.282848 54.5711175,31.29597 C54.5169893,31.3041713 54.4638452,31.2815358 54.4113572,31.2270795 C54.3926583,31.2060843 54.364118,31.1125901 54.3693668,31.0833936 C54.3795363,31.0282812 54.4149657,30.9803859 54.5127246,30.941676 C54.580631,30.9423321 54.6642837,30.9429882 54.7197242,31.0617423 C54.731534,31.086018 54.7230047,31.1329292 54.7108668,31.157861 Z M55.3039812,30.8672087 C55.29578,30.8721294 55.2396834,30.8790185 55.2298419,30.8800026 C55.1924442,30.8862356 55.105511,30.8996856 55.0540071,30.790445 C55.0175936,30.7136813 55.0294034,30.6260919 55.0835316,30.5588417 C55.1304428,30.501761 55.2013016,30.475517 55.2649433,30.4915914 C55.2944678,30.4994646 55.3653266,30.5296452 55.3856657,30.6392139 L55.3889462,30.6654579 C55.3948511,30.7021995 55.4135499,30.8114402 55.3039812,30.8672087 Z M55.9620495,30.4863426 C55.939086,30.4984805 55.8652748,30.4807658 55.840671,30.4715804 C55.7950721,30.4548498 55.6556508,30.4030179 55.7130596,30.3137883 C55.6556508,30.1924098 55.7074827,30.1189266 55.7327426,30.0916985 C55.787855,30.0319934 55.8875822,30.016247 55.9738593,30.0506922 C56.0575121,30.0841533 56.1080318,30.1592768 56.1070476,30.2448978 C56.1067196,30.3485616 56.0509511,30.4404156 55.9620495,30.4863426 L55.9620495,30.4863426 Z" id="Fill-4" fill="#003B45"></path>
                <path d="M38.1551675,39.1337406 C38.1531992,39.1304601 38.1528711,39.1278357 38.1512309,39.1245552 L38.1558236,39.1337406 C38.1581199,39.1219308 38.158776,39.1104491 38.1610724,39.0999515 C38.1561516,39.0999515 38.1512309,39.0940466 38.1459821,39.0996234 C38.1249869,39.1261955 38.1384369,39.1094649 38.1551675,39.1337406" id="Fill-5" fill="#003B45"></path>
                <path d="M33.087123,32.7347973 C33.1802892,32.7029765 33.2744396,32.60817 33.2750957,32.4785903 C33.2458992,32.3499947 33.0913877,32.2200869 32.935892,32.2171344 C32.8105769,32.2482992 32.7462791,32.4096998 32.7452949,32.5382954 C32.8063122,32.6678751 32.9303151,32.7662901 33.087123,32.7347973" id="Fill-6" fill="#003B45"></path>
                <path d="M32.6271969,31.892693 C32.6583617,31.8936771 32.7210192,31.8297074 32.6914947,31.7332607 C32.6609861,31.6026968 32.5048343,31.6981593 32.4720293,31.794606 C32.5022099,31.859888 32.5648674,31.892693 32.6271969,31.892693" id="Fill-7" fill="#003B45"></path>
                <path d="M35.4297281,32.0793534 C35.4612209,32.0813217 35.5242065,32.0170239 35.4940259,31.9205772 C35.4628611,31.8871161 35.4628611,31.8552953 35.4323525,31.8552953 C35.3063813,31.9186089 35.3053971,32.0468765 35.4297281,32.0793534" id="Fill-8" fill="#003B45"></path>
                <path d="M33.7455194,32.2568285 C33.7776683,32.1935148 33.8393417,32.161694 33.8403258,32.0649192 C33.8409819,32.0016056 33.7481438,31.9035186 33.6553056,31.8710417 C33.5926481,31.9333712 33.4984977,32.0301459 33.4975136,32.1269207 C33.5585309,32.1922026 33.6208604,32.2886493 33.7455194,32.2568285" id="Fill-9" fill="#003B45"></path>
                <path d="M31.9688006,32.3375288 C32.0002934,32.3057079 32.0947718,32.2420662 32.0950998,32.1777684 C32.0340825,31.9838909 31.7850926,31.9822506 31.7827962,32.2066368 C31.813961,32.2715907 31.8753063,32.3365446 31.9688006,32.3375288" id="Fill-10" fill="#003B45"></path>
                <path d="M36.5165577,32.476622 C36.5801994,32.4133083 36.7366793,32.3499946 36.7061706,32.221071 C36.6766461,32.0911632 36.4279842,31.9602713 36.3643425,32.1531647 C36.2386994,32.2482992 36.3925548,32.443817 36.5165577,32.476622" id="Fill-11" fill="#003B45"></path>
                <path d="M34.7559134,35.6088434 C34.75985,35.6150763 34.766739,35.6206532 34.7719878,35.6278703 C34.7719878,35.6252459 34.7739561,35.6203251 34.772972,35.6180288 C34.7677232,35.61278 34.7618183,35.61278 34.7559134,35.6088434" id="Fill-12" fill="#003B45"></path>
                <path d="M31.3107323,32.7177387 C31.3422251,32.6862459 31.3737179,32.6226042 31.4052107,32.5576503 C31.3438653,32.4595634 31.1266962,32.3936253 31.1555646,32.588159 C31.1870574,32.6521287 31.2165819,32.7177387 31.3107323,32.7177387" id="Fill-13" fill="#003B45"></path>
                <path d="M32.3660691,33.1150073 C32.4910562,33.0507095 32.6166993,32.9549189 32.5871748,32.7948305 C32.5258295,32.6645946 32.4323352,32.6314616 32.3080043,32.6301494 C32.214182,32.6619702 32.1193755,32.7571047 32.1180633,32.8863564 C32.1800648,32.9841153 32.2414101,33.1140231 32.3660691,33.1150073" id="Fill-14" fill="#003B45"></path>
                <path d="M31.8024792,33.3679338 C31.8343001,33.3344727 31.8349562,33.270503 31.8356123,33.2383541 C31.8044475,33.1734001 31.7434302,33.0762974 31.6492799,33.1081182 C31.5866223,33.172088 31.6781483,33.3334885 31.8024792,33.3679338" id="Fill-15" fill="#003B45"></path>
                <path d="M51.2712626,30.9718566 C51.3335921,30.9734969 51.3654129,30.876066 51.366069,30.8130804 C51.3037395,30.7474704 51.2748711,30.6825165 51.2122136,30.6825165 C51.1479158,30.7461582 51.0239129,30.7766669 51.0544215,30.8734416 C51.0842741,30.9377394 51.1767842,31.0689594 51.2712626,30.9718566" id="Fill-16" fill="#003B45"></path>
                <path d="M51.8984942,30.5588417 C51.9293309,30.5276769 51.9929726,30.4961841 51.9933006,30.4309022 C51.9621359,30.3666044 51.8998064,30.3341274 51.8702819,30.3334713 C51.6816531,30.3958008 51.805328,30.5263647 51.8984942,30.5588417" id="Fill-17" fill="#003B45"></path>
                <path d="M48.8030144,31.5620186 C48.8666561,31.5292136 48.9598223,31.433751 48.9299697,31.3369763 C48.8387718,31.1749196 48.6199625,31.2372491 48.5874855,31.3986497 C48.6173381,31.4629475 48.7105043,31.5603783 48.8030144,31.5620186" id="Fill-18" fill="#003B45"></path>
                <path d="M47.1217581,31.5134672 C47.0902653,31.5134672 47.0600847,31.4485133 47.02892,31.4485133 C46.9662624,31.4800061 46.9029488,31.5433197 46.996115,31.6082736 C47.0584445,31.6099139 47.0584445,31.5443039 47.1217581,31.5134672" id="Fill-19" fill="#003B45"></path>
                <path d="M54.3336093,30.0346178 C54.3962669,29.970648 54.4595805,29.9388272 54.4605647,29.8758416 C54.3998754,29.681636 54.1810661,29.7433094 54.1485891,29.9040539 C54.1790978,29.9686797 54.239459,30.0989156 54.3336093,30.0346178" id="Fill-20" fill="#003B45"></path>
                <path d="M38.2644081,32.2683102 C38.296229,32.2351772 38.420888,32.2056527 38.3903793,32.1069096 C38.3595426,32.0432679 38.2985253,32.010791 38.2352117,32.0094788 C38.1728822,32.0412996 38.1098966,32.1049413 38.1404052,32.1705513 C38.1712419,32.2345211 38.2017506,32.2673261 38.2644081,32.2683102" id="Fill-21" fill="#003B45"></path>
                <path d="M55.0563035,29.4615144 C55.0257948,29.3332469 54.869315,29.3962325 54.8998236,29.5245 C54.9303323,29.5576331 54.9618251,29.5891259 54.9926618,29.59011 C55.0244826,29.5576331 55.0868121,29.5261403 55.0563035,29.4615144" id="Fill-22" fill="#003B45"></path>
                <path d="M57.9001689,28.619082 C57.9310056,28.6830518 58.0235157,28.7480057 58.0848611,28.750302 C58.1796675,28.750302 58.2121445,28.6217064 58.2124725,28.5577367 C58.1521113,28.2995613 57.8706444,28.4245484 57.9001689,28.619082" id="Fill-23" fill="#003B45"></path>
                <path d="M42.9712695,32.1820331 C42.90894,32.1498842 42.8777753,32.0524533 42.8157738,32.0524533 C42.7531163,32.0846022 42.6583098,32.2128698 42.7518041,32.2771676 C42.843002,32.4067473 42.9387926,32.2476431 42.9712695,32.1820331" id="Fill-24" fill="#003B45"></path>
                <path d="M41.0984321,32.4552987 C41.1922544,32.4559548 41.2549119,32.35918 41.2558961,32.2630614 C41.1627299,32.1016608 40.9455608,32.1318414 40.9130838,32.2922578 C40.9432644,32.3575398 41.0039537,32.4552987 41.0984321,32.4552987" id="Fill-25" fill="#003B45"></path>
                <path d="M43.9626366,32.7078972 C44.057115,32.6435994 44.1201006,32.5481369 44.1214128,32.3873924 C44.0597394,32.3227665 43.9672293,32.1922026 43.8422423,32.2233674 C43.7792567,32.2876652 43.6539416,32.3831277 43.6841222,32.5123794 C43.7139747,32.6094822 43.8369935,32.73939 43.9626366,32.7078972" id="Fill-26" fill="#003B45"></path>
                <path d="M39.3204011,32.6314616 C39.444404,32.6019371 39.5395385,32.5051623 39.5090298,32.3755826 C39.510342,32.2791359 39.3866672,32.2466589 39.2928449,32.2128698 C39.1996787,32.2440345 39.1055283,32.338841 39.1347248,32.4684207 C39.1652334,32.5337027 39.2574155,32.6314616 39.3204011,32.6314616" id="Fill-27" fill="#003B45"></path>
                <path d="M46.3685553,32.0855864 C46.4308848,32.0544216 46.556528,31.991108 46.5263474,31.8936771 C46.4633618,31.8297074 46.4033286,31.7007837 46.3088502,31.7631132 C46.2465207,31.794606 46.1523704,31.8257708 46.182551,31.9222175 C46.2133877,32.0209605 46.274733,32.0846022 46.3685553,32.0855864" id="Fill-28" fill="#003B45"></path>
                <path d="M44.5915085,32.1666147 C44.654166,32.1341378 44.7158394,32.102973 44.7168236,32.0061983 C44.6561343,31.8441416 44.4688178,31.9396041 44.4675056,32.0675436 C44.4980142,32.1003486 44.5288509,32.1984356 44.5915085,32.1666147" id="Fill-29" fill="#003B45"></path>
                <path d="M46.103819,33.4965294 L46.103819,33.4965294 C46.103819,33.4965294 46.103819,33.4971855 46.103819,33.4978416 C46.103819,33.4971855 46.103819,33.4971855 46.103819,33.4965294" id="Fill-30" fill="#003B45"></path>
                <path d="M38.1558236,39.1343967 C38.1551675,39.1337406 38.1551675,39.1343967 38.1551675,39.1337406 C38.1551675,39.1343967 38.1551675,39.1350528 38.1551675,39.1357089 C38.1551675,39.1357089 38.1551675,39.1343967 38.1558236,39.1343967" id="Fill-31" fill="#003B45"></path>
                <path d="M38.1551675,39.1337406 C38.1531992,39.1304601 38.1528711,39.1278357 38.1512309,39.1245552 L38.1558236,39.1337406 C38.1581199,39.1219308 38.158776,39.1104491 38.1610724,39.0999515 C38.1561516,39.0999515 38.1512309,39.0940466 38.1459821,39.0996234 C38.1249869,39.1261955 38.1384369,39.1094649 38.1551675,39.1337406" id="Fill-32" fill="#003B45"></path>
                <path d="M34.7559134,35.6088434 C34.75985,35.6150763 34.766739,35.6206532 34.7719878,35.6278703 C34.7719878,35.6252459 34.7739561,35.6203251 34.772972,35.6180288 C34.7677232,35.61278 34.7618183,35.61278 34.7559134,35.6088434" id="Fill-33" fill="#003B45"></path>
                <path d="M38.8768775,9.17457435 C38.7207257,9.2962809 38.1948615,9.8408439 38.0370695,9.60431985 C37.9268447,9.4399668 38.1768188,9.23231115 38.1768188,9.23231115 L36.0251388,8.9498601 L35.6514899,10.0740875 L36.1192892,10.4004972 L35.5812872,13.4667806 L36.9394142,14.3449704 L38.1568077,12.9888117 L37.6496424,12.5006733 C37.6496424,12.5006733 37.3042058,12.8418453 37.1726577,12.5272454 C37.1339478,12.4347353 37.3311059,11.9137918 37.4744637,11.521116 C37.6178216,11.1297524 37.9002726,10.3749093 38.1768188,10.8217134 C38.4192477,11.2130771 38.5986911,11.8964052 38.5986911,11.8964052 L39.3925721,10.9161918 L39.2534789,9.46325835 C39.2534789,9.46325835 39.0195792,9.2962809 38.8768775,9.17457435" id="Fill-34" fill="#003B45"></path>
                <path d="M57.310007,8.75138985 C57.1427015,8.8553817 56.5650054,9.3349908 56.431161,9.08993745 C56.3383229,8.91803925 56.6069958,8.739252 56.6069958,8.739252 L54.7564658,8.25997095 L54.272264,9.3192444 L54.7062741,9.6820677 L53.8690905,12.6151628 L55.1347074,13.6012811 L56.4797124,12.3979937 L56.0217546,11.8740978 C56.0217546,11.8740978 55.6461374,12.1722953 55.5457541,11.8534307 C55.5162296,11.7592803 55.6139885,11.2639248 55.7960562,10.8955247 C55.9768118,10.5271245 56.2592628,9.9884664 56.4515001,10.2879761 C56.6942571,10.6698262 56.7641318,11.3751338 56.7641318,11.3751338 L57.651507,10.4959598 L57.6557717,9.0692703 C57.6557717,9.0692703 57.4395867,8.88457815 57.310007,8.75138985" id="Fill-35" fill="#003B45"></path>
                <path d="M34.0141923,6.38549325 C33.4656927,6.38549325 33.0221691,6.8024448 33.0221691,7.3142028 C33.0221691,7.8226803 33.4656927,8.2393038 34.0141923,8.2393038 C34.5626919,8.2393038 35.0058875,7.8226803 35.0058875,7.3142028 C35.0058875,6.8024448 34.5626919,6.38549325 34.0141923,6.38549325 Z M33.8793638,12.813633 C33.6930314,12.6263165 34.5758139,9.88578675 34.5758139,9.88578675 L32.3303117,9.2759418 L32.0481887,10.3522739 L32.5166441,10.8217134 L32.2364894,14.0493974 C32.2364894,14.0493974 33.4988258,14.7980075 33.546393,14.7980075 C33.5926481,14.7980075 34.6686521,13.1603819 34.6686521,13.1603819 L34.2474359,12.6925826 C34.2474359,12.6925826 34.0663523,12.9996374 33.8793638,12.813633 L33.8793638,12.813633 Z" id="Fill-36" fill="#003B45"></path>
                <path d="M52.7734035,5.58964395 C52.2245759,5.58964395 51.7810523,6.00626745 51.7810523,6.51802545 C51.7810523,7.026831 52.2245759,7.4434545 52.7734035,7.4434545 C53.3219031,7.4434545 53.7650987,7.026831 53.7650987,6.51802545 C53.7650987,6.00626745 53.3219031,5.58964395 52.7734035,5.58964395 Z M52.6379189,11.9055906 C52.4519145,11.7228668 53.3346971,9.0692703 53.3346971,9.0692703 L51.2771675,8.43252525 L50.9960286,9.47638035 L51.4638279,9.93040155 L51.0655752,13.0514693 C51.0655752,13.0514693 52.258037,13.8273075 52.3052762,13.8273075 C52.3508751,13.8273075 53.4281913,12.2398736 53.4281913,12.2398736 L53.005991,11.7884768 C53.005991,11.7884768 52.8245793,12.0840498 52.6379189,11.9055906 L52.6379189,11.9055906 Z" id="Fill-37" fill="#003B45"></path>
                <path d="M46.5972062,5.95771605 L44.3841809,10.1547878 L44.1761972,9.9786249 C44.1761972,9.9786249 44.1230531,7.93979415 44.3034806,6.38549325 L42.0911114,7.72459335 L41.8903448,9.37599705 C41.8903448,9.37599705 41.7289442,9.56692215 41.511447,9.90743805 C41.511447,9.34581645 41.4054869,5.44464585 41.4054869,5.44464585 L39.3476292,6.88281705 L39.3925721,7.7806899 L39.8606994,7.8279291 C40.0847576,9.8034462 40.2651851,12.374046 40.3219377,13.1167512 C40.5085982,13.2765116 41.6981075,13.8801236 41.6981075,13.8328844 C41.6981075,13.7859732 42.8124933,11.2868883 42.8124933,11.2868883 L43.2284607,13.908992 L44.7424115,13.1577575 C44.7424115,13.1577575 47.0066126,7.82038395 47.4343898,7.17281325 C47.6423735,7.0898166 48.2587794,7.05077865 48.2587794,7.05077865 L48.4228044,5.77072755 L46.5972062,5.95771605" id="Fill-38" fill="#003B45"></path>
                <path d="M49.4181081,11.7543596 C49.4181081,11.7543596 49.6500395,10.517283 50.3297591,8.7490935 L48.3755652,8.3580579 L47.468835,9.3881349 L47.9392587,9.69223725 C47.9392587,9.69223725 48.0711348,9.56692215 48.1826718,9.5016402 C48.4218203,9.362547 48.5110499,9.6722262 48.3358712,9.9497565 C47.4570252,10.5573051 46.4112018,11.2576919 45.6691527,12.2303601 L46.3698675,13.8440381 L48.2279427,13.2509237 L49.0985874,13.9440933 L50.217566,12.58367 C50.217566,12.58367 49.9958042,12.1818087 49.8803306,11.9643116 C49.5047133,12.2651334 49.3564347,11.986619 49.4181081,11.7543596 Z M48.0776958,12.2812079 C48.0776958,12.2812079 47.3543456,12.6026969 46.9928345,12.6965192 C46.8872024,12.7266998 46.7300664,12.7736109 46.7300664,12.6604337 C46.7300664,12.2159259 48.2587794,11.2288235 48.2587794,11.2288235 L48.0776958,12.2812079 L48.0776958,12.2812079 Z" id="Fill-39" fill="#003B45"></path>
                <g id="Group-43">
                    <mask id="mask-2" fill="white">
                        <use xlink:href="#path-1"></use>
                    </mask>
                    <g id="Clip-41"></g>
                    <path d="M30.7622327,14.2770641 C30.600504,12.9901239 30.8845953,7.3962153 30.9265857,7.3142028 C30.7081044,7.38342135 28.8211608,7.9217514 28.8211608,7.9217514 L26.4349251,14.2363858 L25.8273765,14.1432197 L25.3772919,15.2061017 L27.1832072,16.3887219 L28.120118,13.908992 L29.1223107,14.1432197 C29.2167891,15.1240891 29.4300216,16.2017334 29.4300216,16.2017334 L31.4875512,15.1713284 L31.4875512,14.1878345 C31.4875512,14.1878345 30.9095271,14.2642701 30.7622327,14.2770641 Z M29.0081493,12.787061 L28.4471838,12.6473117 L29.1482267,10.6950861 L29.0081493,12.787061 L29.0081493,12.787061 Z" id="Fill-40" fill="#003B45" mask="url(#mask-2)"></path>
                    <path d="M9.0705825,4.5835146 L9.0705825,10.2951932 C9.02957625,11.816033 6.58429155,11.5453917 6.58429155,11.5453917 L6.58429155,3.33331605 C6.58429155,3.33331605 9.02957625,3.063987 9.0705825,4.5835146 Z M48.794157,26.677026 C46.5158498,27.037881 44.2352462,27.2986808 41.9694048,27.4476155 L42.0563381,28.1430815 C44.3198831,27.9925065 46.5988464,27.7300665 48.8735451,27.3701957 L48.794157,26.677026 Z M49.0224798,28.6679615 L49.0943228,29.294537 C47.9628783,29.5576331 43.9662452,29.9926274 42.2977829,30.0907143 L42.2190509,29.4510168 C44.4783312,29.2961772 46.753358,29.0311128 49.0224798,28.6679615 Z M48.9873785,28.3625469 C46.7169444,28.7243861 44.4419177,28.9901066 42.180669,29.1442901 L42.095048,28.4498082 C44.3572808,28.2995613 46.635588,28.0364652 48.9086465,27.6765944 L48.9873785,28.3625469 Z M48.7590557,26.3699712 C46.4794362,26.7311543 44.1975204,26.9926101 41.9323352,27.1405607 L41.8480263,26.4598569 C41.8480263,26.4598569 43.0873992,26.2207085 43.0093233,25.1201007 C42.9886562,24.9570599 42.7649261,23.2357815 42.7304808,22.9644842 C42.5963084,22.1453433 41.6331536,22.4041748 41.6331536,22.4041748 C41.6331536,22.4041748 41.2506473,19.3008218 41.2745949,19.2972132 C41.5298178,19.2617838 42.2653059,19.1869884 42.1649226,18.3806415 C42.0783174,17.6717255 41.8532751,16.0314755 41.8532751,16.0314755 L46.1346557,15.5308712 C46.1346557,15.5308712 46.3170515,17.176698 46.4036567,17.885286 C46.5033839,18.691961 47.2313268,18.5591007 47.4878619,18.5302323 C47.5108254,18.5276079 47.8943159,21.6309609 47.8943159,21.6309609 C47.8943159,21.6309609 46.9006524,21.6430988 46.969871,22.4688006 C47.002676,22.7407541 47.2037706,24.4653129 47.2237817,24.6283538 C47.4156909,25.7135432 48.6717944,25.6180806 48.6717944,25.6180806 L48.7590557,26.3699712 Z M11.2868883,14.5575468 L0.12301875,14.5575468 L0.12301875,11.4522255 C0.12301875,11.4522255 2.001105,11.4463206 2.0831175,9.8848026 L2.0831175,4.9942332 C2.001105,3.4333713 0.12301875,3.4274664 0.12301875,3.4274664 L0.12301875,0.32116095 L11.2868883,0.32116095 C11.2868883,0.32116095 13.5094271,0.33821955 13.5806139,2.65359645 L13.5806139,12.2264235 C13.5094271,14.5408163 11.2868883,14.5575468 11.2868883,14.5575468 Z M9.0705825,4.5835146 C9.02957625,3.063987 6.58429155,3.33462825 6.58429155,3.33462825 L6.58429155,11.5453917 C6.58429155,11.5453917 9.02957625,11.816033 9.0705825,10.2961773 L9.0705825,4.5835146 Z M14.2550847,12.0637107 L14.2573811,14.4223902 L18.0237231,14.4223902 L18.0184743,12.124728 C18.0184743,12.124728 17.5145895,12.1020926 17.5145895,11.5795089 L17.510981,10.1820159 C17.5188542,9.0863289 18.6401291,9.05253975 18.6401291,10.241721 L18.6483303,10.6586726 L20.759004,10.6563762 C20.759004,10.6563762 20.7603162,10.2095721 20.7629801,9.657792 C20.7737663,7.15969125 18.55418,6.97991985 17.3531889,8.24160015 L17.3531889,7.47396315 L14.2573811,7.47396315 L14.2573811,9.34450425 C14.2573811,9.34450425 14.7612659,9.3677958 14.7612659,9.8920197 L14.7589695,11.5161953 C14.7589695,12.0404192 14.2550847,12.0637107 14.2550847,12.0637107 Z M18.8615628,14.4223902 L20.8761179,14.4223902 L20.8761179,12.1371939 L18.8615628,12.1394903 L18.8615628,14.4223902 Z M6.58429155,3.33462825 L6.58429155,11.5453917 C6.58429155,11.5453917 9.02957625,11.816033 9.0705825,10.2961773 L9.0705825,4.5835146 C9.02957625,3.063987 6.58429155,3.33462825 6.58429155,3.33462825 Z M29.0560446,27.6313235 L18.4039331,27.6795468 C18.5115335,27.9252563 18.6414413,28.1558754 18.783815,28.3786214 C22.4015504,28.3625469 25.9897613,28.3448322 29.0550605,28.3317102 L29.0560446,27.6313235 Z M29.0537483,29.6504712 L29.0530922,30.3262542 L24.2222279,30.3262542 L24.2222279,29.6721225 L29.0537483,29.6504712 Z M29.0540763,29.3414481 C27.549639,29.347353 25.9211988,29.3548982 24.2222279,29.3630994 L24.2222279,29.1282156 C24.1808936,29.2099001 24.1251251,29.288304 24.0624675,29.3630994 C22.6302012,29.3706446 21.152336,29.3765495 19.6620048,29.3834385 C19.4107185,29.1770951 19.1922372,28.940571 18.9977036,28.6869884 L29.0544044,28.6413894 L29.0540763,29.3414481 Z M20.0904381,29.6904933 L23.7189991,29.6747469 C22.9552988,30.2084843 21.6181669,30.4092509 20.60154,29.9614626 C20.4214405,29.8814184 20.2508545,29.7908766 20.0904381,29.6904933 Z M28.2700368,25.7916191 L28.2664283,19.4687834 L24.2222279,19.4845298 L24.2222279,20.6822403 C23.7714872,19.7705894 21.9157083,19.2683448 20.60154,19.8480092 C18.626351,20.7199661 17.8593701,22.8726302 17.8728201,24.905556 C17.8672433,25.7404433 17.996823,26.5923891 18.285507,27.3715079 C22.071204,27.3547773 25.8496839,27.3370626 29.0560446,27.3219723 L29.0567007,26.6458613 C29.0567007,26.6458613 28.2700368,26.6094477 28.2700368,25.7916191 Z M23.3486307,26.643893 C22.6817051,26.643893 22.1437031,25.6492454 22.1437031,24.4223384 C22.1437031,23.1944472 22.6817051,22.1975033 23.3486307,22.1975033 C24.0152283,22.1975033 24.5542145,23.1944472 24.5542145,24.4223384 C24.5542145,25.6492454 24.0152283,26.643893 23.3486307,26.643893 Z M17.0795952,26.6094477 C17.0795952,26.6094477 15.0696329,26.6445491 15.0456852,25.3822127 C15.0240339,24.1159397 15.0073034,21.2514071 15.0351876,20.2938291 C15.0807866,18.6352083 16.9867571,18.7018025 16.9867571,18.7018025 L16.9867571,15.7096584 L11.2097966,15.7096584 L8.54275005,20.6245035 L5.87701575,15.7096584 L0.10136745,15.7096584 L0.10136745,18.7018025 C0.10136745,18.7018025 2.07229185,18.6352083 2.11953105,20.2938291 C2.14643115,21.2514071 2.1303567,24.1159397 2.10903345,25.3822127 C2.0831175,26.6445491 0.00688905,26.6094477 0.00688905,26.6094477 L0.00557685,27.4551606 C1.4801616,27.4476155 4.1242446,27.4351496 7.35061635,27.4207154 L7.35061635,26.6806346 C7.35061635,26.6806346 6.3700749,26.6579991 6.3700749,25.8142545 C6.3700749,24.9744465 6.3700749,24.0352394 6.3700749,24.0352394 L8.54406225,26.7964362 L10.7180496,24.0352394 C10.7180496,24.0352394 10.7180496,24.9744465 10.7180496,25.8142545 C10.7180496,26.6579991 9.73619595,26.6806346 9.73619595,26.6806346 L9.73619595,27.4098897 C12.0453399,27.3990641 14.5493456,27.3888945 17.0818916,27.3767567 L17.0795952,26.6094477 Z M0.00098415,29.7826754 L7.35061635,29.7485582 L7.35061635,30.4325424 L0,30.4325424 L0.00098415,29.7826754 Z M0.0052488,27.7635276 L7.35061635,27.7300665 L7.35061635,28.4307813 C4.12260435,28.4455436 1.4781933,28.4573534 0.00360855,28.4639144 L0.0052488,27.7635276 Z M0.00295245,28.7726094 L7.35061635,28.7401325 L7.35061635,29.439207 C4.12129215,29.4546254 1.476225,29.4661071 0.0013122,29.4729962 L0.00295245,28.7726094 Z M17.0832038,28.3861665 C14.5506578,28.3966641 12.045996,28.4094581 9.73619595,28.4199557 L9.73619595,27.7189128 L17.0822196,27.6854517 L17.0832038,28.3861665 Z M17.0855001,29.7052556 L17.0868123,30.4325424 L9.73619595,30.4325424 L9.73619595,29.7377325 L17.0855001,29.7052556 Z M17.0851721,29.3962325 C14.552298,29.4070581 12.0463241,29.4172277 9.73619595,29.4290375 L9.73619595,28.7289788 L17.0838599,28.6951896 L17.0851721,29.3962325 Z M36.3089021,27.5988465 L30.4358229,27.6250905 L30.436479,28.3258053 C32.9706653,28.3139955 35.0400047,28.303826 36.3105423,28.2995613 L36.3089021,27.5988465 Z M36.3128387,29.307987 C35.0429571,29.3138919 32.9723055,29.3230773 30.4374632,29.333903 L30.4371351,28.6348284 L36.3105423,28.6085844 L36.3128387,29.307987 Z M36.3131667,29.6166821 L36.314807,30.3039468 L30.4377912,30.3039468 L30.4374632,29.6432541 L36.3131667,29.6166821 Z M36.3089021,27.2894954 C35.0373803,27.2950722 32.9680409,27.3049137 30.4351668,27.3160674 L30.4345107,26.62421 C30.4345107,26.62421 31.2211746,26.5894367 31.2211746,25.771608 L31.2244551,23.2357815 C31.2244551,22.4182809 30.4377912,22.3831796 30.4377912,22.3831796 L30.4377912,19.4628785 L35.2693116,19.4628785 L35.2693116,20.6612451 C37.1431332,18.691961 40.5873302,18.9721157 40.5703347,22.871318 C40.566663,23.7314651 40.5640386,24.4292274 40.5640386,24.4292274 L37.2891155,24.4321799 L37.2776337,23.7816567 C37.2776337,21.926534 35.5268309,21.979022 35.5150211,23.6871783 L35.521254,25.8677267 C35.521254,26.6862114 36.3075899,26.7219689 36.3075899,26.7219689 L36.3089021,27.2894954 Z M82.3756514,14.3840084 C82.3641696,14.3472668 82.3517037,14.3128215 82.3392378,14.2770641 C79.801115,15.864498 76.9857899,17.3961634 73.9690421,18.8212127 L74.277081,19.4044856 C77.2328115,17.9948547 79.9881035,16.4838564 82.4681615,14.9213543 C82.4527431,14.729117 82.4235467,14.5467212 82.3756514,14.3840084 Z M82.353344,16.002279 C80.0232048,17.4637418 77.452277,18.8792775 74.7019058,20.2091922 L74.4201108,19.6751268 C77.3200728,18.2927241 80.0268134,16.8112503 82.4740664,15.2802409 C82.4737383,15.2979557 82.4747225,15.3150143 82.4740664,15.333057 C82.4596322,15.5479297 82.4179698,15.7733001 82.353344,16.002279 Z M76.9569215,16.9959425 C75.9406226,17.5263993 74.8954553,18.0447183 73.8256842,18.5505714 L73.456628,17.8511688 C73.456628,17.8511688 75.9947508,16.5183017 76.4395866,16.2739044 C76.5107735,16.350012 76.6511789,16.7423598 76.8522735,16.9168824 C76.8906554,16.9493594 76.9244445,16.9746192 76.9569215,16.9959425 Z M82.2257325,13.9864117 C81.0221171,14.7402706 79.7561721,15.4816637 78.4341306,16.20567 C78.4305221,16.1148002 78.4046061,16.0108083 78.3478535,15.9068165 C78.062778,15.392106 77.7186536,15.254325 75.5817359,15.9602886 C74.9587689,16.1666321 72.997686,16.658379 71.7271484,15.3399461 C71.4571632,15.057823 71.1858659,14.5887116 71.0530056,14.2905141 C70.1862975,12.3596118 71.7632339,10.746918 72.7831413,10.1370731 C73.2483162,9.85954275 77.8347833,7.50151935 77.8347833,7.50151935 L79.4218892,10.4726682 C79.4218892,10.4726682 76.6597082,11.9160882 76.2138882,12.1598293 C76.1223623,12.0623985 76.0170582,11.7714182 75.8107148,11.7021996 C75.3422594,11.5463759 74.4263438,12.071912 74.4394658,12.5032977 C74.4440585,12.6650264 74.5441137,12.8730101 74.604803,12.9222175 C74.7871988,13.069512 75.1555989,13.1712075 76.3395314,12.7266998 C80.5799057,11.1297524 81.7343136,12.8392209 82.2257325,13.9864117 Z M82.1847263,16.4690942 C82.1732445,16.494026 82.1643872,16.5189578 82.1522493,16.5435615 C81.8281359,17.2170482 81.2346935,17.8875824 80.2594008,18.4216478 C79.7847125,18.6814634 76.1850198,20.5930107 75.1769222,21.1087053 L74.8449356,20.4795054 C77.4716319,19.21028 79.9356155,17.8613384 82.1847263,16.4690942 Z M62.0214611,25.2414792 C63.9087327,24.6421319 65.7631994,23.9909526 67.5710829,23.2948305 L67.3444004,22.6987637 C65.53094,23.3893089 63.6718806,24.0352394 61.7803443,24.6283538 L62.0214611,25.2414792 Z M73.1800818,20.9269656 C71.6615384,21.6257121 70.0950996,22.2985426 68.4886388,22.9365999 L68.2563794,22.3461099 C69.8654646,21.7152697 71.436168,21.0499843 72.9593042,20.3561586 L73.1800818,20.9269656 Z M73.2909627,21.2130252 L73.5114123,21.7805517 C72.7030971,22.1945508 69.6341894,23.4762422 68.8304669,23.8088849 L68.6005038,23.2213473 C70.2069647,22.5839462 71.7724193,21.9120998 73.2909627,21.2130252 Z M61.4152247,23.7032528 C63.3116817,23.114403 65.1756618,22.4697848 66.9960113,21.7805517 L67.2351597,22.412048 C65.4210432,23.1042335 63.5613278,23.75082 61.666839,24.3426222 L61.4152247,23.7032528 Z M72.4970817,19.1653371 C70.9709931,19.8565385 69.3979934,20.5195275 67.7869398,21.1477433 L66.3658272,17.524103 C65.7907556,15.9973583 64.0927688,16.5396249 64.7216406,18.1572395 C64.9860489,18.8408957 65.2737488,19.5481715 65.5158497,20.1872129 C65.7920678,20.9184363 66.5800439,20.6884733 66.5800439,20.6884733 L66.8874267,21.4944921 C65.065437,22.1840532 63.2004728,22.8289995 61.3033596,23.4178493 L61.0589624,22.7981628 C61.0589624,22.7981628 61.7285124,22.3510307 61.4723054,21.6522842 C61.2620253,21.0824613 60.8352323,19.9956317 60.5941155,19.3821782 C60.2421179,18.4829931 59.5184396,18.7762698 59.5184396,18.7762698 L58.4676954,16.0531268 L62.9636207,14.3072447 C62.9636207,14.3072447 63.3982869,15.3884975 63.3969747,15.424911 C63.7932591,14.5440968 65.0578919,13.4900721 66.246417,13.2023723 C68.9662796,12.5426637 69.7132494,14.499482 71.1665109,17.9492558 C71.5034183,18.7477295 72.1956038,18.3878586 72.1956038,18.3878586 L72.4970817,19.1653371 Z M72.8487513,20.0704271 C71.3256152,20.7632687 69.7545837,21.4285541 68.1451704,22.0610345 L67.899461,21.4341309 C69.5098584,20.8059152 71.081874,20.1429261 72.6082907,19.4507406 L72.8487513,20.0704271 Z M62.1333261,25.5272108 C64.0196136,24.9278634 65.8727681,24.2770122 67.6793394,23.5815462 L67.8968366,24.1549776 C67.3840944,24.3593528 62.8894814,26.0005869 62.3836283,26.1626436 L62.1333261,25.5272108 Z M54.4385853,25.2687074 C53.0178008,25.5931488 51.589143,25.8847853 50.1562206,26.1370557 C50.1368657,26.0809592 50.1175107,26.0238785 50.1007802,25.9730307 C49.9180563,25.403864 49.3856312,23.4890361 49.1815841,22.2759072 C48.2587794,16.7738526 57.5091333,15.5528505 58.4752406,19.2791705 L59.2402532,22.0787492 L53.7890463,23.481819 L54.1623672,24.9153975 L54.1850027,24.9137573 C54.2384748,25.0679408 54.3277044,25.1850546 54.4385853,25.2687074 Z M53.465589,22.1400945 L55.2222968,21.7011636 C55.2222968,21.7011636 54.9949581,20.7176697 54.8860455,20.4086466 C54.5619321,19.479609 52.9646567,19.8939362 53.1496769,20.8301909 C53.2185674,21.1821885 53.465589,22.1400945 53.465589,22.1400945 Z M59.4659516,23.2108497 L55.8255807,24.1159397 L56.0214266,24.892434 C57.2384921,24.5896439 58.4476844,24.2642183 59.6463791,23.9164853 L59.4659516,23.2108497 Z M59.9688522,25.1771814 C56.9708033,26.0517627 53.9035358,26.788235 50.8169133,27.3511688 C50.9960286,27.562433 51.2125416,27.7546703 51.4792463,27.9118062 C51.484167,27.9137745 51.4887597,27.9177111 51.4940085,27.9200075 C54.4090608,27.3636347 57.3031179,26.6530784 60.1332053,25.8185192 L59.9688522,25.1771814 Z M59.7224867,24.2130425 C56.6243825,25.1145239 53.4541073,25.8667425 50.2684137,26.4309885 C50.2684137,26.4309885 50.2687418,26.4323007 50.2687418,26.4329568 C50.3543628,26.6353637 50.4636035,26.853845 50.6053211,27.0683897 C50.6072894,27.0710141 50.6086016,27.0726543 50.6108979,27.0756068 C53.740823,26.5103766 56.8527053,25.7663592 59.8927446,24.8786559 L59.7224867,24.2130425 Z M51.9126003,28.1539071 C52.2954347,28.3448322 52.8977345,28.5554403 53.8907418,28.3841982 C55.3423631,28.1319278 58.8397041,27.2432403 60.380555,26.788235 L60.2089848,26.1154044 C57.4894503,26.9178147 54.712179,27.6054075 51.9126003,28.1539071 L51.9126003,28.1539071 Z" id="Fill-42" fill="#003B45" mask="url(#mask-2)"></path>
                </g>
                <path d="M9.73619595,29.4290374 L9.73619595,29.7377325 M17.0855001,29.7052556 L17.0851721,29.3962325" id="Fill-44" fill="#003B45"></path>
                <path d="M35.1984528,42.0520734 C34.8730272,41.918229 34.6798058,41.9720292 34.5167649,42.3909491 C34.4964258,42.4454054 34.4623086,42.5113434 34.5538346,42.5503814 C34.5932006,42.5654717 34.6903034,42.5723607 34.7552573,42.5648156 L35.0491901,42.5251215 C35.1663039,42.5080629 35.3562449,42.4332675 35.3982353,42.3230427 C35.449083,42.1947752 35.3234399,42.1048895 35.1984528,42.0520734 Z M52.5700125,40.9714767 C52.4801268,40.9531059 52.3912253,40.973117 52.3003554,41.0351184 C52.2071892,41.0964638 52.1537171,41.1715872 52.1369865,41.261801 C52.1189438,41.3516867 52.1458439,41.4487895 52.2137502,41.550485 C52.2819846,41.6521805 52.3620288,41.7131978 52.4519145,41.7315686 C52.5414722,41.7496113 52.632014,41.72796 52.723868,41.6672708 C52.8147378,41.6055974 52.8675539,41.5321142 52.8842844,41.4415724 C52.887893,41.4251699 52.8888771,41.4067991 52.8888771,41.3890844 C52.8888771,41.314289 52.8613209,41.2365411 52.8065366,41.1528884 C52.7383022,41.0515209 52.6579299,40.9911597 52.5700125,40.9714767 Z M34.9150176,42.8994266 C34.871715,42.882696 34.8011843,42.8869547 34.7585378,42.888929 L34.5082356,42.8928656 C34.4032596,42.8971302 34.3451948,42.8912253 34.3104215,42.9801269 C34.1513172,43.3888772 34.2569493,43.492869 34.5256223,43.604078 C34.7624744,43.702493 35.0318034,43.7267687 35.1134879,43.5164886 C35.1879552,43.3265477 35.002935,42.9371523 34.9150176,42.8994266 Z M59.8382883,28.0141578 C58.4532612,36.0120168 51.051141,42.1193237 42.1265408,42.1193237 C34.4833038,42.1193237 27.9603576,37.6371765 25.3740114,31.3254945 L22.6961393,31.3254945 C25.1712765,40.1438066 32.9306432,46.5831 42.1265408,46.5831 C52.7140265,46.5831 61.3988222,38.1151454 62.303256,27.2399598 L59.8382883,28.0141578 Z M28.5669221,39.5575812 L28.3700921,39.3532061 C28.3641872,39.3469731 28.3612347,39.3390999 28.3612347,39.3322109 C28.3612347,39.3256499 28.362875,39.3194169 28.3658274,39.3141681 C28.3658274,39.3141681 28.7417727,38.7115403 28.7427569,38.7115403 C28.7427569,38.7115403 28.7690009,38.6708621 28.7932766,38.6344485 C28.7519423,38.6593803 28.7148726,38.683328 28.7138885,38.683328 L28.0981386,39.0363098 C28.0856727,39.044511 28.0695983,39.0412305 28.0594287,39.0327012 L27.8671914,38.8312785 C27.8570219,38.8220931 27.8550536,38.8076589 27.8612865,38.7965052 L28.4278289,37.6850718 C28.4327496,37.6758864 28.441607,37.6696535 28.4514485,37.6680132 C28.46129,37.666701 28.4714595,37.6712937 28.4786766,37.6778547 L28.6984701,37.9058495 C28.7047031,37.9120824 28.7076555,37.9192995 28.7076555,37.9284849 C28.7076555,37.9327496 28.7056872,37.9389825 28.7027348,37.9439033 C28.7027348,37.9439033 28.3487688,38.5484994 28.3477847,38.5498116 C28.3477847,38.5498116 28.3307261,38.5767117 28.3192443,38.591802 C28.3349907,38.5836008 28.9612382,38.2129043 28.9612382,38.2129043 C28.973376,38.2063433 28.9891224,38.2069994 28.9999481,38.217825 L29.2187574,38.4451637 C29.2243343,38.4513966 29.2276148,38.4582857 29.2276148,38.4664869 C29.2276148,38.473376 29.2259745,38.4773126 29.2230221,38.4838736 L28.8546219,39.0740355 C28.8546219,39.0740355 28.835595,39.103232 28.8214889,39.1245552 C28.8411719,39.1147137 28.8690561,39.096671 28.8690561,39.096671 L29.491695,38.7604197 C29.5041609,38.7545148 29.5192512,38.7561551 29.5294208,38.7663246 L29.7390447,38.9834937 C29.7452777,38.9910389 29.7485582,39.0012084 29.7469179,39.011706 C29.7449496,39.0212195 29.7383886,39.0290927 29.7292032,39.0340134 L28.6023515,39.56283 C28.5902136,39.5697191 28.5761075,39.5667666 28.5669221,39.5575812 Z M29.4831657,40.3849233 C29.4752925,40.3849233 29.4667632,40.382627 29.4608583,40.376066 L29.2394246,40.1818604 C29.2269587,40.1693945 29.2259745,40.1503676 29.2371282,40.1369175 L30.0175592,39.254135 C30.023136,39.2482301 30.0306812,39.2433093 30.0395385,39.2433093 C30.0477398,39.2433093 30.055613,39.2456057 30.0618459,39.2505264 L30.2826236,39.4460442 C30.2960736,39.457526 30.2970578,39.4778651 30.285576,39.4913151 L29.504817,40.3740977 C29.4989121,40.3803306 29.491367,40.3832831 29.4831657,40.3849233 Z M30.4679718,41.1581372 C30.4578023,41.1715872 30.4374632,41.1742116 30.4240131,41.1624018 L30.1874891,40.9786938 C30.1812561,40.9741011 30.1766634,40.966884 30.1753512,40.9583547 L30.1753512,40.9550742 C30.1753512,40.9475291 30.1783037,40.940312 30.1825683,40.9350632 C30.1825683,40.9350632 30.7228667,40.2395972 30.7589522,40.1936702 C30.7163057,40.1602091 30.4440242,39.9486168 30.4440242,39.9486168 C30.4371351,39.9436961 30.4331985,39.936479 30.4322144,39.9282777 C30.4315583,39.9263094 30.4315583,39.9253253 30.4315583,39.923685 C30.4315583,39.917124 30.4345107,39.910235 30.4377912,39.9049862 L30.5667149,39.7409612 C30.5768844,39.7261989 30.5962394,39.7239026 30.6103455,39.7353843 L31.525605,40.4465967 C31.5390551,40.4574224 31.5420075,40.4767773 31.5305258,40.4908835 L31.4038985,40.6552365 C31.3989777,40.6611414 31.3911045,40.66475 31.3825752,40.6663902 C31.374374,40.6670463 31.3661727,40.66475 31.3589556,40.6604853 C31.3589556,40.6604853 31.0873302,40.448565 31.0446837,40.4160881 C31.0089263,40.4620151 30.4679718,41.1581372 30.4679718,41.1581372 Z M32.850927,41.3634965 L32.2109015,42.3532233 C32.2069649,42.3591282 32.1990917,42.3650331 32.1915465,42.3666734 C32.1833453,42.3676575 32.174816,42.3666734 32.1672708,42.3620807 L31.9199211,42.2023203 C31.9107357,42.1964154 31.905815,42.1855898 31.905815,42.1757483 C31.905815,42.1691873 31.9071272,42.1636104 31.9107357,42.1590177 C31.9107357,42.1590177 32.1502122,41.7893054 32.1797367,41.7437064 C32.13545,41.71451 31.8060878,41.5012775 31.761801,41.4730652 C31.7319485,41.5183361 31.4931281,41.8887045 31.4931281,41.8887045 C31.4836146,41.9018265 31.4649158,41.9077314 31.4494974,41.898218 L31.2024758,41.7371454 C31.1949306,41.734193 31.1896818,41.7266478 31.1880416,41.7177905 C31.1870574,41.7095892 31.1880416,41.7010599 31.1926343,41.6938428 L31.8333159,40.7051001 C31.8375806,40.697555 31.8447977,40.6932903 31.8526709,40.690994 C31.8615282,40.6886976 31.8697295,40.6900098 31.8762905,40.6952586 L32.1239682,40.8556751 C32.1328256,40.86158 32.1384024,40.8717495 32.1384024,40.8809349 C32.1384024,40.8871679 32.1367622,40.8934008 32.1328256,40.8996338 C32.1328256,40.8996338 31.9353395,41.2034081 31.905815,41.2493351 C31.9501017,41.2785315 32.279792,41.4907799 32.3237507,41.5203044 C32.3539313,41.4743774 32.5514174,41.1686348 32.5514174,41.1686348 C32.555682,41.1624018 32.5632272,41.1581372 32.5704443,41.1558408 C32.5796297,41.1538725 32.588159,41.1558408 32.59472,41.1604335 L32.8423977,41.3195378 C32.8565039,41.3293793 32.8604405,41.3484062 32.850927,41.3634965 Z M35.9641215,42.4575432 C35.848976,42.7537724 35.4077487,42.7698468 35.3752718,42.8531715 C35.3388582,42.9476499 35.783366,43.3849406 35.6029385,43.8474911 C35.5005869,44.1118994 35.2069821,44.2874061 34.6676679,44.0626919 L33.6782691,43.6516452 C33.5959286,43.6181841 33.4781586,43.6280256 33.8705064,42.6186158 C34.3875132,41.2906694 34.5390723,41.4097515 34.595825,41.4330431 L35.4474428,41.7873371 C36.0280913,42.0284538 36.0310437,42.285645 35.9641215,42.4575432 Z M37.8789494,44.011188 C37.7083634,44.6692563 37.1700333,44.8224557 36.7757172,44.7138711 C36.3833694,44.6052866 35.9906936,44.1925997 36.1612796,43.5358436 C36.2777373,43.0844468 36.6674607,42.6734001 37.2631995,42.8374251 C37.8589383,43.0017782 37.9967193,43.5604473 37.8789494,44.011188 Z M39.9272936,44.3116818 C39.7714698,45.3634101 39.6878171,45.3000965 39.4355466,45.2604024 C39.0678026,45.2026656 39.3715769,45.0865359 39.1721225,45.0553712 C39.1409577,45.0511065 39.0517281,45.0976896 38.9831657,45.1222934 C38.9155874,45.1442727 38.8293102,45.1649399 38.7141647,45.1482093 C38.4235124,45.1022823 38.1761627,44.9107011 38.296557,44.0915603 C38.3041022,44.0416967 38.4553332,43.1867984 38.6026277,43.2100899 L38.9251008,43.2602816 C38.9700437,43.2678267 39.0678026,43.2678267 39.0592733,43.3265477 C39.0527123,43.367882 38.8493213,43.63065 38.768621,44.1709484 C38.7453294,44.3320209 38.6774231,44.7660311 38.9782449,44.8135983 C39.0937185,44.8322972 39.3640317,44.8457472 39.4555577,44.2296693 C39.5067335,43.8852168 39.4489967,43.4246346 39.4562138,43.3787076 C39.4621187,43.341638 39.5415068,43.3570563 39.5802167,43.3629612 L39.9059703,43.413809 C40.0529367,43.4374286 39.9679718,44.0394003 39.9272936,44.3116818 Z M42.1219481,44.3198831 C42.0776613,45.4575605 41.9694048,45.395231 41.8499946,45.3899822 L41.5452362,45.3785004 C41.4996372,45.3762041 41.4202491,45.382437 41.4228735,45.3269966 C41.4248418,45.2984562 41.6190474,44.9205426 41.6416829,44.3330051 C41.6498841,44.1266616 41.6384024,43.8678302 41.3976137,43.8579887 C41.2637693,43.853724 40.9842707,43.9153974 40.9622913,44.4891569 C40.9485132,44.8365618 41.0354465,45.2859903 41.0338062,45.3210917 C41.0315099,45.3611138 40.9708206,45.355865 40.9360473,45.3552089 L40.6355535,45.3424149 C40.5040055,45.3381503 40.4488931,45.3853895 40.4780895,44.6203769 C40.5279531,43.3085049 40.6486755,43.3951101 40.9212851,43.4052797 C41.045616,43.4105285 41.1738836,43.4003589 41.1712592,43.4669531 C41.1696189,43.4961495 41.1368139,43.5299387 41.1351737,43.5696327 C41.1338615,43.5988292 41.1519042,43.6254012 41.1866775,43.6280256 C41.2467107,43.63065 41.4140162,43.5181289 41.6403707,43.5263301 C41.7397698,43.5299387 42.1501604,43.5571668 42.1219481,44.3198831 Z M43.4705616,45.3748919 C42.8830241,45.4165542 42.607134,44.9792636 42.5802339,44.5580474 C42.5471009,44.0600675 42.8203665,43.4738421 43.5161606,43.4262749 C43.8232154,43.4042955 44.0541626,43.5250179 44.0659724,43.6900271 C44.0712212,43.7756481 44.0039709,43.9488585 43.8740631,43.9587 C43.7920506,43.964933 43.7930348,43.7497322 43.505991,43.768431 C43.1425116,43.794675 43.0358954,44.1965363 43.0519698,44.4389652 C43.0696845,44.7210882 43.2465035,44.9435061 43.5830828,44.9205426 C43.9646049,44.8939706 44.0348076,44.6010219 44.0663004,44.5993817 C44.0846712,44.5977414 44.1230531,44.647605 44.1299421,44.765703 C44.1532337,45.1124519 43.8871851,45.3466796 43.4705616,45.3748919 Z M44.4081285,42.9535548 C44.3904138,42.8305361 44.5104801,42.7357296 44.6502294,42.7140783 C44.7906348,42.6940673 44.9300561,42.7485236 44.9484269,42.8718704 C44.9654855,42.9948891 44.8450911,43.0811663 44.7046857,43.1028176 C44.5652645,43.1228286 44.4248591,43.0769016 44.4081285,42.9535548 Z M45.1088433,45.1432886 L44.8710071,45.1800302 C44.6984528,45.204962 44.693204,45.2672915 44.5518144,44.2588658 C44.4143615,43.2773402 44.48358,43.3646015 44.5993817,43.3465587 L44.7929312,43.3173623 C44.9395695,43.2943988 44.9435061,43.3026 44.9497391,43.3367172 C44.9631891,43.4443176 44.935961,43.5561827 44.9792636,43.8678302 C45.0822713,44.5924926 45.2804135,45.0143649 45.2843501,45.0406089 C45.297144,45.133119 45.1898717,45.1321349 45.1088433,45.1432886 Z M47.2313268,44.6945162 L46.9334574,44.7660311 C46.8894987,44.7778409 46.8153594,44.8044129 46.8032216,44.7512688 C46.7966606,44.7224004 46.8888426,44.3038086 46.7579507,43.7313614 C46.7146481,43.5312509 46.6369002,43.2858695 46.4013603,43.3422941 C46.2714525,43.3741149 46.0175418,43.5115679 46.1444972,44.0689248 C46.2202767,44.4071444 46.4177628,44.817863 46.425636,44.8513241 C46.4338373,44.8906901 46.3744602,44.9021718 46.340343,44.9107011 L46.0464102,44.982216 C45.9187988,45.0130527 45.8784486,45.0734139 45.710159,44.3277563 C45.4227872,43.0503296 45.5622084,43.099209 45.8269448,43.0362234 C45.9486513,43.0063709 46.0690457,42.9620841 46.0838079,43.0273661 C46.0900409,43.0555784 46.0660932,43.0962566 46.0759347,43.1366067 C46.0811835,43.1641629 46.1051312,43.1858142 46.1392484,43.1772849 C46.1989535,43.1635068 46.3305015,43.0080111 46.5509511,42.954539 C46.6477259,42.9322316 47.0505713,42.8462825 47.2185329,43.5880035 C47.4675228,44.6961564 47.3484407,44.6663039 47.2313268,44.6945162 Z M49.7195861,44.1919436 C49.6572566,44.3874614 49.4617388,44.555423 49.2478502,44.6535099 C48.8030144,44.8546046 48.3299663,44.8270484 48.1374009,44.5065435 C48.0419384,44.3500637 48.0553884,44.2030973 48.0793361,44.0902481 C47.9333538,44.0810627 47.8113192,44.017421 47.7634239,43.8776717 C47.6538552,43.5594632 48.0245517,43.3869089 47.9983077,43.3111293 C47.9756723,43.2458474 47.6938773,43.2146826 47.593494,42.9200937 C47.4711314,42.5625192 47.6666492,42.245951 48.1144374,42.0815979 C48.2279427,42.0392795 48.3089711,42.0353429 48.328326,42.0277977 C48.4828376,41.9700609 48.4871022,41.6869538 48.6199625,41.6377463 C48.7105043,41.6036291 48.9598223,41.7305844 48.9762248,41.773887 C49.003781,41.8562276 48.6649053,41.8887045 48.7131287,42.029766 C48.741669,42.1124346 48.9312819,42.1039053 49.0319933,42.3981662 C49.1294241,42.6819294 49.0119822,43.0634516 48.5143304,43.2471596 C48.3302943,43.315394 48.1383851,43.4902446 48.1652852,43.5696327 C48.1780791,43.6067024 48.2144927,43.6263854 48.2574672,43.6280256 C48.334559,43.610639 48.4018092,43.505991 48.5533683,43.4266029 C49.0871057,43.1520251 49.5119304,43.3842845 49.673331,43.6660794 C49.7956937,43.8842327 49.7461581,44.1033701 49.7195861,44.1919436 Z M51.8004072,42.4411407 C51.7429985,42.5589107 51.6311334,42.6638867 51.464156,42.7557407 C51.2958663,42.8489069 51.1413548,42.8918814 51.0091506,42.882696 C50.8697294,42.8725265 50.7660656,42.8088848 50.7024239,42.692099 C50.6942226,42.6760245 50.6994714,42.6579818 50.7148898,42.6491244 L50.9632236,42.5113434 C50.9747054,42.5057666 50.9937323,42.5113434 51.0032457,42.5192166 L51.0934595,42.5881071 C51.1518524,42.6035255 51.2302563,42.5844986 51.3286713,42.5310264 L51.4661243,42.4342517 C51.5353428,42.364377 51.5222208,42.31845 51.5068025,42.2895816 C51.4979451,42.2748194 51.4821987,42.2557925 51.4365998,42.2577608 L51.2433783,42.3036878 L51.0947717,42.3555197 L50.7673778,42.4280187 C50.6453432,42.4273626 50.5515209,42.3692978 50.4905036,42.2577608 C50.434079,42.1567214 50.4327668,42.0468246 50.4849267,41.931023 C50.5361025,41.8185018 50.6459993,41.7154941 50.8106804,41.6242962 C50.9474772,41.5481886 51.083946,41.5127592 51.2158221,41.5183361 C51.3516348,41.5248971 51.4566108,41.5878827 51.5277977,41.7033563 C51.5320623,41.7105734 51.5337026,41.7197588 51.5314062,41.72796 C51.5291099,41.7361613 51.523205,41.7437064 51.5159879,41.747315 L51.267326,41.8847679 C51.2519076,41.8936253 51.234521,41.8887045 51.2246795,41.8749264 C51.1925306,41.826047 51.1459475,41.8050518 51.0803375,41.8125969 L50.9222174,41.8696776 L50.7857486,41.983511 C50.7637692,42.0182843 50.7608168,42.049121 50.7778754,42.0789735 C50.7860766,42.0963602 50.8047755,42.1176834 50.8546391,42.1124346 L51.0367068,42.0648674 L51.2811041,41.9864634 L51.5501051,41.9405364 C51.660986,41.9490657 51.7459509,42.0041781 51.8020475,42.1055456 C51.8594562,42.2082252 51.8591282,42.3220586 51.8004072,42.4411407 Z M53.2008527,41.5012775 C53.1601745,41.6429951 53.0502777,41.7758553 52.8757551,41.8936253 C52.7005764,42.010083 52.5365514,42.0615869 52.3912253,42.0442002 C52.1996441,42.0320624 52.0402118,41.9320071 51.9178491,41.7496113 C51.7915499,41.5626228 51.7607132,41.3772746 51.8233707,41.2004556 C51.864377,41.0561136 51.9729615,40.9242375 52.1491244,40.8071237 C52.323647,40.6900098 52.4873439,40.6394901 52.632342,40.6552365 C52.8219549,40.66475 52.9817153,40.7651333 53.1070304,40.9511376 C53.1893709,41.0741564 53.2310333,41.1991434 53.2310333,41.3224902 C53.2310333,41.3821953 53.2202076,41.4415724 53.2008527,41.5012775 Z M54.5789907,40.5830655 L53.7890463,41.2125935 C53.7749402,41.222763 53.7552572,41.2204667 53.7444315,41.2073447 L53.0105837,40.2858522 C52.999758,40.271418 53.0020544,40.2520631 53.0148483,40.2415655 L53.249076,40.054577 C53.2562931,40.048344 53.2648224,40.0463757 53.2726956,40.0473599 C53.2812249,40.048344 53.288442,40.0529367 53.2936908,40.0594977 C53.2936908,40.0594977 53.8408782,40.7470905 53.8772918,40.7930175 C53.9222346,40.7562759 54.4087328,40.3701611 54.4087328,40.3701611 C54.4221828,40.3596635 54.4418658,40.3616318 54.4526915,40.3754099 L54.5829273,40.5394349 C54.5885042,40.5456678 54.5921127,40.553541 54.5898164,40.5620703 C54.5891603,40.5709277 54.5858798,40.5781448 54.5789907,40.5830655 Z M55.6864875,39.5743118 L54.9034322,40.2999584 C54.8903102,40.3124243 54.8716113,40.3114401 54.8594735,40.2993023 L54.0577193,39.4358747 C54.0459095,39.4220966 54.0465656,39.4027416 54.0593595,39.3909318 L54.8174831,38.6872646 C54.8296209,38.6757828 54.8493039,38.6757828 54.8614418,38.6889048 L55.0047996,38.8424322 C55.0103765,38.8483371 55.0126728,38.8565384 55.0126728,38.8640835 C55.0126728,38.8640835 55.0126728,38.8653957 55.0123448,38.8653957 C55.0123448,38.873925 55.0090643,38.8811421 55.0028313,38.8877031 C55.0028313,38.8877031 54.5261747,39.3289304 54.4838562,39.3682964 C54.5114124,39.3994611 54.5825993,39.4749126 54.6104835,39.5057493 C54.65313,39.4667114 55.0832036,39.0655062 55.0832036,39.0655062 C55.0884524,39.0609135 55.0982939,39.057305 55.1064951,39.0586172 C55.1140403,39.0586172 55.1222415,39.0615696 55.1278184,39.0681306 L55.2649433,39.2170653 C55.2708482,39.2232983 55.2734726,39.2301873 55.2734726,39.2387166 C55.2734726,39.2465898 55.269864,39.254135 55.2636311,39.261024 C55.2636311,39.261024 54.8332295,39.661245 54.7912391,39.6996269 C54.8217477,39.7321038 54.9270518,39.8462652 54.9572324,39.8787422 C54.9998789,39.8400323 55.5011393,39.3742013 55.5011393,39.3742013 C55.5136052,39.3627195 55.5332882,39.3627195 55.545426,39.3758415 L55.6881278,39.530025 C55.6943607,39.5349458 55.696329,39.5447873 55.696329,39.5526605 C55.696001,39.5605337 55.6937046,39.5680788 55.6864875,39.5743118 Z M56.6463618,38.4304014 C56.6299593,38.5599812 56.5564761,38.6951378 56.4278805,38.8352151 C56.2969886,38.9779169 56.1657686,39.0668184 56.0365169,39.1009356 C55.9010322,39.1343967 55.7829342,39.1074966 55.6851753,39.0176109 C55.6792704,39.011706 55.6753338,39.0031767 55.6753338,38.9956316 C55.6743497,38.9871023 55.6769741,38.978573 55.6825509,38.9726681 L55.8754443,38.762388 C55.8839736,38.7535307 55.9039847,38.7535307 55.9151384,38.7581234 L56.0227388,38.7935528 C56.083428,38.7899442 56.1523185,38.7472977 56.22777,38.6649572 L56.3268411,38.5298006 C56.3707998,38.440899 56.3442278,38.4018611 56.319624,38.3795537 C56.3055179,38.3680719 56.2855068,38.355606 56.2425323,38.3710244 L56.0755548,38.4773126 L55.9495836,38.5714629 L55.6622118,38.7472977 C55.5460821,38.7843674 55.4397939,38.7604197 55.3456436,38.6728304 C55.2600225,38.5957386 55.223609,38.4920748 55.237059,38.3654475 C55.2495249,38.2414446 55.3203837,38.1092405 55.4476671,37.9717875 C55.5536273,37.8556578 55.6720533,37.7785661 55.7980245,37.7414964 C55.9292445,37.7054109 56.0489828,37.7296866 56.1533027,37.8182601 C56.1601917,37.8225248 56.1644564,37.8317102 56.1644564,37.8392553 C56.1654405,37.8484407 56.1615039,37.856642 56.1559271,37.8625469 L55.9630337,38.0728269 C55.9531922,38.0849648 55.9338372,38.086605 55.9213713,38.0757794 C55.8738041,38.0396939 55.8242685,38.0357573 55.7639073,38.0636415 L55.6313751,38.1669773 L55.538865,38.3178803 C55.525743,38.3723366 55.5457541,38.3979245 55.5608444,38.4126867 C55.5749505,38.4254807 55.5988982,38.4386027 55.6454813,38.4192477 L55.8032733,38.315912 L56.0089607,38.1636968 L56.2490933,38.0344451 C56.3573498,38.007873 56.4560928,38.0331329 56.5407297,38.1112088 C56.627663,38.191253 56.6640765,38.2991814 56.6463618,38.4304014 Z M37.1775785,43.1694117 C36.8387028,43.0749333 36.6612278,43.3619771 36.6044751,43.5830828 C36.5457542,43.8068129 36.5516591,44.1512654 36.8970957,44.2463999 C37.2431885,44.3415344 37.4144306,44.0469455 37.4731515,43.8232154 C37.5305603,43.6024377 37.5164541,43.2615938 37.1775785,43.1694117 Z M48.6754029,43.6972442 C48.4251008,43.8219032 48.34112,44.0384162 48.4444557,44.2234364 C48.5563208,44.4238749 48.8030144,44.4524153 49.0319933,44.3379258 C49.2586758,44.2234364 49.3731653,44.0128283 49.2616283,43.8127178 C49.1497632,43.610639 48.9017574,43.5830828 48.6754029,43.6972442 Z M48.3945921,42.8981144 C48.5746916,42.8315202 48.6832761,42.6747123 48.6225869,42.4998617 C48.5635379,42.3256671 48.3837665,42.2748194 48.203667,42.3414135 C48.0225834,42.4080077 47.9143269,42.5635034 47.9743601,42.7390101 C48.0301286,42.8994266 48.197106,42.9712695 48.3945921,42.8981144 L48.3945921,42.8981144 Z" id="Fill-45" fill="#003B45"></path>
            </g>
        </g>
    </g>
</svg>