<svg width="100" height="60" viewBox="0 0 100 60" fill="none" xmlns="http://www.w3.org/2000/svg">
<path fill-rule="evenodd" clip-rule="evenodd" d="M22.0135 37.1723L20.8701 40.6676H20.121L19.2479 37.7469L18.372 40.6676H17.6342L16.4795 37.1723H17.1272L18.0059 40.0987L18.879 37.1723H19.614L20.4871 40.0987L21.3658 37.1723H22.0135Z" fill="#201600"/>
<path fill-rule="evenodd" clip-rule="evenodd" d="M27.0011 38.9157C27.0011 39.4874 26.7674 39.9522 26.2971 40.307C25.8859 40.6169 25.3733 40.7718 24.7622 40.7718C24.151 40.7718 23.63 40.6169 23.216 40.3042C22.7457 39.9494 22.512 39.4874 22.512 38.9185C22.512 38.3496 22.7485 37.8989 23.2273 37.5384C23.6469 37.223 24.1567 37.0652 24.7622 37.0652C25.3677 37.0652 25.8803 37.223 26.2942 37.5384C26.7674 37.8989 27.0039 38.358 27.0039 38.9185L27.0011 38.9157ZM26.3984 38.9157C26.3984 38.5073 26.2238 38.175 25.8774 37.9215C25.5789 37.7018 25.2072 37.5919 24.7622 37.5919C24.275 37.5919 23.8807 37.7187 23.5737 37.9693C23.2695 38.2172 23.1146 38.5326 23.1146 38.9157C23.1146 39.2987 23.2639 39.6311 23.5624 39.8761C23.861 40.1183 24.2609 40.2395 24.7594 40.2395C25.2578 40.2395 25.6493 40.1183 25.9478 39.8733C26.2464 39.6283 26.3956 39.31 26.3956 38.9185L26.3984 38.9157Z" fill="#201600"/>
<path fill-rule="evenodd" clip-rule="evenodd" d="M31.9495 40.6676H31.2792L30.3329 39.3354H28.5643V40.6676H27.9841V37.1723H30.7413C31.1074 37.1723 31.3975 37.2709 31.6059 37.4709C31.8143 37.668 31.9185 37.9356 31.9185 38.2736C31.9185 38.5693 31.834 38.8087 31.6622 38.989C31.5045 39.1579 31.2876 39.2622 31.0088 39.3072L31.9467 40.6704L31.9495 40.6676ZM30.6568 38.8087C31.1046 38.8087 31.3271 38.6313 31.3271 38.2736C31.3271 37.8905 31.0849 37.699 30.6033 37.699H28.5643V38.8087H30.654H30.6568Z" fill="#201600"/>
<path fill-rule="evenodd" clip-rule="evenodd" d="M36.909 40.6676H36.1655L34.4841 38.8284L33.4337 39.6058V40.6676H32.8535V37.1723H33.4337V38.9833L35.881 37.1723H36.7147L34.9291 38.4932L36.909 40.6676Z" fill="#201600"/>
<path d="M39.5224 37.1723H38.9423V40.6676H39.5224V37.1723Z" fill="#201600"/>
<path fill-rule="evenodd" clip-rule="evenodd" d="M44.6143 40.6676H43.8989L41.2263 37.8004V40.6676H40.6461V37.1723H41.3643L44.0369 40.0395V37.1723H44.6143V40.6676Z" fill="#201600"/>
<path fill-rule="evenodd" clip-rule="evenodd" d="M50.0048 37.1723C50.3624 37.1723 50.6469 37.2709 50.8553 37.4709C51.0637 37.668 51.1679 37.9328 51.1679 38.2623C51.1679 38.6115 51.0581 38.8763 50.8384 39.0594C50.6243 39.2424 50.3061 39.3354 49.8921 39.3354H47.8109V40.6676H47.2307V37.1723H50.0019H50.0048ZM49.9006 38.8087C50.3483 38.8087 50.5708 38.6313 50.5708 38.2736C50.5708 37.8905 50.3343 37.699 49.8611 37.699H47.8081V38.8087H49.8977H49.9006Z" fill="#201600"/>
<path fill-rule="evenodd" clip-rule="evenodd" d="M55.7977 40.6676H55.1275L54.1812 39.3354H52.4154V40.6676H51.8352V37.1723H54.5924C54.9585 37.1723 55.2486 37.2709 55.457 37.4709C55.6654 37.668 55.7724 37.9356 55.7724 38.2736C55.7724 38.5693 55.6879 38.8087 55.5161 38.989C55.3584 39.1579 55.1415 39.2622 54.8627 39.3072L55.8005 40.6704L55.7977 40.6676ZM54.5022 38.8087C54.95 38.8087 55.1725 38.6313 55.1725 38.2736C55.1725 37.8905 54.9331 37.699 54.4487 37.699H52.4125V38.8087H54.5022Z" fill="#201600"/>
<path fill-rule="evenodd" clip-rule="evenodd" d="M61.005 38.9157C61.005 39.4874 60.7713 39.9522 60.301 40.307C59.8898 40.6169 59.3772 40.7718 58.7661 40.7718C58.155 40.7718 57.6339 40.6169 57.2199 40.3042C56.7496 39.9494 56.5159 39.4874 56.5159 38.9185C56.5159 38.3496 56.7553 37.8989 57.2312 37.5384C57.6508 37.223 58.1606 37.0652 58.7661 37.0652C59.3716 37.0652 59.8842 37.223 60.2982 37.5384C60.7713 37.8989 61.0079 38.358 61.0079 38.9185L61.005 38.9157ZM60.4024 38.9157C60.4024 38.5073 60.2277 38.175 59.8813 37.9215C59.5828 37.7018 59.2111 37.5919 58.7661 37.5919C58.2817 37.5919 57.8846 37.7187 57.5804 37.9693C57.2735 38.2172 57.1214 38.5326 57.1214 38.9157C57.1214 39.2987 57.2706 39.6311 57.5692 39.8761C57.8677 40.1183 58.2676 40.2395 58.7661 40.2395C59.2646 40.2395 59.6589 40.1183 59.9546 39.8733C60.2531 39.6283 60.4024 39.31 60.4024 38.9185V38.9157Z" fill="#201600"/>
<path fill-rule="evenodd" clip-rule="evenodd" d="M66.2801 38.8623C66.2801 39.4312 66.0745 39.8931 65.6662 40.2423C65.2606 40.5944 64.7227 40.769 64.0496 40.769C63.4357 40.769 62.9203 40.6141 62.5091 40.3015C62.0416 39.9466 61.8079 39.4847 61.8079 38.9158C61.8079 38.3468 62.0444 37.8962 62.5176 37.5357C62.9316 37.2202 63.4582 37.0625 64.0975 37.0625C64.8664 37.0625 65.4972 37.3442 65.9901 37.9075L65.4493 38.1778C65.086 37.7892 64.6185 37.592 64.0496 37.592C63.6047 37.592 63.2329 37.7018 62.9344 37.9215C62.588 38.175 62.4134 38.5074 62.4134 38.9158C62.4134 39.3242 62.5626 39.6283 62.8612 39.8706C63.1597 40.1156 63.5568 40.2367 64.0496 40.2367C64.8213 40.2367 65.3254 39.9353 65.5563 39.3326H63.9285V38.8059H66.2801V38.8594V38.8623Z" fill="#201600"/>
<path fill-rule="evenodd" clip-rule="evenodd" d="M71.2281 40.6676H70.5579L69.6116 39.3354H67.8458V40.6676H67.2656V37.1723H70.0228C70.3889 37.1723 70.679 37.2709 70.8874 37.4709C71.0958 37.668 71.2028 37.9356 71.2028 38.2736C71.2028 38.5693 71.1183 38.8087 70.9465 38.989C70.7888 39.1579 70.572 39.2622 70.296 39.3072L71.2338 40.6704L71.2281 40.6676ZM69.9355 38.8087C70.3833 38.8087 70.6057 38.6313 70.6057 38.2736C70.6057 37.8905 70.3635 37.699 69.882 37.699H67.8458V38.8087H69.9355Z" fill="#201600"/>
<path fill-rule="evenodd" clip-rule="evenodd" d="M75.7907 40.6676H72.1323V37.1723H75.6555V37.699H72.7097V38.5918H74.7571V39.1185H72.7097V40.1409H75.7907V40.6676Z" fill="#201600"/>
<path fill-rule="evenodd" clip-rule="evenodd" d="M79.5616 37.9919C79.0434 37.7272 78.5167 37.5948 77.9788 37.5948C77.6212 37.5948 77.348 37.6371 77.1565 37.7216C76.9678 37.8061 76.872 37.9215 76.872 38.0708C76.872 38.2201 76.9734 38.3384 77.1762 38.4088C77.3198 38.4595 77.5564 38.4961 77.8859 38.5158C78.3675 38.5468 78.6885 38.5721 78.8406 38.5919C79.2799 38.651 79.6038 38.758 79.8122 38.9158C80.0206 39.0735 80.1248 39.296 80.1248 39.5861C80.1248 39.9551 79.9615 40.2423 79.632 40.4451C79.3025 40.6479 78.8321 40.7493 78.2182 40.7493C77.3254 40.7493 76.6326 40.5522 76.137 40.1607L76.4552 39.741C77.0016 40.0762 77.5902 40.2423 78.221 40.2423C78.6294 40.2423 78.9476 40.186 79.1729 40.0733C79.3898 39.9635 79.4968 39.8142 79.4968 39.6227C79.4968 39.4002 79.3532 39.2537 79.0715 39.1777C78.9223 39.1383 78.5252 39.0988 77.8746 39.0566C77.2973 39.0172 76.8945 38.9411 76.6636 38.8256C76.3932 38.6904 76.2581 38.4623 76.2581 38.144C76.2581 37.8258 76.4101 37.5554 76.7171 37.3667C77.0269 37.178 77.4606 37.0822 78.0211 37.0822C78.773 37.0822 79.4039 37.254 79.9136 37.5976L79.5616 37.9891V37.9919Z" fill="#201600"/>
<path fill-rule="evenodd" clip-rule="evenodd" d="M83.9748 37.9919C83.4566 37.7272 82.9299 37.5948 82.392 37.5948C82.0343 37.5948 81.7612 37.6371 81.5725 37.7216C81.3838 37.8061 81.288 37.9215 81.288 38.0708C81.288 38.2201 81.3894 38.3384 81.5922 38.4088C81.7386 38.4595 81.9752 38.4961 82.3019 38.5158C82.7835 38.5468 83.1045 38.5721 83.2566 38.5919C83.6931 38.651 84.017 38.758 84.2282 38.9158C84.4366 39.0735 84.5408 39.296 84.5408 39.5861C84.5408 39.9551 84.3775 40.2423 84.048 40.4451C83.7213 40.6479 83.2482 40.7493 82.6342 40.7493C81.7415 40.7493 81.0486 40.5522 80.553 40.1607L80.8712 39.741C81.4204 40.0762 82.009 40.2423 82.6399 40.2423C83.0482 40.2423 83.3665 40.186 83.5918 40.0733C83.8058 39.9635 83.9156 39.8142 83.9156 39.6227C83.9156 39.4002 83.7748 39.2537 83.4904 39.1777C83.3411 39.1383 82.944 39.0988 82.2934 39.0566C81.7161 39.0172 81.3134 38.9411 81.0824 38.8256C80.8121 38.6904 80.6769 38.4623 80.6769 38.144C80.6769 37.8258 80.829 37.5554 81.136 37.3667C81.4457 37.178 81.8795 37.0822 82.4399 37.0822C83.1918 37.0822 83.8255 37.254 84.3324 37.5976L83.9804 37.9891L83.9748 37.9919Z" fill="#201600"/>
<path fill-rule="evenodd" clip-rule="evenodd" d="M96.4455 31.2914H96.7355C96.8735 31.2914 96.9693 31.3421 96.9693 31.4604C96.9693 31.5956 96.8679 31.652 96.6708 31.652H96.4455V31.2914ZM96.2455 32.3899H96.4455V31.835H96.6004L96.9665 32.3899H97.2087L96.8426 31.8294C97.02 31.8097 97.1692 31.7111 97.1692 31.4717C97.1692 31.2323 97.0256 31.1112 96.7299 31.1112H96.2455V32.3899ZM97.5382 31.7505C97.5382 32.2434 97.1439 32.6462 96.6595 32.6462C96.1751 32.6462 95.7808 32.2434 95.7808 31.7505C95.7808 31.2576 96.1751 30.8549 96.6595 30.8549C97.1439 30.8549 97.5382 31.2576 97.5382 31.7505ZM95.564 31.7505C95.564 32.3561 96.054 32.8462 96.6595 32.8462C97.265 32.8462 97.755 32.3561 97.755 31.7505C97.755 31.145 97.2622 30.6549 96.6595 30.6549C96.0568 30.6549 95.564 31.145 95.564 31.7505Z" fill="#201600"/>
<path d="M12.7142 32.8348H6.57184C6.57184 32.9137 2.98389 32.5222 2.98389 27.5032C2.98389 22.4842 6.56339 22.6391 6.56339 22.6391L12.6804 22.6081C12.6804 22.6081 13.4126 22.6503 13.4126 23.6361C13.4126 24.7627 12.6776 24.7627 12.6776 24.7627H7.0478C7.0478 24.7627 5.3552 24.6641 5.37492 27.2356C5.389 28.8185 5.37492 28.044 5.37492 28.044C5.37492 28.044 5.57769 30.545 7.18861 30.6521H12.7142C12.7142 30.6521 13.4126 30.6746 13.4126 31.7646C13.4126 32.8546 12.7142 32.8348 12.7142 32.8348Z" fill="#201600"/>
<path d="M16.6936 24.7402H24.5398C25.1115 24.7515 24.9763 25.2556 24.9763 25.2556V29.9789C24.9763 30.6887 24.0948 30.6746 24.0948 30.6746H18.2763C16.9893 30.6746 16.9724 29.4888 16.9724 29.4888C16.9724 28.1904 18.2763 28.3003 18.2763 28.3003H23.6611C23.6611 28.3003 24.3229 28.3003 24.3229 27.2553C24.3229 26.1513 23.6611 26.1315 23.6611 26.1315C23.6611 26.1315 19.3691 26.1231 17.1132 26.1344C14.0857 26.1513 14.0829 29.4438 14.0829 29.4438C14.0829 32.7898 17.0851 32.8433 17.0851 32.8433C17.0851 32.8433 25.0129 32.8348 26.376 32.832C27.6799 32.832 27.6011 31.5477 27.6011 31.5477V24.4276C27.6011 22.5208 25.9479 22.6391 25.9479 22.6391H16.6739C16.6739 22.6391 15.8656 22.6588 15.86 23.6896C15.8515 24.7655 16.6936 24.7374 16.6936 24.7374V24.7402Z" fill="#201600"/>
<path d="M29.4626 23.4841C29.4626 23.4841 29.5387 22.6025 30.7441 22.6025C31.9494 22.6025 32.0283 23.4447 32.0283 23.4447V31.7844C32.0283 31.7844 32.0227 32.7955 30.7835 32.7955C29.5443 32.7955 29.4626 31.7844 29.4626 31.7844V23.4841Z" fill="#201600"/>
<path d="M32.631 23.1546C32.631 23.087 32.6789 23.0701 32.6789 23.0701C32.6789 23.0701 33.78 22.6025 35.6078 22.6025C37.4356 22.6025 39.6154 23.1856 39.6548 25.988C39.6548 25.988 39.5844 27.4469 39.1845 27.9708C39.1845 27.9708 39.162 28.0356 39.1169 28.0271C38.9423 28.0018 37.6046 27.5821 37.0835 27.3286C37.0216 27.2977 37.0469 27.2526 37.0469 27.2301C37.0469 27.2301 37.5905 25.9457 36.8526 25.0135C36.1429 24.1178 33.6251 24.3234 33.1041 24.622C33.1041 24.622 33.045 24.6473 33.0112 24.5741C32.9464 24.4136 32.6366 23.3574 32.6282 23.1518L32.631 23.1546Z" fill="#201600"/>
<path d="M41.3108 21.1999C41.3108 21.1999 41.3249 20.3324 42.6373 20.3324C43.9018 20.3324 43.9328 21.1999 43.9328 21.1999V31.9195C43.9328 31.9195 43.9131 32.8349 42.6373 32.8349C41.3615 32.8349 41.308 31.9421 41.308 31.9421V21.2027L41.3108 21.1999Z" fill="#201600"/>
<path d="M44.3581 23.3292C44.3581 23.3292 44.344 23.2954 44.5215 23.1856C44.5215 23.1856 45.0847 22.7603 47.5574 22.6617C50.0667 22.6617 52.4944 23.5066 52.4944 27.416C52.4944 27.416 52.3085 30.2888 51.3848 32.4688C51.3848 32.4688 51.3228 32.7786 50.9539 32.7786H48.8557C48.8557 32.7786 48.3403 32.88 48.5459 32.4293C48.7515 31.9759 49.9034 29.2692 49.9034 27.7455C49.9034 26.2218 49.4922 24.5966 46.5689 24.5966C46.5689 24.5966 45.5776 24.5966 44.8819 24.9459C44.8819 24.9459 44.575 25.1092 44.5102 24.8417C44.4482 24.5741 44.2933 23.701 44.3553 23.3292H44.3581Z" fill="#201600"/>
<path d="M82.1357 21.3266C82.1357 21.3266 82.1414 20.3408 83.2763 20.3324C84.3888 20.3239 84.4282 21.3266 84.4282 21.3266V22.6363H87.3909C87.3909 22.6363 88.0668 22.6504 88.0668 23.6925C88.0668 24.7346 87.4106 24.7374 87.4106 24.7374H84.4282V31.7984C84.4282 31.7984 84.3888 32.8377 83.2763 32.8377C82.1385 32.8377 82.1245 31.7984 82.1245 31.7984V24.7487H80.8459C80.8459 24.7487 80.2009 24.7346 80.2009 23.6925C80.2009 22.6504 80.829 22.6109 80.829 22.6109L82.1357 22.6363V21.3266Z" fill="#201600"/>
<path d="M91.5986 21.3266C91.5986 21.3266 91.6042 20.3408 92.7392 20.3324C93.8516 20.3239 93.8911 21.3266 93.8911 21.3266V22.6222H97.1439C97.1439 22.6222 98.0338 22.6053 98.0338 23.6784C98.0338 24.7515 97.1636 24.7402 97.1636 24.7402H93.8911V31.7984C93.8911 31.7984 93.8516 32.8377 92.7392 32.8377C91.6014 32.8377 91.5873 31.7984 91.5873 31.7984V24.7487H90.3088C90.3088 24.7487 89.6638 24.7346 89.6638 23.67C89.6638 22.6053 90.2919 22.6109 90.2919 22.6109L91.5986 22.6363V21.3266Z" fill="#201600"/>
<path d="M68.781 23.4841C68.781 23.4841 68.8599 22.6025 70.0652 22.6025C71.2706 22.6025 71.3495 23.4447 71.3495 23.4447V31.7844C71.3495 31.7844 71.3438 32.7955 70.1018 32.7955C68.8599 32.7955 68.781 31.7844 68.781 31.7844V23.4841Z" fill="#201600"/>
<path d="M71.9492 23.1546C71.9492 23.087 71.9971 23.0701 71.9971 23.0701C71.9971 23.0701 73.0983 22.6025 74.9289 22.6025C76.7594 22.6025 78.9336 23.1856 78.9731 25.988C78.9731 25.988 78.9026 27.4469 78.5027 27.9708C78.5027 27.9708 78.4802 28.0356 78.4351 28.0271C78.2577 28.0018 76.9228 27.5821 76.4018 27.3286C76.3398 27.2977 76.368 27.2526 76.368 27.2301C76.368 27.2301 76.9115 25.9457 76.1737 25.0135C75.464 24.1178 72.9462 24.3234 72.4252 24.622C72.4252 24.622 72.366 24.6473 72.3322 24.5741C72.2675 24.4136 71.9577 23.3574 71.952 23.1518L71.9492 23.1546Z" fill="#201600"/>
<path d="M55.9893 24.7402H63.8354C64.4072 24.7515 64.272 25.2557 64.272 25.2557V29.979C64.272 30.6887 63.3905 30.6746 63.3905 30.6746H57.572C56.285 30.6746 56.2681 29.4889 56.2681 29.4889C56.2681 28.1905 57.572 28.3003 57.572 28.3003H62.9568C62.9568 28.3003 63.6186 28.3003 63.6186 27.2554C63.6186 26.1513 62.9568 26.1316 62.9568 26.1316C62.9568 26.1316 58.6619 26.1232 56.4061 26.1344C53.3786 26.1513 53.3757 29.4438 53.3757 29.4438C53.3757 32.7476 56.3807 32.8377 56.3807 32.8377C56.3807 32.8377 64.3058 32.8349 65.666 32.8349C66.9728 32.8349 66.8911 31.5506 66.8911 31.5506V24.4304C66.8911 22.5237 65.238 22.6419 65.238 22.6419H55.9639C55.9639 22.6419 55.1556 22.6617 55.15 23.6925C55.1444 24.7684 55.9864 24.7402 55.9864 24.7402H55.9893Z" fill="#201600"/>
</svg>
