<svg width="100" height="60" viewBox="0 0 100 60" fill="none" xmlns="http://www.w3.org/2000/svg">
<g clip-path="url(#clip0_945_9714)">
<path d="M96.2658 31.994C96.1206 31.994 95.9791 32.0365 95.8583 32.116C95.738 32.1957 95.644 32.3088 95.5886 32.4412C95.5331 32.5736 95.5185 32.7192 95.5467 32.8597C95.5754 33.0003 95.645 33.1293 95.7474 33.2306C95.8499 33.332 95.9805 33.401 96.1229 33.4289C96.2649 33.4569 96.4125 33.4425 96.5464 33.3877C96.6804 33.3329 96.7946 33.24 96.8754 33.1209C96.9558 33.0018 96.9986 32.8617 96.9986 32.7184C96.9981 32.5265 96.9205 32.3428 96.7833 32.2071C96.6461 32.0714 96.4599 31.9948 96.2658 31.994ZM96.2658 33.2756C96.1544 33.2756 96.0454 33.243 95.9523 33.1817C95.8597 33.1205 95.7874 33.0335 95.7451 32.9317C95.7023 32.8298 95.691 32.7178 95.7126 32.6097C95.7347 32.5016 95.7883 32.4023 95.8673 32.3243C95.9458 32.2464 96.0463 32.1933 96.1559 32.1718C96.2654 32.1503 96.3786 32.1614 96.4816 32.2036C96.5845 32.2457 96.6728 32.3172 96.7344 32.4088C96.7965 32.5004 96.8298 32.6082 96.8298 32.7184C96.8298 32.8662 96.7701 33.0079 96.6644 33.1125C96.5586 33.2169 96.4153 33.2756 96.2658 33.2756Z" fill="black"/>
<path d="M96.6161 32.61C96.6176 32.5587 96.6025 32.5082 96.5729 32.4658C96.5447 32.4253 96.5057 32.3934 96.4601 32.374C96.4037 32.3506 96.3426 32.3394 96.281 32.3413H95.9492V33.0853H96.1288V32.8789H96.2909L96.4239 33.0853H96.6129L96.4568 32.8461C96.5048 32.8289 96.5456 32.7966 96.5729 32.7543C96.602 32.7118 96.6171 32.6614 96.6161 32.61ZM96.3938 32.7051C96.3581 32.73 96.3149 32.7416 96.2712 32.7379H96.1288V32.4822H96.2712C96.3149 32.4785 96.3581 32.4901 96.3938 32.515C96.4065 32.5275 96.4164 32.5423 96.4234 32.5586C96.43 32.5749 96.4338 32.5924 96.4338 32.61C96.4338 32.6277 96.43 32.6452 96.4234 32.6615C96.4164 32.6778 96.4065 32.6926 96.3938 32.7051Z" fill="black"/>
<path d="M12.5053 31.2897C12.5039 31.281 12.5039 31.2722 12.5053 31.2635C12.4563 30.9515 12.2949 30.6675 12.051 30.4637C11.5933 30.0539 10.595 29.8343 10.4159 29.8081L9.70281 29.6737C8.99306 29.5327 8.59841 29.4836 7.51056 29.3033L6.62503 29.1492C6.53116 29.1339 6.43898 29.1097 6.34975 29.0771C6.31957 29.0643 6.29364 29.0433 6.27488 29.0167C6.25612 28.99 6.24529 28.9587 6.24362 28.9263C6.24201 28.894 6.2512 28.862 6.26979 28.8354C6.28836 28.8087 6.3153 28.7888 6.34644 28.7788C6.41112 28.7522 6.4792 28.7346 6.54875 28.7263L6.75438 28.7034C7.42552 28.6364 8.10119 28.6254 8.77419 28.6706C9.8855 28.7433 10.9924 28.8713 12.0908 29.0541H12.1239V27.3561H12.0974C10.7006 27.1374 9.28954 27.0191 7.8754 27.0021C6.9942 26.9862 6.11377 27.062 5.24864 27.2283C4.66493 27.3397 3.02322 27.7462 3 29.0279V29.1099C3.00871 29.2903 3.05503 29.467 3.13607 29.6289C3.21712 29.7908 3.33113 29.9344 3.47095 30.0506C3.90543 30.4243 4.88051 30.6014 5.05629 30.644C6.13749 30.8931 7.45418 31.0799 8.27335 31.2078H8.3165L8.47235 31.234C8.68827 31.2661 8.90202 31.3109 9.11249 31.3684C9.14375 31.3791 9.17096 31.3989 9.19051 31.4253C9.21006 31.4516 9.22101 31.4832 9.22191 31.5159C9.22073 31.5506 9.2095 31.5842 9.18948 31.6126C9.16946 31.6411 9.14158 31.6633 9.10915 31.6765C9.0419 31.7075 8.97036 31.7285 8.8969 31.7388C8.83124 31.7522 8.76479 31.7609 8.6979 31.7651C8.06185 31.8253 7.422 31.8362 6.78423 31.7978H6.73116H6.6383C5.02312 31.706 3.28854 31.4176 3.27196 31.4143H3.23879V33.1549H3.26201C4.68885 33.3742 6.1297 33.4925 7.57357 33.509C8.48194 33.5305 9.39036 33.4669 10.2866 33.3188C10.8802 33.2074 12.5385 32.7452 12.5385 31.4635C12.5419 31.4122 12.5419 31.3607 12.5385 31.3094L12.5053 31.2897Z" fill="black"/>
<path d="M32.6548 33.4433H40.8932V31.919H35.7227V30.9586H40.8932V29.5359H35.7227V28.5754H40.8932V27.0512H32.6548V33.4433Z" fill="black"/>
<path d="M41.8374 33.4433H50.0758V31.919H44.9052V30.9586H50.0758V29.5359H44.9052V28.5754H50.0758V27.0512H41.8374V33.4433Z" fill="black"/>
<path d="M70.3965 33.4433H78.6314V31.919H73.4609V30.9586H78.6314V29.5359H73.4609V28.5754H78.6314V27.0512H70.3965V33.4433Z" fill="black"/>
<path d="M12.9731 28.6836H15.9017V33.4433H18.9695V28.6836H21.8948V27.0512H12.9731V28.6836Z" fill="black"/>
<path d="M88.0781 27.0512V28.6836H91.0067V33.4433H94.0744V28.6836H96.9997V27.0512H88.0781Z" fill="black"/>
<path d="M50.8804 28.6836H53.8089V33.4433H56.8733V28.6836H59.8019V27.0512H50.8804V28.6836Z" fill="black"/>
<path d="M82.446 27.0512L79.1626 33.4433H82.2933L82.6979 32.5877H85.8587L86.2634 33.4433H89.394L86.0942 27.0512H82.446ZM83.3776 31.011L84.28 29.0081L85.1819 31.011H83.3776Z" fill="black"/>
<path d="M31.8208 29.2507C31.8208 27.9395 30.4709 27.0512 28.2422 27.0512H22.7466V33.4433H25.8144V31.5978H26.9222L28.4345 33.4433H31.9004L29.9767 31.2306C31.0082 31.034 31.8208 30.4046 31.8208 29.2507ZM27.5623 30.1686H25.8177V28.6836H27.5656C28.2753 28.6836 28.7131 28.9918 28.7131 29.4277C28.7131 29.8637 28.2753 30.1686 27.5623 30.1686Z" fill="black"/>
<path d="M68.7707 30.1356C68.9892 30.0432 69.1739 29.8875 69.3013 29.6892C69.4287 29.4909 69.4921 29.2591 69.4837 29.0244C69.4837 27.7689 68.4421 27.0576 66.2534 27.0576H60.6152V33.4497H66.658C68.9164 33.4497 69.7525 32.7941 69.7323 31.5616C69.721 31.2593 69.6247 30.9661 69.455 30.7145C69.2853 30.4628 69.0484 30.2625 68.7707 30.1356ZM63.6763 28.6736H65.9352C66.0104 28.6576 66.0884 28.6584 66.1636 28.6761C66.2388 28.6937 66.3088 28.7277 66.369 28.7757C66.4291 28.8236 66.4775 28.8842 66.5109 28.9531C66.5443 29.0219 66.5612 29.0972 66.5612 29.1735C66.5612 29.2498 66.5443 29.3252 66.5109 29.394C66.4775 29.4629 66.4291 29.5235 66.369 29.5714C66.3088 29.6193 66.2388 29.6534 66.1636 29.671C66.0884 29.6887 66.0104 29.6895 65.9352 29.6734H63.6763V28.6736ZM66.0677 31.8009H63.6763V30.7486H66.0677C66.1453 30.7365 66.2247 30.7412 66.3004 30.7623C66.376 30.7835 66.4461 30.8205 66.5057 30.871C66.5654 30.9215 66.6134 30.9841 66.6463 31.0547C66.6792 31.1252 66.6961 31.202 66.6961 31.2797C66.6961 31.3573 66.6792 31.4341 66.6463 31.5046C66.6134 31.5752 66.5654 31.6378 66.5057 31.6883C66.4461 31.7388 66.376 31.7759 66.3004 31.797C66.2247 31.8181 66.1453 31.8228 66.0677 31.8107V31.8009Z" fill="black"/>
</g>
<defs>
<clipPath id="clip0_945_9714">
<rect width="94" height="6.54991" fill="white" transform="translate(3 27)"/>
</clipPath>
</defs>
</svg>
