<svg width="100" height="60" viewBox="0 0 100 60" fill="none" xmlns="http://www.w3.org/2000/svg">
<path d="M86 16.6318C86 16.4946 85.5359 16.1858 85.3574 16.0142C85.1076 16.1171 84.9469 16.3402 84.7327 16.4431C84.6435 16.3402 84.6256 16.2372 84.5007 16.1686C84.3757 16.2201 84.3044 16.2715 84.1616 16.2715C84.0188 16.2715 83.9295 16.2201 83.8581 16.2201C83.876 16.4088 83.8581 16.4259 83.7153 16.4259C83.5726 16.4259 83.6261 16.323 83.4833 16.323H82.7694C82.6266 16.323 82.3588 16.3745 82.1982 16.4431C82.0733 16.5289 82.1625 16.7004 81.9662 16.7004C81.8234 16.7004 81.7341 16.5975 81.5913 16.5975C81.4485 16.5975 81.3771 16.8205 81.2701 16.9063C81.2165 16.9235 81.0916 16.872 81.038 16.9406C81.038 17.3352 80.806 17.6612 80.806 17.867C80.806 18.0043 80.9666 18.2788 80.9666 18.416C80.9666 18.5533 80.806 18.6734 80.6989 18.7935C80.8952 19.4282 80.1991 20.2003 80.0385 20.8007C80.0028 20.9037 79.7707 21.0066 79.7707 21.1267C79.7707 21.2639 79.86 21.3497 79.8064 21.4355C79.6101 21.8987 79.6101 22.3276 79.1996 22.7222C78.9854 22.9281 78.5927 23.2369 78.5927 23.3741C78.5927 23.5114 78.6998 23.6143 78.6998 23.7516C78.6998 23.8888 78.6463 24.2662 78.5749 24.5236C78.4321 24.6265 78.1465 24.7295 78.1465 24.8667C78.1465 25.004 78.2536 25.0383 78.2536 25.1584C78.2536 25.2956 78.1643 25.3299 78.0573 25.3814C78.0216 25.3299 77.9145 25.2441 77.8966 25.1584C77.7181 25.5015 77.8074 26.0676 77.379 26.5137C77.3433 26.4622 77.2898 26.4622 77.2898 26.4622C76.9863 26.2564 77.0934 25.8103 77.0042 25.6044C76.9685 25.5186 76.79 25.3814 76.6829 25.2956C76.79 25.1584 77.022 24.9182 77.022 24.7809C77.022 24.6437 76.8435 23.803 76.8435 23.6658C76.8435 23.3055 77.1827 22.8595 77.1827 22.585C77.1827 22.4477 76.7721 22.2933 76.665 22.2075C77.0577 22.0016 77.2362 21.6071 77.2362 21.2468C77.2362 20.7321 76.8435 20.8865 76.8435 20.0802C76.8435 19.9429 76.9506 19.8057 76.9506 19.6856C76.8971 19.617 76.8257 19.617 76.79 19.5826C76.7721 19.4282 76.7186 19.1881 76.7186 19.0508C76.7186 18.9136 77.2184 18.2102 77.2184 18.0729V16.7519C77.2184 16.4774 76.7186 15.774 76.4687 15.6539C76.2724 15.551 76.0046 15.5853 75.7904 15.5681C75.6834 15.4824 75.612 15.3623 75.5406 15.3623C75.3085 15.4652 75.0051 15.7912 74.8623 15.7912C74.7195 15.7912 74.4696 15.6882 74.3268 15.6882C74.1841 15.6882 73.6664 16.0657 73.363 16.1858C73.363 16.3058 73.363 16.4088 73.3452 16.4602C73.3095 16.5117 73.2024 16.6147 73.1488 16.6833C73.0774 16.9063 73.0417 17.1293 72.9525 17.2837C72.7204 17.6783 72.3992 18.0386 72.2028 18.2788C72.0957 18.3989 72.0779 18.9993 71.6852 19.0337C71.7566 19.1194 71.8102 19.1709 71.8459 19.2052C71.2568 19.5312 71.0427 20.2003 70.6678 20.6978H69.6683C69.5255 20.6978 68.6688 20.3718 68.526 20.3718C68.3832 20.3718 68.169 20.5949 68.0262 20.6463C67.2765 20.0802 66.1699 20.4233 65.5095 19.9601C65.6166 19.7542 65.6166 19.4797 65.6701 19.2738C65.9557 19.2738 66.2056 19.068 66.3305 18.9307C66.8839 18.2959 67.7585 17.8499 67.6692 17.095C67.7585 16.9921 67.9191 17.0092 68.0262 16.9406C68.0797 16.5803 68.526 16.3916 68.7758 16.2544C68.8651 16.2029 69.0257 16.2544 69.115 16.1686C69.5255 15.774 69.9896 15.3966 70.3465 15.0534C70.5429 14.8476 70.525 14.6417 70.8285 14.453C70.7749 14.1613 70.5786 13.8354 70.2216 13.7667C70.0967 13.8868 70.0788 13.9898 69.9539 13.9898C69.8111 13.9898 69.6683 13.8354 69.5255 13.8354C69.3827 13.8354 69.3292 13.9383 69.1864 13.9383C69.0436 13.9383 68.8829 13.7324 68.7045 13.6123C68.526 13.7839 68.2939 13.8354 68.1333 13.904C67.9548 14.4015 67.3479 14.2814 66.9553 14.4358C66.4912 14.3157 66.1699 14.7961 65.9022 15.1907C65.6166 15.5853 65.2061 15.8769 64.8491 16.1343C64.6528 16.2887 64.3672 16.3058 64.1887 16.4946C64.0459 16.6318 63.921 16.8891 63.7782 17.0092C63.5818 17.1636 63.2427 17.198 63.0464 17.318C62.7429 17.4725 62.4217 17.8156 62.2075 18.0901C62.029 18.2959 61.8326 19.1023 61.3686 18.8964C61.2793 19.068 61.1187 19.1023 60.9937 19.2224C61.1722 19.6513 60.3512 20.0116 59.9942 19.8743C59.8157 20.0287 59.6372 20.1316 59.4766 20.2689C59.2089 20.7836 59.0839 21.2125 58.5127 21.2983C58.4414 21.4527 58.2807 21.6928 58.2807 21.8129C58.2807 21.9502 58.6198 22.4649 58.7626 22.4649C58.9054 22.4649 58.9947 22.3619 59.548 22.4134C59.7622 22.4306 60.0299 22.3962 60.137 22.6536C59.8871 23.0139 59.5658 23.4428 59.1553 23.4428C59.0125 23.4428 58.1379 23.1511 57.6917 23.0996C57.424 23.0653 57.1205 23.1511 56.8528 23.0996C56.5137 23.0482 56.121 22.9967 55.7819 22.9452C55.3178 22.8423 54.8716 22.6879 54.4254 22.6193C54.3718 22.585 54.3361 22.5506 54.3361 22.5163C54.5503 22.3619 54.818 22.2075 54.9965 21.9845C55.1036 21.8472 55.1572 21.6928 55.3 21.5728C55.3892 21.487 55.5855 21.5041 55.6748 21.4355C55.9068 21.0752 56.6565 20.6463 57.0313 20.2346C57.299 19.9429 57.5132 19.1709 58.0844 19.1709C58.2272 19.1709 58.5484 18.9822 58.4235 18.8621C58.5306 18.7248 58.6734 18.5361 58.8697 18.416C59.0482 18.2959 59.5123 18.3474 59.5123 18.0901C59.5123 17.9528 59.2803 17.7126 59.1553 17.5582C58.9768 17.4896 58.7983 17.4896 58.7091 17.4725C58.5127 17.198 57.4954 16.9921 57.3883 16.9921C57.2455 16.9921 56.7457 17.644 56.6029 17.644C56.4601 17.644 56.353 17.4725 56.2102 17.4725C55.8711 17.4725 55.6212 18.0386 55.1929 18.0901C54.8359 18.6219 54.4968 19.1194 54.1041 19.5826C54.0505 19.5998 53.997 19.5998 53.9434 19.617C53.4794 20.0973 52.8368 20.5091 52.5512 20.9723C52.4977 21.0581 52.2835 21.1438 52.2835 21.2811C52.2835 21.5899 51.8908 21.5384 51.6231 21.7786C51.5874 21.8129 50.338 23.2884 49.9453 23.2884C49.8025 23.2884 49.8025 23.2369 49.749 23.2026C49.749 23.0482 49.6954 22.8251 49.6954 22.7051C49.6954 22.5678 49.9274 22.1046 49.9274 21.9673C49.9274 21.8301 49.6419 21.0238 49.6419 20.8865C49.6419 20.7493 49.9274 20.4061 50.0345 20.2346C49.9096 20.1145 49.856 20.063 49.8203 20.0115C49.6954 19.5312 49.5883 18.7248 49.5883 18.5876C49.5883 18.5704 49.9274 17.97 49.9274 17.9014C49.9274 17.4038 49.6954 17.3524 49.267 16.8548C49.1599 16.8377 49.0528 16.8548 49.0172 16.8205C48.8922 16.7004 48.7137 16.5632 48.5709 16.5632C48.4281 16.5632 48.3924 16.7176 48.3032 16.7691C47.9105 16.9921 47.2501 17.2151 46.8931 17.3524C46.7682 17.5582 46.679 17.7984 46.5362 17.9357C46.3934 18.0729 46.1613 18.0901 46.0899 18.2102C45.9471 18.4675 45.8222 18.7592 45.6616 19.0165C45.5545 19.2052 45.3403 19.2052 45.3403 19.4111C45.3403 19.5483 45.4117 19.7371 45.3224 19.8228C45.0904 20.0459 44.8227 20.3547 44.5728 20.6978C44.4478 20.8522 44.6263 21.4355 44.1801 21.4527C44.1087 22.1904 43.3591 22.705 43.3591 22.8251C43.3591 22.9624 43.4126 23.031 43.3412 23.134C43.252 23.1854 43.127 23.2369 43.0378 23.3055C42.8414 23.4771 42.6987 23.8717 42.5559 23.8888L42.4488 23.803C42.5023 23.5457 42.6451 23.2712 42.7165 23.0653C42.77 22.8595 42.663 22.3791 42.9128 22.2418C42.8236 22.2247 42.8057 22.2418 42.8057 22.1046C42.8057 22.0874 43.1449 21.2983 43.1449 21.161C43.1449 21.0238 42.9128 20.4748 42.9128 20.3547C42.9128 20.1831 42.895 20.063 43.2163 20.0802C43.3055 19.9258 43.4483 19.7199 43.5197 19.5483C43.6803 19.068 43.8767 18.2445 43.8767 18.1072C43.8767 17.97 43.7696 18.0558 43.7696 17.9185C43.7696 17.7813 44.0552 17.2837 44.0552 17.1465V16.3402C44.0552 16.2029 44.5014 15.1049 44.5014 14.9677C44.5014 14.8304 44.0016 14.4701 43.6982 14.2986C43.6089 14.2471 43.4305 14.23 43.2877 14.23C43.1449 14.23 43.127 14.4187 43.0021 14.4873C42.895 14.5388 42.7165 14.5216 42.6094 14.5731C42.4488 14.676 42.306 14.8819 42.1632 14.8819C42.0204 14.8819 42.0561 14.779 41.9133 14.779C41.7705 14.779 41.5385 15.0534 41.3778 15.1221C41.3064 15.2765 41.2529 15.4309 41.1458 15.5167C41.0923 15.5338 40.9852 15.5338 40.9138 15.551C40.4497 15.9456 40.1641 16.546 39.9678 17.2323C39.9321 17.2837 39.8964 17.2666 39.8607 17.2666L39.6822 17.095C39.3788 17.4381 39.1289 17.7469 38.9325 18.0386C38.8433 18.193 38.8433 18.3817 38.7362 18.519C38.5756 18.7077 38.2543 18.8792 38.0936 19.1194C37.9152 19.4111 37.8616 19.7542 37.6653 20.0459C37.576 20.2003 37.3618 20.2003 37.2547 20.2517C37.1834 20.3718 37.1834 20.5262 37.1298 20.6463C37.0049 20.8007 36.8442 20.8522 36.7371 20.9037C36.5229 21.2811 36.166 21.6928 35.7911 22.036L35.7019 21.9502V21.7443C35.7019 21.6071 35.8625 21.4355 35.8982 21.2639C36.0053 20.8693 36.0589 20.3547 36.3445 20.0115C36.3088 19.8915 36.2909 19.737 36.3266 19.6341C36.63 18.6562 36.987 17.6955 37.2369 16.7519C37.3261 16.4259 37.5403 15.9799 37.701 15.6196C37.9152 15.1564 38.0579 14.2814 38.0579 14.1442C38.0579 13.2521 38.6827 12.806 38.6827 12.4286C38.6827 12.2913 38.6827 12.2055 39.0218 12.2055C39.1646 12.2055 39.7 12.4286 39.8428 12.4286C39.9856 12.4286 40.414 12.1884 40.646 12.1369C40.9138 12.0855 41.3957 11.9997 41.5385 11.9997C41.6813 11.9997 42.7344 12.2227 42.8593 12.2227C43.0021 12.2227 43.3055 12.0683 43.4483 12.0683C43.5911 12.0683 43.8767 12.4457 44.0195 12.4457C44.1623 12.4457 44.3051 12.2227 44.43 12.1884C44.5371 12.1712 44.7156 12.2227 44.8405 12.2055C45.0012 12.0855 45.3581 11.8967 45.6973 11.8967C45.8401 11.8967 46.1435 12.1712 46.2863 12.1712C46.4291 12.1712 46.5719 11.9997 46.7146 11.9997C46.8574 11.9997 47.3394 12.2742 47.4822 12.2742C47.6249 12.2742 47.8213 12.1026 47.9641 12.1026C48.1069 12.1026 48.214 12.2055 48.3567 12.2055C48.4995 12.2055 48.9636 11.9825 49.2313 11.8796C49.6776 11.931 49.7311 11.8796 49.7847 11.8796C49.8917 11.931 49.981 11.9825 50.1238 11.9825C50.2666 11.9825 50.6592 11.708 50.802 11.708C50.9448 11.708 50.9627 11.8624 51.0162 11.8967C51.2483 11.9139 51.4624 11.9654 51.6945 12.0854H52.3906C52.5512 11.9654 52.7297 11.931 52.7833 11.931C52.9261 11.931 53.3366 12.0855 53.5686 12.1541C53.6222 12.1541 53.6757 12.1026 54.4254 12.1541C54.6038 12.034 54.818 11.7766 54.9608 11.7766C55.1036 11.7766 55.4963 12.1541 55.6391 12.1541C55.7819 12.1541 55.889 12.0511 56.0318 12.0511C56.1745 12.0511 56.3709 12.1541 56.5137 12.1541C57.0313 12.1541 56.6565 11.7766 57.0491 11.7766C57.1919 11.7766 57.1205 11.7766 57.1562 11.811V11.9482L57.0491 12.0683C57.1205 12.1369 57.1205 12.2055 57.1205 12.2055C57.3169 12.0855 57.5489 11.8281 57.6917 11.8281C57.8345 11.8281 58.0308 11.8453 58.1915 11.8967C58.3343 11.9482 58.4235 12.1026 58.5663 12.1026C58.7091 12.1026 59.7265 11.8796 59.8693 11.8967C60.0478 12.034 60.1013 12.0511 60.2798 12.0511C60.4226 12.0511 60.8688 11.9482 61.0116 11.9482C61.1544 11.9482 61.2972 12.0511 61.44 12.0511C61.5828 12.0511 61.8326 11.7252 61.9754 11.7252C62.1182 11.7252 62.261 11.8281 62.3681 11.811C62.5287 11.7766 62.7072 11.7423 62.7965 11.7938C62.9393 11.8624 63.0285 12.0168 63.1356 12.034C63.3676 12.0683 63.6532 11.9825 63.8674 12.0168C64.0637 12.034 64.1887 12.2227 64.3315 12.2227C64.4743 12.2227 64.6171 12.0683 64.7599 12.0683C64.9026 12.0683 64.8848 12.1198 64.9562 12.1541C65.2418 12.1712 65.5987 12.0683 65.8665 12.1369C66.0093 12.1712 66.0807 12.3428 66.2056 12.3943H66.9553C67.1873 12.0511 66.9553 11.8624 67.3301 11.8624C67.4729 11.8624 67.7942 11.931 67.9905 12.034C68.2047 12.1369 68.2225 12.2913 68.3475 12.2913C68.4903 12.2913 68.7401 12.0168 68.8829 12.0168C69.0257 12.0168 69.1685 12.2399 69.3113 12.2399C69.4541 12.2399 69.9003 11.9139 70.0431 11.9139C70.1859 11.9139 71.7745 11.811 71.9172 11.811C72.06 11.811 72.2385 11.8624 72.3635 11.9482C72.4884 11.9139 72.5955 11.8967 72.6312 11.931C72.8097 12.0683 73.0774 12.1884 73.2202 12.1884C73.4522 12.1884 73.9877 11.6565 73.9877 11.5021C73.9877 11.3649 73.7378 10.8845 73.5593 10.7301C73.3452 10.5586 73.006 10.4899 72.7026 10.387C72.5777 10.5586 72.4884 10.7816 72.3099 10.7987C71.4353 10.936 70.4893 10.8331 69.4898 10.936C69.347 10.9532 69.2578 11.1419 69.1685 11.1933H69.0614C69.0257 11.1076 68.9543 10.9875 68.8829 10.936H68.0619C67.8834 10.936 67.3122 10.8845 67.0267 10.713C66.7411 11.1762 65.9379 10.9017 65.9557 11.5879C65.9379 11.5365 65.8665 11.5365 65.8308 11.5021C65.8308 11.3477 65.8843 11.2448 65.8843 11.1762L62.9214 11.0561C62.7429 11.1076 62.5644 11.2105 62.4216 11.2105C62.2789 11.2105 61.44 10.8331 61.2972 10.8331C60.9937 10.8331 60.5475 11.262 60.369 11.262C60.2262 11.262 59.6908 10.936 59.548 10.936C59.4052 10.936 58.7805 11.0904 58.6377 11.0904C58.4949 11.0904 58.4057 10.9875 58.2629 10.9875C58.1201 10.9875 57.8345 11.159 57.6203 11.2105C57.4418 10.9703 57.299 10.936 57.2633 10.936C57.1205 10.936 56.8885 11.0389 56.7457 11.0389C56.6029 11.0389 56.5494 10.8845 56.4066 10.8845C56.2638 10.8845 56.1567 10.9875 56.0139 10.9875C55.8711 10.9875 55.3713 10.61 55.2286 10.61C54.8716 10.61 55.0501 11.0389 54.6395 11.0389C54.4968 11.0389 54.3361 10.936 54.2112 10.936C53.2473 10.9875 53.1938 10.936 53.1224 10.936C52.9974 11.0561 52.9439 11.0389 52.8011 11.0389C52.6583 11.0389 52.462 10.9875 51.7837 10.9875C51.7302 10.9875 51.5874 11.0561 51.5517 11.0904C51.4624 10.9703 50.8913 10.713 50.6949 10.713C50.5522 10.713 49.5883 11.0389 49.4455 11.0389C49.3027 11.0389 49.0707 10.936 48.9458 10.936C48.803 10.936 48.7673 11.0389 48.7137 11.0389C48.4817 11.0389 48.2497 11.0389 48.089 11.0561C48.0712 11.159 48.0355 11.1933 47.8927 11.1933C47.7499 11.1933 47.0716 11.0904 46.9288 11.0904C46.786 11.0904 46.5005 11.1933 46.3577 11.1933C46.0899 11.1933 45.8936 10.8674 45.6437 10.8674C45.5009 10.8674 44.5906 11.2448 44.4657 11.2448C44.3229 11.2448 44.0909 11.0218 43.9481 11.0218C43.8053 11.0218 43.5554 11.1762 43.3769 11.2276C43.1627 11.2791 42.9128 11.159 42.7522 11.2105C42.5737 11.262 42.4488 11.3649 42.306 11.3649C42.1632 11.3649 41.7705 11.1419 41.6277 11.1419C41.4849 11.1419 41.3243 11.3134 41.1815 11.3134C41.0387 11.3134 40.8959 11.0904 40.7531 11.0904C40.6103 11.0904 40.6996 11.1933 40.5568 11.1933C40.414 11.1933 39.9856 11.2448 39.8428 11.2448C39.5037 11.2448 39.2181 11.2791 38.8255 10.936C38.9325 10.7987 39.1467 10.7644 39.2538 10.6272C39.3788 10.4385 39.5394 10.1297 39.593 9.90663C39.6465 9.70076 39.6643 9.46058 39.6822 9.30617C39.7179 9.2547 39.7714 9.20323 39.8071 9.18608C40.0035 8.75718 40.2355 8.34543 40.3783 7.95084C40.5211 7.59057 40.6639 6.92148 41.0566 6.85285C41.1458 6.64698 41.5385 6.37248 41.5385 6.23524C41.5385 6.09799 41.4849 6.08083 41.4492 6.04652C41.36 5.9779 41.2172 5.89211 41.1458 5.77202C41.0566 5.61762 41.0744 5.44606 41.003 5.29165C40.8424 5.17156 40.6817 5.05147 40.5568 5.05147C40.414 5.05147 40.5032 5.20587 40.3605 5.20587C40.2177 5.20587 40.3426 5.10294 40.182 5.10294C40.0392 5.10294 39.8428 5.25734 39.7 5.25734C39.5573 5.25734 39.593 5.1544 39.4502 5.1544C39.3074 5.1544 39.3431 5.25734 39.2003 5.25734C39.0575 5.25734 39.111 5.22303 39.111 5.22303C39.111 5.18872 39.1646 5.05147 39.0932 5H38.7898C38.647 5 38.4863 5.22303 38.3792 5.29165C38.3257 5.2745 38.2007 5.34312 38.1472 5.36028C37.2726 5.44606 37.0584 6.92148 36.755 7.52194C36.6836 7.67635 36.3623 7.76213 36.2731 7.95084C36.1838 8.13956 36.2017 8.3969 36.2195 8.58561C35.9339 8.48268 35.7554 8.91158 35.6841 8.96305C35.5591 9.08314 35.3271 9.13461 35.2557 9.30617C35.0415 9.88948 34.4703 11.2276 33.685 11.2276C33.5422 11.2276 32.9532 10.9532 32.8104 10.9532C32.6676 10.9532 32.3642 10.9875 32.2035 11.0218C31.9715 11.0904 31.7038 11.3306 31.561 11.3306C31.4182 11.3306 31.3289 11.1762 31.204 11.0561H29.5619C29.4191 11.0561 29.08 10.8845 28.9372 10.8845C28.7944 10.8845 27.42 11.2105 27.2772 11.2105C27.1344 11.2105 26.4026 10.936 26.2599 10.936C26.1171 10.936 25.6708 11.159 25.528 11.159C25.3853 11.159 25.1889 11.0046 25.0461 11.0046C24.9212 11.0046 24.4571 11.2276 23.9217 11.2276C23.1363 11.2276 23.3505 10.8502 22.8686 10.8502C22.7258 10.8502 22.6722 10.9875 22.5651 10.9875C22.2796 10.9875 21.994 10.936 21.7619 10.9703C21.637 10.9875 21.4764 11.0732 21.3336 11.0732C21.1908 11.0732 20.8516 10.7987 20.7089 10.7987C20.3697 10.7987 19.87 10.8331 19.87 11.2276C19.87 11.3649 19.87 11.3649 19.8878 11.4335C20.102 11.6051 20.2805 11.8453 20.5661 11.9654C20.9409 12.1198 21.7084 12.3599 21.8512 12.3599C21.994 12.3599 22.2439 11.8624 22.3866 11.8624C22.5294 11.8624 22.8329 12.2913 22.9757 12.2913C23.1185 12.2913 23.6182 12.0683 23.761 12.0683C23.9038 12.0683 24.4393 12.3428 24.5821 12.3428C24.7248 12.3428 24.8141 12.2742 24.9212 12.2742C25.2068 12.2742 25.5459 12.3085 25.8315 12.2742C25.9386 12.257 26.0457 12.1026 26.1171 12.0854C26.2777 12.0511 26.4562 12.1198 26.6347 12.1026C26.6882 12.0683 26.7061 12.0168 26.8489 12.0168C26.9917 12.0168 27.0274 12.2399 27.1523 12.2399C27.2951 12.2399 27.3308 12.1369 27.4557 12.1369C27.5985 12.1369 27.9555 12.3599 28.0983 12.3599C28.2411 12.3599 29.2228 12.034 29.3656 12.034C29.5083 12.034 30.2758 12.3085 30.4186 12.3085C30.5614 12.3085 30.7399 12.257 30.9006 12.2399C30.9541 12.2055 30.9184 12.1026 31.0612 12.1026H31.8465C31.9893 12.1026 32.1321 12.2055 32.2749 12.2055C32.4177 12.2055 32.9175 12.1026 33.0603 12.1026C33.2031 12.1026 33.2388 12.1026 33.2923 12.1369V12.2742C33.0781 12.48 32.7925 12.8232 32.6676 13.0633C32.5605 13.132 32.4534 13.0805 32.3285 13.1491C32.3463 13.3207 32.2571 13.4922 32.0607 13.5952C32.0429 13.6981 32.0607 13.8182 32.025 13.9211C31.9001 14.2128 31.793 14.5388 31.6324 14.779C31.4717 15.0191 31.0969 15.1049 30.8827 15.3108C30.7578 15.4309 30.7935 15.7225 30.7221 15.8598C30.615 16.1514 30.4543 16.4602 30.3115 16.7004C29.9189 16.546 29.6154 17.3524 29.4905 17.4896C29.312 17.6783 29.08 17.8327 29.0086 18.0386C28.9193 18.2959 28.8479 18.6391 28.6873 18.8964C28.6159 19.0165 28.491 19.0508 28.4553 19.068C28.2768 19.3596 28.2411 19.5655 27.8841 19.6684C27.7056 19.9601 27.7235 20.4576 27.2415 20.4233C27.0631 21.0924 26.1706 21.7443 26.242 22.3962C25.9921 22.5506 25.6173 22.7908 25.4924 23.0996C25.3317 23.4942 25.064 23.9918 24.7605 24.4893C24.4393 24.4378 24.1001 24.3863 23.8146 24.352C23.7075 24.3349 23.5825 24.1462 23.4397 24.1462C23.2969 24.1462 23.1542 24.2491 23.0114 24.2491C22.8686 24.2491 22.4402 23.9746 22.2974 23.9746C22.1546 23.9746 21.9404 24.0775 21.7619 24.0775C19.2988 24.0775 20.6375 24.129 20.0663 24.129C19.9235 24.129 19.87 23.9746 19.7807 23.8717C19.388 23.8545 18.9418 23.9403 18.5491 23.8373C18.4421 23.803 18.2636 23.5285 18.0672 23.5285C17.9244 23.5285 17.9601 23.6315 17.8173 23.6315C17.6745 23.6315 17.1391 23.58 16.8892 23.5285C16.9427 23.3913 16.9963 23.2884 17.0498 23.2026C17.6032 23.3398 17.978 22.7394 18.6384 22.3791C18.7455 22.3276 18.9418 22.3791 19.0311 22.3448C19.4773 22.1561 19.9592 22.0017 20.3697 21.9159C21.1908 21.2811 22.226 20.8007 22.9935 20.612C23.172 20.5777 23.3326 20.3032 23.4933 20.2174C23.6539 19.9601 24.6178 19.3768 24.8855 19.3768C25.0283 19.3768 25.1711 19.4797 25.3139 19.4797C25.4388 19.4797 25.6887 19.0337 25.8315 18.8964C25.9921 18.8792 26.1706 18.8793 26.3312 18.8278C26.4205 18.6048 26.5811 18.3131 26.5811 18.1758C26.5811 17.5925 26.1706 17.9185 26.01 17.0436C25.7601 17.0436 25.4031 16.9235 25.2603 16.9235C24.9033 16.9235 24.8141 17.1122 24.4571 17.3009H23.6718C23.529 17.3009 23.6361 17.198 23.4933 17.198C23.3505 17.198 23.0828 17.4725 22.9221 17.5582C22.815 17.5754 22.7079 17.5239 22.583 17.5411C22.2082 17.9014 21.7798 18.3817 21.2265 18.5876C21.0123 18.6734 20.691 18.6562 20.4947 18.7935C20.2091 18.9993 19.8878 19.4454 19.5844 19.5655C19.4951 19.5998 19.3702 19.5312 19.2452 19.5483C19.0489 19.5826 18.924 19.8571 18.7812 19.9601C18.4777 20.1831 18.1029 20.2517 17.7638 20.389C17.6032 20.4576 17.4068 20.5262 17.3176 20.6463C17.2997 20.6978 17.2462 20.8179 17.2283 20.8522C16.7643 21.2296 15.9968 21.1782 15.5148 21.3497C15.1222 21.487 14.6938 21.7958 14.319 22.0017C13.9977 22.1732 13.6586 22.3791 13.1945 22.4306C12.9624 22.7222 12.1414 22.8423 12.0522 22.8423C11.9094 22.8423 11.9629 22.7394 11.8201 22.7394C11.6773 22.7394 11.4453 23.0482 11.2668 23.1511C10.892 23.3741 10.4993 23.5972 10.0888 23.7516C9.92814 23.803 9.69611 23.7687 9.51762 23.8373C9.33913 24.0947 9 24.5236 9 24.6608C9 24.7981 9 25.1241 9.0714 25.3299C9.16064 25.5701 9.46407 25.6559 9.64256 25.8961C9.7675 25.8961 9.94599 25.7931 10.0709 25.7931C10.2137 25.7931 10.3744 25.8618 10.5529 25.8961C10.6599 25.9132 10.8384 25.7931 11.4096 25.8446C12.1592 25.9132 12.8554 26.1363 13.605 26.2049C13.9798 26.2392 14.0512 26.325 14.194 26.325C14.3368 26.325 14.908 26.1019 15.0508 26.1019C15.1936 26.1019 15.6755 26.2564 16.0325 26.325C16.1395 26.3421 16.2645 26.3078 16.318 26.325C16.4251 26.3593 16.4965 26.4794 16.6393 26.4794C16.7821 26.4794 17.2105 26.2049 17.3533 26.2049C17.4961 26.2049 19.1382 26.5308 19.2809 26.5308C19.4237 26.5308 19.87 26.4279 20.0128 26.4279C20.1555 26.4279 20.8516 26.548 21.2622 26.5652C21.6013 26.5823 21.994 26.5308 22.3331 26.5995C22.4937 26.6338 22.6722 26.8053 22.7793 26.8397C22.9578 26.8911 23.2255 26.9769 23.3326 27.0627C23.2255 27.2686 23.0828 27.5087 22.9757 27.6975C22.8686 27.8862 22.6722 27.9033 22.4937 28.0234C22.4759 28.195 22.4759 28.3665 22.4937 28.4695C22.4223 28.5724 21.5121 29.4302 21.5121 29.7733C21.5121 29.9106 21.6191 29.9277 21.6191 30.065C21.6191 30.065 21.0837 30.9743 20.8516 31.163C20.9944 31.7291 20.4947 32.0379 20.334 32.5526C20.2269 32.5698 20.0484 32.5698 19.9235 32.6899C20.0484 33.0158 19.9771 33.3933 19.8521 33.5991C19.7272 33.8222 19.3523 34.028 19.3166 34.2682C19.2988 34.3883 19.388 34.5427 19.3345 34.6457C19.1025 35.1432 18.8526 35.6064 18.6919 36.1211C18.5848 36.4299 18.6919 36.8588 18.5491 37.1504C18.21 37.871 18.0494 38.6087 18.0315 39.2263C18.0315 39.5008 17.8352 39.9297 17.8352 40.067C17.8352 40.2042 17.9423 40.2728 17.978 40.3072C18.4242 40.4444 19.1917 40.8733 19.3345 40.8733C19.4773 40.8733 19.5665 40.7704 19.6736 40.7018C19.6915 40.6331 19.6915 40.5473 19.745 40.4959C20.4411 40.5473 20.4054 40.067 20.8695 40.067C21.0123 40.067 21.2443 40.1699 21.3871 40.1699C21.7084 40.1699 22.351 39.9469 22.6365 39.8611C23.0292 39.741 23.4576 39.7067 23.8324 39.5523C24.1715 39.415 24.9926 38.9518 25.4745 38.7116C25.6708 38.6087 25.9564 38.4886 26.0992 38.4886H26.9381C27.0809 38.4886 27.5093 37.9053 27.7949 37.8538C28.8479 37.648 30.0974 36.7044 31.3111 36.224C31.5788 36.1211 32.1857 36.2412 32.3642 36.0696C33.0246 35.5035 33.9706 35.2118 34.5774 34.8859C34.8987 34.7143 35.095 34.354 35.3092 34.1653C35.4163 34.1481 35.5234 34.2168 35.6484 34.1825C36.4516 33.5991 37.344 32.9472 38.165 32.3639C38.1472 32.5526 38.2007 32.7757 38.2721 32.9301C38.7898 33.1188 39.6286 33.4447 39.7536 33.4447C39.8964 33.4447 40.3961 33.1874 40.646 33.1016C41.4314 32.8614 42.6273 31.609 42.5737 30.7512C42.5737 30.6311 42.7879 30.5454 42.7879 30.4081C42.7879 30.2709 42.7344 30.2194 42.7344 30.1679C43.0021 29.9964 42.9307 29.7219 43.2698 29.4988C43.2877 29.3444 43.4126 29.1214 43.4126 28.9842C43.4126 28.8469 43.3591 28.8641 43.3769 28.7955C43.5019 28.3151 44.2694 28.5724 44.2694 27.972C44.2694 27.8347 44.0373 27.5945 44.0373 27.4573C44.0373 27.423 44.4657 26.874 44.5014 26.5137C44.5371 26.4622 44.662 26.4108 44.6977 26.3593C44.8762 25.999 44.6085 25.6044 45.144 25.4329C45.1796 25.1412 45.5188 24.352 45.7687 24.352C45.9115 24.352 45.8758 24.4035 45.9114 24.4035C45.9114 24.5407 45.965 24.7123 45.965 24.8152C46.0007 25.2441 45.9114 25.6902 46.0007 26.1191C46.0185 26.1877 46.1792 26.2392 46.197 26.2735C46.1613 26.4794 46.3398 26.8397 46.3398 26.9769C46.3398 27.1142 46.1792 27.2514 46.1792 27.3543C46.2327 28.3322 46.2506 28.3665 46.1792 28.4352C46.2327 28.6067 46.2863 28.8469 46.2863 28.9842C46.2863 29.1214 46.1792 29.5503 46.1792 29.6876C46.1792 29.8248 46.5719 30.3052 46.5719 30.4424C46.5719 30.5797 46.5719 30.5282 46.5362 30.5797C46.3755 30.5282 46.3398 30.4424 46.322 30.3566L46.2327 30.9914C46.3398 31.4546 46.2506 31.7634 46.3041 32.2438C46.3577 32.2953 46.4112 32.3639 46.4826 32.3982C46.6433 32.4325 46.8396 32.3124 46.9288 32.5526C46.5719 32.7585 46.5897 32.9815 46.5897 33.3418C46.5897 33.4791 46.8753 34.5942 46.8753 34.7314C46.8753 34.8687 46.6968 35.2804 46.6968 35.4177C46.6968 35.5549 46.8396 36.0525 46.8753 36.3098C46.8931 36.4299 47.0359 36.5671 47.1609 36.6358C47.268 36.6872 47.4643 36.7044 47.5892 36.7044C47.732 36.7044 47.8391 36.6015 47.9641 36.6015C48.6423 36.6015 48.7673 36.6015 48.8387 36.5157C48.7851 36.3956 48.7851 36.2926 48.7851 36.2583C48.9993 36.1039 49.2492 36.0353 49.4455 35.8809C49.5348 35.8123 49.5526 35.6579 49.6062 35.6236C49.7133 35.6064 49.8917 35.6064 49.9988 35.5892C50.1238 35.4348 50.2309 35.2804 50.338 35.126C50.4986 35.126 50.7306 35.0574 50.9091 34.9888V34.4913C50.9091 34.354 50.6235 34.131 50.6235 33.9937C50.6235 33.8565 50.4451 32.9644 50.3915 32.4497C49.981 32.484 49.9988 32.2267 49.9988 32.0894C49.9988 31.9522 50.0167 31.6605 50.0702 31.4375C50.1238 31.2145 50.2844 30.9743 50.2844 30.837C50.2844 30.6998 49.981 30.0307 49.9631 29.6189C49.9453 29.3101 49.8917 28.9842 49.8739 28.641C49.8382 28.5724 49.7133 28.4695 49.6776 28.418C49.7311 28.2636 49.9096 28.0234 49.9096 27.8862C49.9096 27.7489 49.749 27.8347 49.749 27.6975C49.749 27.5602 49.9096 27.32 49.9096 27.1828C49.9096 27.0455 49.9631 26.771 49.9631 26.6338C49.9631 26.4965 49.8025 26.4965 49.8025 26.3593C49.8025 26.222 49.6954 25.9132 49.6597 25.7074C49.624 25.4843 49.6776 25.2785 49.6419 25.0554C49.624 25.0383 49.5705 25.1069 49.5705 24.9696C49.5705 24.8324 49.6776 24.7981 49.7311 24.6951H50.5522C50.6949 24.6951 50.7128 24.7981 50.7842 24.8324C51.1947 24.8496 51.5874 25.004 51.9265 25.0554C52.3192 25.1069 52.7119 25.0554 53.051 25.0897C53.3544 25.1069 53.6222 25.1755 53.8363 25.2441C54.0862 25.3299 54.2826 25.4843 54.4611 25.5358C54.6217 25.5873 54.8002 25.4843 54.9787 25.5186C55.1215 25.553 55.2286 25.673 55.3713 25.673C55.5141 25.673 55.9961 25.45 56.1389 25.45C56.2816 25.45 56.3173 25.6044 56.4423 25.7245H57.1741C57.3169 25.7245 57.6203 25.8275 57.7809 25.9132C57.6203 25.999 57.4061 25.9475 57.2455 26.0162C56.9956 26.3421 56.6208 26.5652 56.3887 26.874C56.3173 26.9598 56.3173 27.0284 56.3173 27.1656C56.3173 27.3029 56.3709 27.3715 56.353 27.423C56.2102 27.5259 55.9068 27.7146 55.9068 27.8519C55.9068 27.9891 55.9604 27.972 55.9425 28.0234C55.8533 28.1264 55.7283 28.1778 55.6926 28.195C55.532 28.3665 55.4427 28.9327 55.0501 28.9327V29.1214C55.0501 29.2415 54.6574 29.4817 54.6574 29.7733C54.6574 29.9106 54.4789 30.8027 54.4789 30.94C54.4789 31.0772 54.4789 31.1287 54.4968 31.2316C54.7109 31.4203 54.8894 31.7806 55.1215 31.8149C56.0139 31.935 56.3709 31.8492 56.71 31.8835C57.0134 31.9007 57.3704 32.0379 57.4954 32.0379C57.6382 32.0379 57.7631 31.8321 57.9059 31.7806C58.0665 31.7291 58.3164 31.7634 58.477 31.6948C58.6734 31.5919 58.7269 31.386 58.8697 31.3517C59.1375 31.2831 59.5123 31.4546 59.78 31.3689C60.1548 31.2488 60.4583 30.9743 60.7439 30.8542C61.0116 30.7512 61.3329 30.7169 61.6006 30.5968C61.7255 30.5454 61.8148 30.4253 61.8862 30.4081C62.1182 30.3738 62.386 30.4596 62.5109 30.3738C63.2248 29.8934 63.8853 29.6876 64.5457 29.3273C64.742 29.2243 65.0276 29.2243 65.2239 29.0699C65.4738 28.8984 65.5452 28.6239 65.7237 28.5038C65.9736 28.3494 66.3127 28.3665 66.5804 28.195C66.7411 28.0921 67.5621 27.2342 67.9726 27.2342C68.1154 27.2342 68.0619 27.2686 68.0619 27.2686C68.0083 27.8862 67.4372 29.0013 67.4372 29.8591C67.4372 29.9964 67.3836 30.4081 67.3836 30.5454C67.3836 30.5797 67.4193 31.2488 67.8656 31.2488C68.0083 31.2488 68.0797 31.06 68.1511 31.0429C68.3832 31.0086 68.7401 30.9743 68.8829 30.9743C69.0257 30.9743 69.5612 31.0772 69.704 31.0772C70.525 31.0772 70.2216 30.5797 71.2747 30.5797C71.4889 30.1851 72.0779 30.2709 72.5241 30.065C73.0239 29.8248 72.9703 29.6018 73.2381 29.6018C73.3809 29.6018 73.4522 29.6533 73.5236 29.7047C73.5415 29.9106 73.7735 30.2022 73.7735 30.3395C73.7735 30.4767 73.6664 30.5454 73.6664 30.614C73.6664 30.7341 73.6664 32.5869 73.7378 32.707C73.8628 32.707 74.0056 32.5869 74.0413 32.5526L74.184 32.6899V32.8271C74.077 32.9301 74.0056 33.033 74.0056 33.1702C74.0056 33.3075 73.952 33.8565 73.952 33.9937C73.952 34.131 73.952 34.2854 74.0413 34.3712C74.0948 34.3883 74.184 34.4055 74.184 34.5256C74.184 34.6457 73.8985 34.8858 73.8985 35.0059C73.8985 35.1432 74.0591 35.9495 74.0591 36.0868C74.0591 36.1726 73.9877 36.8245 74.3625 36.8245C74.5053 36.8245 74.5589 36.7215 74.7017 36.7215C74.8445 36.7215 75.8261 36.8759 75.9689 36.8759C76.2367 36.8759 76.665 36.5843 76.9328 36.6529C76.8792 36.5671 76.7364 36.55 76.7007 36.5671V36.4299L76.8078 36.327H76.9506C77.0042 36.4299 77.1113 36.6015 77.2541 36.6015C77.3968 36.6015 77.5218 36.3956 77.6646 36.3441C77.8252 36.2926 78.0037 36.327 78.1822 36.3098C78.3071 36.1726 78.5927 35.5892 78.5927 35.2976C78.5927 35.1603 78.6463 34.9373 78.6463 34.8001C78.6463 34.6628 78.5392 34.6628 78.5392 34.5256C78.5392 34.3883 78.8426 33.7535 78.9675 33.359C79.0032 33.2046 78.9854 32.9815 79.0032 32.8271C79.0925 32.7242 79.2353 32.6727 79.3067 32.5526C79.3959 32.3982 79.503 32.1237 79.503 31.9865C79.503 31.8492 79.3424 31.7634 79.3245 31.6777C79.4852 31.5233 79.6815 31.3517 79.7529 31.1801C79.7886 31.0772 79.735 30.8885 79.7886 30.8027C79.86 30.6655 80.0028 30.5454 80.0028 30.4081C80.0028 30.2709 79.8957 30.3223 79.8957 30.1851V29.9277C80.0028 29.8763 80.1099 29.8763 80.217 29.7562C80.2705 29.5503 80.3955 29.3616 80.3598 29.1557C80.7524 28.4866 80.7524 27.6632 81.3057 27.1485C81.3057 27.0284 81.1987 26.9254 81.1987 26.7882C81.1987 26.6509 81.1987 26.6681 81.2344 26.6166C81.2879 26.6166 81.395 26.6681 81.4307 26.6681C81.4842 27.2514 81.4842 27.8347 81.4307 28.4009C81.4842 28.4695 81.5378 28.521 81.5913 28.5553C81.3771 28.6239 81.4664 28.9842 81.395 29.0871C81.2522 29.3616 81.1808 29.6876 81.1808 29.8591C81.1808 29.8763 81.2879 30.94 81.2522 31.2831C81.3593 31.4032 81.4128 31.4032 81.4128 31.5404C81.4128 31.6777 81.4128 31.6262 81.3771 31.6777C81.2879 31.6262 81.2165 31.5233 81.1451 31.5233C81.1273 31.6434 81.0737 31.7806 81.0737 31.9179C81.0737 32.1752 81.4128 32.2781 81.4128 32.4668C81.4128 32.6041 81.3057 32.5526 81.3057 32.6899C81.3057 32.8271 81.4128 33.0501 81.4128 33.1874C81.4128 33.3246 81.2344 33.3246 81.2344 33.4619C81.2344 33.5991 81.4128 33.7879 81.4128 33.9251C81.4128 34.0624 81.2344 34.1653 81.2344 34.2854C81.2344 35.3148 81.3414 35.5378 81.3414 35.675C81.3414 35.8123 81.2701 35.9838 81.2165 36.1211C81.163 36.2412 80.8952 36.3441 80.8952 36.4814C80.8952 36.6186 81.4128 37.0132 81.5735 37.2019C81.4307 37.2362 81.1273 37.3392 81.1273 37.4764C81.1273 37.6137 81.1273 37.8024 81.0737 38.094C81.2165 38.1112 81.3057 38.1627 81.4128 38.197C81.0916 38.5401 81.0737 38.5916 81.0737 38.7974C81.0737 38.9347 81.1808 39.3979 81.1987 39.6552C81.2522 39.6895 81.3414 39.6895 81.3414 39.8268C81.3414 40.5473 80.8952 40.6331 80.8952 41.2164C80.8952 41.3537 81.0023 41.5939 81.0023 41.7311C81.0023 42.3144 80.6096 41.937 80.6096 42.2801C80.6096 42.4174 80.6632 42.6232 80.7167 42.7262C80.7167 42.7776 80.6632 42.8291 80.7167 43.5325C80.6632 43.807 80.4847 44.2702 80.4847 44.4075C80.4847 44.5447 80.7703 44.8192 80.7703 44.9565C80.7703 45.0937 80.681 45.3339 80.6275 45.4883C80.5739 45.6599 80.3062 45.8486 80.3062 45.9858C80.3062 46.1231 80.6453 46.6721 80.6453 46.7922C80.6453 46.9294 80.5382 46.8608 80.5382 46.998V47.7186C80.5382 47.8558 80.3776 48.4563 80.2527 48.7994C80.3241 48.868 80.4312 48.9195 80.4669 48.971C80.5382 49.4513 80.6632 50.3435 80.6632 50.4807C80.6632 50.618 80.3955 50.6694 80.2884 50.738C80.217 50.9096 80.217 51.0812 80.217 51.2184C80.217 51.3557 80.3776 52.162 80.3955 52.6595C80.449 52.7281 80.5561 52.8139 80.5561 52.8482C80.449 52.8997 80.3776 52.9512 80.3776 53.0713C80.3776 53.2085 80.6096 53.4487 80.6096 53.586C80.6096 53.7232 80.3241 54.5124 80.3241 54.6496C80.3241 54.7869 80.3955 54.7697 80.449 54.8383C80.6275 54.8383 80.8417 54.7869 81.0023 54.8212C81.0023 55.0271 80.9488 55.0785 80.9488 55.1128C80.7346 55.1128 80.5739 55.0442 80.3776 55.0614C80.3598 55.456 80.2527 55.8334 80.1991 56.228C80.5204 56.3824 80.9488 57 81.3236 57C81.4664 57 82.0911 56.8628 82.4302 56.8113C82.5373 56.7941 82.6266 56.6569 82.7694 56.6226C83.162 56.5368 83.5726 56.6397 83.9117 56.5368C84.108 56.4682 84.1616 56.125 84.3044 56.125C84.4471 56.125 84.822 56.125 85.054 56.0564C85.1254 55.7648 85.179 55.4045 85.179 55.2844C85.179 55.1471 84.6613 54.4609 84.6613 54.3408C84.6613 54.2036 84.7684 54.1521 84.7684 54.0149C84.7684 53.8776 84.6613 53.9119 84.6613 53.7747C84.6613 53.6374 85.0005 53.3115 85.0005 53.1742C85.0005 53.037 84.7684 52.6252 84.7684 52.488C84.7684 52.3507 84.8755 52.1105 84.8755 51.9733C84.8755 51.836 84.3758 51.1326 84.3758 50.9954C84.3758 50.8581 84.822 49.8802 84.822 49.743C84.822 49.6057 84.7149 49.6057 84.7149 49.4685C84.7149 49.3312 84.822 48.868 84.822 48.7308C84.822 48.3705 84.6613 48.4734 84.3222 48.0102L84.4114 47.9245C84.5007 48.0274 84.5185 48.1475 84.6613 48.1475C84.8041 48.1475 84.822 48.0789 84.8934 48.0102C84.8398 47.8387 84.9469 47.5985 84.9469 47.4612C84.9469 47.324 84.7149 46.9122 84.6078 46.7064C84.8041 46.7064 85.0005 46.1059 85.0005 45.9343C85.0005 45.7971 84.9469 45.7285 84.9469 45.677C84.9826 45.6255 85.054 45.6942 85.054 45.5569C85.054 45.4197 84.9469 45.5569 84.9469 45.4197C84.9469 45.2824 85.054 45.351 85.1076 45.2996V45.1109C84.9291 45.0422 84.7327 44.905 84.6613 44.7849C84.5185 44.5276 84.3758 44.1673 84.3758 44.03C84.3758 43.9099 84.7327 43.2237 84.7506 43.2065C84.8577 43.1894 84.9648 43.1894 85.0362 43.1894C85.0362 42.9492 85.1611 42.6747 85.1611 42.5374C85.1611 42.4002 84.9826 41.8855 84.9826 41.7483C84.9826 41.611 85.1254 41.4223 85.0897 40.8218C85.0719 40.5473 84.9826 40.2214 84.9469 39.9469C84.8398 39.8783 84.697 39.9297 84.697 39.7925C84.697 39.6552 84.6435 39.5008 84.6435 39.3636C84.6435 39.2263 84.7506 39.2092 84.7863 39.1577C84.7506 39.0376 84.7506 38.9518 84.7684 38.9004C84.8577 38.7974 85.0362 38.6945 85.0719 38.5744C85.1433 38.3685 85.1433 38.0769 85.1433 37.9396C85.1433 37.4421 84.5721 37.0304 84.5721 36.8245C84.5721 36.5843 85.054 36.4127 85.1076 36.3441C85.1254 36.1726 85.2503 35.9495 85.2503 35.8123C85.2503 35.5549 85.0719 35.1432 84.7149 34.8515C84.5899 34.8858 84.4293 34.8344 84.3401 34.8515C84.6256 33.9937 85.0183 34.4055 85.0183 33.6678V32.9815C85.0183 32.9129 85.7501 32.0723 85.7501 31.8149C85.7501 31.6777 85.5895 31.6262 85.5359 31.5061C85.3753 31.1973 85.3753 30.837 85.2146 30.5968C85.1611 30.5111 85.0719 30.4767 85.0362 30.4081C85.0719 30.2022 84.8755 30.0822 84.8577 29.9964C84.8934 29.9792 85.643 29.9449 85.643 29.5503C85.643 29.4131 85.5359 29.2587 85.5359 29.1214C85.5359 28.9842 85.643 28.8812 85.643 28.744C85.643 28.6067 85.3039 28.0406 85.3039 27.9033C85.3039 27.7661 85.411 27.7318 85.411 27.5945V27.097C85.2682 27.1485 85.179 27.097 85.1433 27.0627C85.3574 26.8568 85.3574 26.9083 85.5359 26.8568V26.5308C85.5359 26.3936 85.411 26.0848 85.4288 25.9304C85.4645 25.7074 85.5002 25.4843 85.4645 25.3299C85.4467 25.227 85.3217 25.0897 85.3217 24.9525C85.3217 24.8152 85.5538 24.7123 85.5538 24.5751C85.5538 24.4378 85.3931 24.2491 85.3753 24.0775C85.3396 23.5285 85.4288 23.3741 85.4288 22.6536C85.1254 22.4992 85.1433 22.3619 85.1433 22.3448C85.1433 21.9845 85.3217 22.2075 85.5895 21.7615C85.5895 21.6928 85.5359 21.6414 85.5895 20.6635C85.4467 20.5605 85.3396 20.5605 85.2503 20.4061C85.411 20.2517 85.6966 20.0802 85.6966 19.9429C85.6966 19.8057 85.5181 19.0508 85.5181 18.9136C85.5181 18.7763 85.6252 18.7763 85.6252 18.6391C85.6252 18.6219 85.3931 18.1759 85.3931 17.9871C85.3931 17.8499 85.3931 17.5754 85.4645 17.3695C85.6073 17.095 86 16.9749 86 16.6318ZM28.5088 24.5579C28.5802 24.4721 28.5624 24.2834 28.5981 24.1805C28.6159 24.1118 28.7944 24.0775 28.8479 23.9574C29.2942 23.0825 29.5976 23.1511 29.5976 22.4992C29.5976 22.3619 29.7047 22.3276 29.7225 22.2762C29.8832 22.1732 30.2758 22.1732 30.4186 21.8816C30.5436 21.6242 30.5614 21.2639 30.6864 21.0066C30.7399 20.8693 30.972 20.835 31.0433 20.7321C31.3111 20.3718 31.8465 19.6513 31.793 19.2052C32.4177 19.068 32.1321 18.3474 32.4356 18.1072C32.5783 18.0386 32.8282 18.0729 32.8996 17.8499C32.971 17.644 33.0246 17.3695 33.096 17.1465C33.2209 17.1293 33.3994 17.1636 33.4886 17.0607C33.7921 16.7347 33.9884 16.323 34.2918 15.8769C34.3632 15.9456 34.4882 16.0313 34.4882 16.1686C34.4882 16.3058 34.4168 16.9063 34.2383 17.2494C34.1847 17.3524 34.0063 17.4896 33.9884 17.5925C33.685 18.9307 33.7564 18.2616 33.7564 19.1366C33.7564 19.2738 33.4529 19.7027 33.3458 19.9944C33.2923 20.1488 33.3459 20.389 33.2923 20.5949C33.2388 20.7664 33.0424 20.9037 32.8818 21.1438C32.7033 21.384 32.6497 21.8301 32.6497 21.9673C32.6497 22.1046 32.8104 22.1389 32.8818 22.259C32.8282 22.3791 32.6854 22.5506 32.614 22.7051C32.5962 22.7565 32.6676 22.8595 32.6319 22.9795C32.4891 23.2026 32.3999 23.0996 32.2392 23.0996C32.1321 23.3055 32.025 23.5972 32.025 23.7344C32.025 23.8717 32.1321 23.9746 32.1321 24.1118C32.1321 24.2491 31.7395 24.7809 31.6145 25.1069C31.1861 25.1069 30.615 24.8839 30.1331 24.9525C29.5083 24.901 29.4548 24.9525 29.3834 24.9525C29.312 24.8839 29.2763 24.8496 29.1335 24.8496C28.9907 24.8496 28.955 25.004 28.8301 25.004C28.6873 25.004 28.6338 24.8496 28.491 24.8496C28.3482 24.8496 28.3125 24.901 28.1875 24.8839C28.3125 24.7638 28.4553 24.6437 28.5088 24.5579ZM38.5042 29.3959C38.2364 29.6361 37.9152 30.065 37.5582 30.2709C37.3618 30.391 37.0406 30.4424 36.8264 30.5797C36.7014 30.6483 36.6657 30.837 36.5943 30.9914C36.5051 31.163 36.3623 31.386 36.2017 31.4718C35.8447 31.6605 35.3628 31.6262 35.0236 31.8835C34.6131 32.1924 34.1134 32.3639 33.7207 32.6384C33.5779 32.7413 33.5065 32.9987 33.3102 33.2046C33.1852 33.1702 33.0246 33.1702 32.8639 33.2046C32.7568 33.2732 32.6497 33.4619 32.5248 33.5305C32.2571 33.6849 31.9001 33.8908 31.561 34.028C31.3468 34.1138 31.079 34.2168 30.7756 34.354C30.2401 34.5942 29.5976 34.8858 28.9729 35.1775C28.6516 35.3147 28.2054 35.3491 27.9019 35.5378C27.3129 35.8981 26.6347 36.2412 26.2599 36.5843C25.8493 36.6015 25.4567 36.773 25.064 36.7902C25.0104 36.8245 24.9033 36.9446 24.8319 36.9789C24.6178 36.9789 24.3143 37.0647 24.2608 37.2877C23.993 37.3735 23.6361 37.4421 23.3683 37.4936C23.1363 37.545 22.7079 37.8538 22.5651 37.8538C22.4223 37.8538 22.3331 37.8024 22.2082 37.7852C22.2082 37.7852 22.1903 37.7338 22.0832 37.8538V37.3392C22.4223 36.7215 22.583 35.9324 22.815 35.2804C22.9935 34.7658 23.3505 34.2682 23.5111 33.8222C23.6896 33.3418 23.7075 33.3761 23.7075 33.1016C23.7075 32.9644 24.4928 31.8835 24.7605 31.2659C24.8319 31.1115 24.7784 30.8713 24.8498 30.6655C24.939 30.4081 25.3139 30.288 25.2246 29.9621C25.7779 29.5503 25.9029 29.4817 25.9029 29.0013C25.9029 28.744 26.4919 28.2808 26.2955 27.6803C26.474 27.5602 26.6347 27.4058 26.7596 27.2514C27.0809 27.2343 27.6164 27.0627 27.7592 27.0627C27.9019 27.0627 27.9912 27.2171 28.134 27.2171C28.2768 27.2171 28.2946 27.1313 28.4196 27.1142C28.6516 27.0798 28.9372 27.1485 29.2049 27.1313C29.2585 27.097 29.2942 26.9941 29.437 26.9941C29.5797 26.9941 29.669 27.1828 29.7761 27.1999C30.0617 27.2342 30.5614 27.3887 30.7042 27.3887C30.847 27.3887 30.8827 27.2857 31.0076 27.2171C31.1326 27.2686 31.2575 27.3887 31.2575 27.5087C31.2575 27.646 30.9184 28.0063 30.9184 28.1264C30.9184 28.2636 31.0255 28.4523 31.0255 28.5896C31.0255 28.7268 30.7399 28.8641 30.7399 29.0013C30.7399 29.1386 30.847 29.1043 30.847 29.2415C30.847 29.3616 30.7399 29.0871 30.7221 29.739C30.5971 29.8077 30.4543 29.7733 30.3829 29.8591C30.2401 30.0307 30.2401 30.3223 30.2044 30.5454C30.1866 30.6483 30.1152 30.8199 30.026 30.9914C29.9903 31.0429 29.9367 31.0601 29.8653 31.1115C29.8118 31.163 29.8653 31.2316 29.8653 31.3689C29.8653 31.712 29.4548 31.7978 29.2406 32.1237C29.6511 32.484 29.2228 32.8786 29.669 33.2217C29.8296 33.2389 30.0974 33.2903 30.2223 33.2903H31.1147C31.2754 33.0845 31.4539 32.7585 31.6681 32.5869C31.7573 32.5183 31.9715 32.5526 32.1143 32.4497C33.2388 31.6262 33.9884 30.5111 34.149 29.3444C34.2204 28.8469 34.6488 28.4523 34.9879 28.0921C35.0593 28.0063 35.2557 28.0234 35.3985 28.0234C35.5413 28.0234 36.3802 28.0749 36.523 28.0749C36.6657 28.0749 36.8085 28.1264 36.9335 28.1435C37.0584 28.2465 37.112 28.4009 37.2547 28.4009C37.3975 28.4009 37.5939 28.2979 37.7724 28.2465C37.9687 28.7097 38.4685 28.4523 38.4685 28.9842C38.5934 29.1043 38.5399 29.2415 38.5042 29.3959ZM39.1824 23.6486C39.1646 23.7516 38.9682 23.8888 38.9325 24.0261C38.8433 24.4035 38.7541 25.004 38.7541 25.1412C38.7541 25.2785 38.8611 25.553 38.8611 25.6902C38.8611 25.8275 38.8076 25.999 38.7362 26.1191H38.3792C38.2543 25.999 38.1472 25.8961 37.9866 25.8103C37.933 25.7931 37.8081 25.8789 37.701 25.8275C37.3975 25.7074 37.1477 25.6902 36.8621 25.6044C36.8442 25.553 36.7728 25.5186 36.7728 25.3814C36.7728 25.0726 37.5403 24.4378 37.7188 24.1633C37.933 23.8202 37.9152 23.3055 38.0936 22.9795C38.2543 22.6879 38.647 22.5335 39.0753 22.259C39.1467 22.5506 39.2003 22.9281 39.2003 23.0653C39.2181 23.2197 39.2181 23.4942 39.1824 23.6486ZM63.207 27.646C63.0642 27.6975 62.9928 27.9205 62.85 27.9891C62.3146 28.2465 61.7077 28.5724 61.0651 28.8126C60.5297 29.0185 59.4944 29.2244 59.3516 29.2072H58.7805C58.7091 29.1386 58.7091 29.1729 58.7091 29.0528C58.7091 28.9155 58.8697 28.8126 58.9233 28.6925C59.0304 28.4009 59.2267 27.7318 59.4766 27.5087C59.7443 27.2514 59.9228 26.9598 59.9764 26.7024C60.0121 26.5995 60.137 26.4108 60.2619 26.325C60.494 26.3078 60.8331 26.2564 60.9759 26.2564C61.1187 26.2564 62.7072 26.8053 62.85 26.8053C62.9928 26.8053 62.9928 26.7024 63.1356 26.7024C63.2784 26.7024 63.439 26.874 63.564 26.874C63.796 26.8911 64.1708 26.771 64.4386 27.0455C64.1887 27.3887 63.564 27.5087 63.207 27.646ZM69.2578 24.5407C69.115 24.4893 69.0079 24.4893 68.9008 24.4378C68.7045 24.5922 68.6152 25.1241 68.4724 25.4157C68.4724 25.4157 68.4189 25.4157 68.3475 25.4843C67.3122 24.6608 66.3127 24.5064 65.2953 24.4378C65.1525 24.4378 65.0097 24.2319 64.9026 24.1976C64.5635 24.1118 63.921 24.0261 63.7782 24.0261H62.9393C62.6358 24.0261 62.3324 23.9231 62.3324 23.6486C62.3324 23.5114 62.5109 23.3398 62.5823 23.2369C63.1891 23.0653 63.1713 22.6193 63.7068 22.6193C63.8496 22.6193 64.3136 22.8251 64.6706 22.8423C65.2953 22.8766 65.6523 22.7394 65.7951 22.7394C65.9379 22.7394 66.277 22.8938 66.4198 22.8938C66.5626 22.8938 66.6161 22.7394 66.7589 22.7394C66.9017 22.7394 66.9017 22.8423 67.0445 22.8423C67.1873 22.8423 67.2408 22.7394 67.3836 22.7394C67.5264 22.7394 68.0083 22.9452 68.3475 23.0482C68.6688 23.1511 69.0079 23.1168 69.3827 23.0825C69.4006 23.1511 69.4541 23.1511 69.4541 23.2884C69.4541 23.6658 69.115 23.7001 69.2578 24.5407ZM73.3987 27.5945C73.3987 27.7318 73.3809 27.8004 73.2738 27.9033C72.8097 28.0406 71.9351 28.418 71.7923 28.418C71.6495 28.418 71.6138 28.3665 71.5424 28.3665C71.5424 28.3665 71.471 28.3665 71.471 28.2293C71.471 28.092 71.6138 27.6288 71.6495 27.3029C71.6674 27.1828 71.8815 27.0798 71.8994 26.9769C71.9351 26.7539 71.9172 26.548 71.9351 26.325C71.9886 26.2564 72.0957 26.1534 72.1314 26.1019C72.1493 25.999 72.0957 25.8103 72.0957 25.673C72.0957 25.4157 72.3635 24.901 72.5955 24.7295C72.6312 24.5579 72.8097 24.1805 72.9168 24.0089C72.9882 24.0089 73.0417 24.0604 73.131 24.0775C73.0417 24.3177 73.4165 24.5236 73.4165 24.7466C73.4165 24.8839 73.3095 24.9353 73.3095 25.0726C73.3095 25.2098 73.4879 25.2956 73.4879 25.4329C73.4879 25.5701 73.2024 26.3764 73.2024 26.5137C73.1845 26.6338 73.3987 27.4573 73.3987 27.5945Z" fill="#202226"/>
<path d="M44.769 8.41406C45.1438 8.41406 45.4116 8.9459 45.4116 9.1003C45.4116 9.23755 45.2866 9.63214 45.1617 9.82086C45.0546 9.95811 44.7869 10.1125 44.6441 10.1125C44.5013 10.1125 44.5191 10.061 44.4656 10.0096C44.3049 9.99242 44.1264 10.0439 43.948 10.0267C43.8766 9.92379 43.6445 9.78655 43.6445 9.6493C43.6445 9.51205 43.7695 9.46058 43.8587 9.35765C43.8766 9.25471 43.823 9.15177 43.823 9.01452C43.8409 8.53415 44.4656 8.41406 44.769 8.41406Z" fill="#202226"/>
<path d="M48.6244 8.19104C48.7672 8.19104 48.9814 8.25966 49.142 8.31113C49.2134 8.32829 49.731 8.98022 49.731 9.18609C49.731 9.32334 49.6775 9.40912 49.6418 9.52921C49.4276 9.70077 49.1956 9.97527 49.0528 9.97527C48.91 9.97527 48.8921 9.82087 48.7493 9.82087C48.6066 9.82087 48.553 9.9238 48.4102 9.9238C48.2674 9.9238 48.0711 9.80371 47.9461 9.68361C47.8391 9.58068 47.7141 9.25471 47.7141 9.11747C47.7141 8.98022 47.7677 8.82581 47.8569 8.75719C48.0532 8.61994 48.2853 8.41407 48.4281 8.25966C48.4459 8.24251 48.4816 8.19104 48.6244 8.19104Z" fill="#202226"/>
</svg>
